<svg width="1921" height="1163" viewBox="0 0 1921 1163" fill="none" xmlns="http://www.w3.org/2000/svg">
<path opacity="0.1" d="M1162.1 406.492C1160.26 406.873 1158.45 407.255 1156.61 407.679C1160.41 407.043 1164.25 406.407 1168.09 405.772C1166.09 406.026 1164.1 406.28 1162.1 406.492ZM1112.14 416.748C1110.18 417.341 1108.26 417.934 1106.3 418.528C1110.34 417.511 1114.41 416.494 1118.48 415.477C1116.36 415.943 1114.25 416.324 1112.14 416.748ZM1137.06 409.628C1131.96 411.027 1126.92 412.468 1121.89 413.951C1126.92 412.976 1132.03 412.044 1137.14 411.111C1142.25 409.925 1147.39 408.781 1152.54 407.679C1147.35 408.314 1142.21 408.95 1137.06 409.628ZM1063.87 430.987C1061.22 432.004 1058.57 433.022 1056 434.081C1060.49 432.513 1065.02 430.903 1069.59 429.377C1067.67 429.885 1065.79 430.436 1063.87 430.987ZM1088.1 421.706C1082.8 423.656 1077.5 425.648 1072.28 427.639C1077.31 426.241 1082.38 424.842 1087.45 423.444C1092.79 421.706 1098.2 420.053 1103.65 418.401C1098.43 419.503 1093.29 420.604 1088.1 421.706ZM1112.45 413.061C1106.15 415.222 1099.93 417.384 1093.79 419.63C1099.81 418.358 1105.84 417.129 1111.95 415.9C1118.13 414.036 1124.43 412.256 1130.73 410.476C1124.62 411.323 1118.52 412.171 1112.45 413.061ZM1015.76 449.973C1013.41 451.16 1011.07 452.389 1008.73 453.618C1013.45 451.457 1018.25 449.295 1023.05 447.134C1020.63 448.066 1018.21 448.999 1015.76 449.973ZM1039.56 438.234C1034.34 440.735 1029.24 443.235 1024.13 445.778C1029.04 443.871 1034.04 442.048 1039.07 440.184C1044.25 437.98 1049.43 435.776 1054.73 433.657C1049.63 435.183 1044.56 436.666 1039.56 438.234ZM1063.64 427.173C1057.42 429.928 1051.28 432.767 1045.17 435.607C1051.28 433.742 1057.38 431.92 1063.56 430.14C1069.67 427.724 1075.81 425.351 1082.07 423.02C1075.89 424.376 1069.75 425.775 1063.64 427.173ZM1087.87 416.833C1081.15 419.63 1074.51 422.427 1067.94 425.308C1074.55 423.783 1081.15 422.3 1087.87 420.859C1094.44 418.443 1101.08 416.07 1107.8 413.739C1101.08 414.756 1094.44 415.773 1087.87 416.833ZM969.408 473.621C966.874 475.231 964.301 476.842 961.766 478.495C966.797 475.528 971.904 472.604 977.05 469.722C974.477 471.036 971.942 472.35 969.408 473.621ZM992.525 459.297C987.341 462.39 982.234 465.527 977.165 468.705C982.195 466.205 987.264 463.747 992.41 461.289C997.517 458.534 1002.7 455.779 1007.88 453.067C1002.74 455.101 997.594 457.22 992.525 459.297ZM1015.64 445.862C1009.46 449.338 1003.39 452.813 997.363 456.373C1003.32 453.915 1009.34 451.499 1015.45 449.126C1021.48 446.074 1027.62 443.023 1033.8 440.014C1027.7 441.964 1021.63 443.913 1015.64 445.862ZM1039.3 433.022C1032.61 436.497 1026.09 440.057 1019.6 443.616C1026.09 441.497 1032.61 439.421 1039.22 437.387C1045.71 434.293 1052.28 431.242 1058.92 428.275C1052.35 429.843 1045.79 431.411 1039.3 433.022ZM1063.3 420.943C1056.35 424.334 1049.47 427.809 1042.71 431.284C1049.55 429.589 1056.46 427.936 1063.41 426.326C1070.21 423.317 1077.08 420.35 1084.07 417.426C1077.08 418.57 1070.17 419.757 1063.3 420.943ZM924.288 502.693C921.83 504.643 919.411 506.634 916.992 508.626C921.984 504.939 927.014 501.295 932.122 497.692C929.51 499.345 926.899 500.998 924.288 502.693ZM946.522 485.572C941.491 489.301 936.576 493.073 931.661 496.887C936.499 493.794 941.414 490.742 946.368 487.691C951.322 484.301 956.352 480.953 961.459 477.647C956.429 480.275 951.475 482.944 946.522 485.572ZM969.139 469.341C963.149 473.536 957.235 477.774 951.398 482.012C957.197 478.918 963.072 475.867 968.986 472.858C974.899 469.086 980.851 465.357 986.918 461.67C980.966 464.17 975.014 466.756 969.139 469.341ZM991.91 453.957C985.459 458.152 979.123 462.433 972.864 466.713C979.238 463.958 985.651 461.204 992.141 458.492C998.438 454.72 1004.85 450.99 1011.34 447.303C1004.81 449.507 998.323 451.711 991.91 453.957ZM1015.07 439.294C1008.23 443.447 1001.51 447.685 994.906 451.923C1001.63 449.592 1008.42 447.303 1015.26 445.015C1021.94 441.286 1028.7 437.556 1035.57 433.954C1028.7 435.734 1021.86 437.514 1015.07 439.294ZM1038.87 425.393C1031.77 429.419 1024.78 433.488 1017.91 437.599C1024.86 435.734 1031.88 433.954 1038.99 432.174C1045.94 428.572 1052.93 424.969 1060.11 421.494C1052.97 422.766 1045.9 424.079 1038.87 425.393ZM881.894 536.809C879.091 539.563 876.25 542.318 873.485 545.115C878.592 540.411 883.776 535.749 889.037 531.13C886.656 532.995 884.237 534.902 881.894 536.809ZM902.4 517.229C897.446 521.764 892.57 526.341 887.808 530.96C892.608 527.146 897.485 523.332 902.4 519.56C907.277 515.449 912.192 511.381 917.184 507.313C912.23 510.618 907.315 513.924 902.4 517.229ZM923.981 498.074C918.144 503.075 912.422 508.118 906.816 513.246C912.422 509.474 918.067 505.745 923.789 502.015C929.51 497.481 935.309 492.946 941.222 488.496C935.424 491.632 929.664 494.811 923.981 498.074ZM945.984 479.808C939.725 484.852 933.581 489.937 927.514 495.065C933.619 491.632 939.84 488.199 946.099 484.852C952.282 480.275 958.541 475.698 964.915 471.205C958.541 474.045 952.205 476.927 945.984 479.808ZM968.371 462.433C961.728 467.391 955.238 472.434 948.826 477.52C955.392 474.511 961.997 471.502 968.678 468.578C975.168 464.043 981.773 459.593 988.454 455.186C981.734 457.559 975.014 459.975 968.371 462.433ZM991.142 445.905C984.192 450.736 977.434 455.652 970.752 460.611C977.587 458.11 984.499 455.61 991.488 453.152C998.246 448.744 1005.12 444.379 1012.11 440.099C1005.08 442.006 998.093 443.955 991.142 445.905ZM1014.64 430.182C1007.42 434.844 1000.4 439.548 993.446 444.337C1000.47 442.345 1007.58 440.396 1014.76 438.488C1021.75 434.251 1028.89 430.055 1036.15 425.902C1028.93 427.3 1021.75 428.741 1014.64 430.182ZM840.768 577.789C838.541 580.502 836.39 583.256 834.202 585.969C839.04 580.459 843.994 574.95 849.024 569.483C846.221 572.28 843.494 575.035 840.768 577.789ZM860.813 554.354C856.243 559.524 851.75 564.779 847.334 569.992C851.597 565.796 855.936 561.601 860.275 557.405C864.883 552.574 869.568 547.742 874.33 542.954C869.76 546.768 865.267 550.54 860.813 554.354ZM880.934 532.232C875.482 537.995 870.144 543.801 864.922 549.692C870.298 545.157 875.75 540.623 881.318 536.173C886.694 530.875 892.186 525.62 897.792 520.408C892.109 524.307 886.502 528.248 880.934 532.232ZM901.632 511.084C895.565 517.06 889.613 523.078 883.814 529.138C889.766 524.9 895.757 520.704 901.862 516.551C907.776 511.127 913.766 505.745 919.872 500.405C913.728 503.965 907.661 507.524 901.632 511.084ZM923.174 490.658C916.762 496.506 910.503 502.439 904.397 508.414C910.694 504.685 917.03 500.956 923.482 497.311C929.741 491.929 936.115 486.589 942.643 481.334C936.077 484.428 929.587 487.521 923.174 490.658ZM945.062 471.29C938.381 477.011 931.814 482.775 925.402 488.623C932.045 485.402 938.727 482.224 945.485 479.088C952.051 473.833 958.733 468.62 965.53 463.492C958.656 466.035 951.821 468.62 945.062 471.29ZM967.373 452.855C960.422 458.364 953.664 463.958 947.021 469.595C953.933 466.925 960.883 464.255 967.949 461.67C974.707 456.584 981.619 451.584 988.646 446.625C981.504 448.66 974.4 450.736 967.373 452.855ZM990.566 435.268C983.347 440.565 976.282 445.947 969.331 451.372C976.435 449.253 983.578 447.176 990.758 445.1C997.786 440.226 1004.93 435.395 1012.22 430.648C1004.97 432.174 997.747 433.7 990.566 435.268ZM803.712 623.686C801.139 627.543 798.566 631.399 796.07 635.298C800.755 628.602 805.555 621.949 810.47 615.338C808.205 618.135 805.939 620.932 803.712 623.686ZM821.491 597.708C817.075 603.895 812.774 610.125 808.55 616.355C812.851 611.057 817.229 605.76 821.683 600.505C826.061 594.826 830.515 589.19 835.046 583.553C830.477 588.215 825.946 592.961 821.491 597.708ZM840.307 572.28C835.162 579.018 830.131 585.757 825.216 592.58C830.093 587.452 835.047 582.324 840.077 577.281C845.261 570.966 850.56 564.694 856.013 558.464C850.714 563.041 845.491 567.661 840.307 572.28ZM859.622 547.954C853.978 554.82 848.486 561.728 843.11 568.678C848.717 563.677 854.4 558.719 860.198 553.76C865.805 547.403 871.526 541.089 877.363 534.817C871.334 539.182 865.459 543.589 859.622 547.954ZM879.744 524.476C873.638 531.299 867.648 538.207 861.85 545.2C867.917 540.623 874.099 536.088 880.358 531.596C886.234 525.366 892.224 519.179 898.368 513.034C892.109 516.848 885.888 520.62 879.744 524.476ZM900.672 501.888C894.259 508.584 887.962 515.322 881.856 522.145C888.192 518.204 894.605 514.263 901.094 510.406C907.392 504.219 913.843 498.074 920.41 492.014C913.766 495.277 907.162 498.582 900.672 501.888ZM921.984 480.486C915.302 486.928 908.813 493.455 902.477 500.023C909.12 496.633 915.878 493.285 922.675 489.937C929.203 483.962 935.846 478.028 942.682 472.18C935.693 474.935 928.819 477.689 921.984 480.486ZM943.872 460.102C936.96 466.289 930.202 472.561 923.597 478.876C930.547 476.037 937.536 473.24 944.602 470.485C951.322 464.764 958.157 459.085 965.184 453.491C958.042 455.694 950.938 457.898 943.872 460.102ZM966.643 440.65C959.462 446.583 952.435 452.601 945.562 458.703C952.627 456.457 959.77 454.254 966.989 452.092C973.978 446.583 981.12 441.116 988.416 435.734C981.082 437.302 973.862 438.955 966.643 440.65ZM769.382 676.618C767.424 680.348 765.504 684.077 763.584 687.849C767.578 680.771 771.686 673.694 775.872 666.617C773.683 669.922 771.533 673.27 769.382 676.618ZM785.587 647.08C781.709 653.945 777.869 660.853 774.144 667.761C777.792 662.167 781.517 656.53 785.318 650.936C789.35 644.41 793.459 637.841 797.683 631.357C793.574 636.612 789.542 641.825 785.587 647.08ZM802.368 618.643C797.645 626.314 793.037 634.027 788.582 641.74C793.306 635.553 798.106 629.365 803.021 623.22C807.667 616.185 812.429 609.193 817.306 602.242C812.237 607.667 807.245 613.134 802.368 618.643ZM820.339 590.63C815.078 598.513 809.971 606.396 805.018 614.363C810.202 608.599 815.424 602.878 820.8 597.157C826.022 589.825 831.398 582.536 836.89 575.289C831.322 580.417 825.792 585.503 820.339 590.63ZM838.694 564.101C833.088 571.856 827.712 579.654 822.413 587.537C828.058 582.239 833.856 576.984 839.693 571.729C845.222 564.482 850.906 557.278 856.742 550.158C850.637 554.777 844.646 559.439 838.694 564.101ZM858.24 538.25C852.173 545.963 846.259 553.76 840.538 561.601C846.605 556.812 852.787 552.065 859.046 547.361C864.922 540.241 870.951 533.164 877.133 526.129C870.72 530.155 864.422 534.181 858.24 538.25ZM878.323 513.627C872.026 521.044 865.882 528.545 859.93 536.088C866.266 531.977 872.717 527.867 879.206 523.798C885.389 516.848 891.763 509.94 898.291 503.117C891.533 506.592 884.89 510.11 878.323 513.627ZM899.021 490.149C892.454 497.311 886.08 504.516 879.859 511.847C886.541 508.287 893.299 504.727 900.173 501.21C906.586 494.556 913.152 487.945 919.872 481.419C912.806 484.258 905.894 487.182 899.021 490.149ZM920.602 467.688C913.69 474.596 906.931 481.546 900.403 488.623C907.392 485.657 914.381 482.69 921.485 479.766C928.128 473.367 934.848 467.052 941.798 460.78C934.694 463.026 927.629 465.357 920.602 467.688ZM942.835 446.329C935.731 452.897 928.781 459.551 922.022 466.289C929.088 463.916 936.23 461.628 943.45 459.339C950.362 453.194 957.427 447.091 964.685 441.116C957.35 442.811 950.054 444.549 942.835 446.329ZM739.085 735.653C737.126 740.399 735.206 745.146 733.325 749.892C737.088 741.331 740.928 732.771 744.922 724.21C742.963 728.024 741.043 731.839 739.085 735.653ZM753.101 702.851C749.683 710.479 746.381 718.15 743.155 725.821C746.573 719.209 750.067 712.598 753.6 705.987C757.018 698.952 760.55 691.875 764.16 684.84C760.435 690.858 756.749 696.875 753.101 702.851ZM768.077 670.812C763.968 679.288 759.936 687.806 756.058 696.325C760.166 689.629 764.39 682.89 768.653 676.194C772.915 668.1 777.331 660.005 781.824 651.953C777.178 658.226 772.608 664.498 768.077 670.812ZM783.936 639.663C779.174 648.563 774.566 657.505 770.15 666.447C774.95 659.836 779.866 653.225 784.858 646.614C789.504 638.434 794.266 630.255 799.219 622.118C794.035 627.967 788.928 633.815 783.936 639.663ZM800.678 609.574C795.533 618.431 790.579 627.289 785.779 636.231C790.963 630.17 796.262 624.152 801.638 618.135C806.784 609.786 812.083 601.522 817.536 593.3C811.853 598.725 806.246 604.149 800.678 609.574ZM818.266 580.586C812.736 589.274 807.437 598.089 802.291 606.904C808.013 601.31 813.811 595.716 819.686 590.164C825.101 582.07 830.63 573.975 836.39 566.008C830.246 570.797 824.218 575.671 818.266 580.586ZM836.928 552.531C831.053 561.007 825.331 569.568 819.802 578.213C825.792 573.297 831.898 568.424 838.08 563.55C843.84 555.583 849.792 547.658 855.898 539.818C849.485 544.013 843.187 548.251 836.928 552.531ZM856.243 525.705C850.061 533.884 844.109 542.191 838.272 550.54C844.646 546.217 851.059 541.894 857.587 537.614C863.616 529.943 869.798 522.315 876.211 514.771C869.491 518.374 862.848 522.018 856.243 525.705ZM876.326 500.108C869.837 507.991 863.578 515.958 857.51 524.01C864.192 520.281 870.912 516.594 877.747 512.949C884.045 505.575 890.458 498.201 897.101 490.997C890.112 494.005 883.2 497.057 876.326 500.108ZM897.485 475.57C890.688 483.156 884.045 490.827 877.67 498.582C884.544 495.489 891.494 492.437 898.522 489.428C905.088 482.309 911.808 475.231 918.758 468.281C911.578 470.697 904.474 473.112 897.485 475.57ZM919.142 452.347C912.154 459.551 905.318 466.84 898.714 474.214C905.779 471.756 912.922 469.298 920.141 466.925C926.938 460.144 933.888 453.448 941.069 446.795C933.696 448.617 926.4 450.482 919.142 452.347ZM713.242 800.324C711.782 805.07 710.323 809.817 708.902 814.605C711.821 805.918 714.854 797.23 718.003 788.5C716.39 792.441 714.778 796.382 713.242 800.324ZM724.8 764.64C721.882 773.201 719.078 781.804 716.352 790.364C719.155 783.329 722.074 776.294 725.03 769.259C728.141 760.995 731.328 752.732 734.669 744.468C731.29 751.206 728.026 757.944 724.8 764.64ZM737.549 729.296C733.901 738.916 730.406 748.578 727.027 758.198C730.714 750.57 734.477 742.942 738.317 735.356C741.926 726.499 745.651 717.684 749.53 708.826C745.459 715.65 741.427 722.473 737.549 729.296ZM751.066 695.053C746.995 704.843 743.117 714.717 739.354 724.549C743.616 717.218 747.955 709.844 752.371 702.512C756.518 693.273 760.781 684.035 765.235 674.838C760.397 681.577 755.674 688.315 751.066 695.053ZM765.85 661.362C761.242 671.363 756.787 681.365 752.563 691.409C757.402 684.416 762.317 677.381 767.309 670.388C771.802 661.15 776.41 651.953 781.248 642.799C776.026 648.987 770.918 655.174 765.85 661.362ZM781.555 628.772C776.602 638.561 771.878 648.393 767.27 658.268C772.493 651.911 777.792 645.554 783.206 639.197C788.083 630.001 793.19 620.889 798.413 611.778C792.73 617.457 787.085 623.093 781.555 628.772ZM798.221 597.411C792.883 606.989 787.699 616.651 782.746 626.399C788.39 620.635 794.189 614.871 800.026 609.108C805.248 600.166 810.586 591.224 816.154 582.366C810.048 587.367 804.096 592.368 798.221 597.411ZM815.962 567.068C810.278 576.391 804.749 585.757 799.45 595.25C805.402 590.164 811.43 585.079 817.574 580.036C823.142 571.263 828.941 562.533 834.893 553.888C828.518 558.253 822.182 562.66 815.962 567.068ZM834.47 538.122C828.48 547.107 822.72 556.134 817.114 565.245C823.45 560.795 829.862 556.346 836.314 551.896C842.189 543.42 848.218 535.029 854.438 526.722C847.68 530.494 841.037 534.308 834.47 538.122ZM854.054 510.322C847.68 518.967 841.459 527.697 835.507 536.512C842.15 532.655 848.87 528.841 855.667 525.07C861.773 516.975 868.032 508.881 874.522 500.956C867.61 504.049 860.813 507.143 854.054 510.322ZM874.445 483.834C867.802 492.098 861.35 500.447 855.13 508.881C861.926 505.702 868.839 502.566 875.789 499.43C882.24 491.59 888.883 483.877 895.718 476.206C888.576 478.706 881.472 481.249 874.445 483.834ZM895.565 458.661C888.691 466.501 882.01 474.469 875.52 482.478C882.624 479.893 889.728 477.35 896.947 474.808C903.59 467.391 910.464 460.017 917.491 452.77C910.118 454.72 902.823 456.669 895.565 458.661ZM691.661 872.029C690.47 877.412 689.318 882.794 688.205 888.134C690.701 878.047 693.235 867.876 695.962 857.705C694.464 862.494 693.082 867.241 691.661 872.029ZM700.954 832.617C698.65 841.813 696.461 851.009 694.349 860.163C696.768 852.238 699.226 844.271 701.798 836.261C704.141 827.87 706.598 819.437 709.133 811.003C706.33 818.25 703.603 825.454 700.954 832.617ZM710.976 794.475C708.058 804.816 705.331 815.199 702.72 825.539C705.869 817.106 709.094 808.63 712.435 800.112C715.43 790.407 718.541 780.744 721.805 771.039C718.118 778.88 714.509 786.677 710.976 794.475ZM722.419 756.334C719.002 767.225 715.699 778.117 712.589 789.008C716.314 780.829 720.115 772.65 724.032 764.428C727.488 754.257 731.098 744.128 734.899 734C730.637 741.416 726.49 748.875 722.419 756.334ZM734.669 719.506C730.829 730.44 727.181 741.374 723.686 752.35C727.949 744.595 732.326 736.797 736.781 728.999C740.659 718.743 744.691 708.487 748.877 698.274C744.038 705.309 739.315 712.429 734.669 719.506ZM748.301 683.229C744 694.121 739.853 705.097 735.936 716.073C740.621 708.954 745.459 701.834 750.336 694.672C754.598 684.416 759.091 674.16 763.738 663.989C758.477 670.388 753.331 676.83 748.301 683.229ZM762.662 648.521C757.978 659.158 753.6 669.88 749.299 680.602C754.483 674.033 759.744 667.507 765.082 660.938C769.728 650.852 774.528 640.808 779.558 630.806C773.875 636.697 768.23 642.63 762.662 648.521ZM778.56 614.49C773.414 625 768.461 635.553 763.738 646.147C769.344 640.214 775.027 634.239 780.787 628.306C785.741 618.474 790.886 608.726 796.262 599.022C790.31 604.192 784.397 609.32 778.56 614.49ZM795.264 582.027C789.811 592.114 784.589 602.285 779.558 612.541C785.472 607.328 791.462 602.115 797.53 596.903C802.867 587.325 808.435 577.789 814.195 568.339C807.782 572.873 801.485 577.45 795.264 582.027ZM813.005 550.794C807.168 560.541 801.562 570.373 796.186 580.247C802.483 575.628 808.858 571.051 815.309 566.474C820.954 557.278 826.752 548.124 832.781 539.055C826.099 542.954 819.533 546.853 813.005 550.794ZM831.936 520.832C825.754 530.197 819.763 539.648 814.003 549.226C820.57 545.284 827.136 541.386 833.856 537.487C839.808 528.587 845.99 519.815 852.403 511.084C845.491 514.305 838.656 517.568 831.936 520.832ZM851.597 492.353C845.146 501.295 838.886 510.279 832.858 519.391C839.654 516.128 846.528 512.864 853.44 509.643C859.699 501.168 866.15 492.734 872.832 484.428C865.69 487.013 858.624 489.683 851.597 492.353ZM872.102 465.23C865.344 473.748 858.854 482.351 852.518 491.039C859.584 488.369 866.726 485.699 873.907 483.072C880.397 474.977 887.117 466.967 894.029 459.085C886.656 461.119 879.36 463.153 872.102 465.23ZM675.341 947.888C674.534 953.567 673.69 959.246 672.922 964.925C674.65 954.542 676.531 944.032 678.451 933.522C677.414 938.311 676.339 943.1 675.341 947.888ZM681.754 906.441C680.026 916.528 678.451 926.572 676.954 936.573C678.797 928.14 680.717 919.664 682.714 911.103C684.595 901.525 686.592 891.905 688.627 882.243C686.285 890.422 683.981 898.432 681.754 906.441ZM689.395 864.74C687.206 875.971 685.133 887.159 683.174 898.347C685.67 889.532 688.243 880.717 690.854 871.818C693.235 861.096 695.731 850.331 698.381 839.524C695.309 847.958 692.314 856.349 689.395 864.74ZM698.074 823.717C695.386 835.583 692.851 847.407 690.47 859.231C693.619 850.331 696.845 841.389 700.186 832.447C702.95 821.386 705.83 810.283 708.902 799.179C705.178 807.359 701.568 815.58 698.074 823.717ZM707.866 783.414C704.755 795.365 701.837 807.316 699.11 819.225C702.72 810.918 706.445 802.57 710.208 794.221C713.395 782.821 716.813 771.421 720.384 760.021C716.122 767.861 711.936 775.659 707.866 783.414ZM718.886 743.959C715.315 755.995 711.898 768.03 708.71 780.066C712.934 772.099 717.235 764.089 721.613 756.037C725.146 744.807 728.832 733.618 732.71 722.43C728.064 729.635 723.418 736.797 718.886 743.959ZM731.059 705.521C727.066 717.302 723.341 729.169 719.77 740.992C724.378 733.703 729.101 726.414 733.901 719.125C737.856 707.894 742.08 696.664 746.458 685.518C741.235 692.214 736.128 698.867 731.059 705.521ZM744.538 668.1C740.083 679.712 735.859 691.409 731.866 703.105C737.011 696.367 742.195 689.586 747.533 682.806C751.834 671.914 756.288 661.065 761.011 650.258C755.443 656.234 749.952 662.167 744.538 668.1ZM759.168 631.993C754.33 643.266 749.76 654.581 745.382 665.981C750.835 660.005 756.365 654.072 761.971 648.097C766.694 637.333 771.725 626.653 776.909 616.016C770.88 621.313 765.005 626.653 759.168 631.993ZM774.797 597.284C769.613 608.133 764.698 619.109 759.974 630.128C765.888 624.746 771.84 619.364 777.869 614.024C782.938 603.683 788.16 593.427 793.651 583.256C787.277 587.876 781.018 592.58 774.797 597.284ZM791.923 563.677C786.278 574.23 780.826 584.824 775.68 595.546C781.901 590.842 788.198 586.138 794.611 581.434C799.987 571.475 805.594 561.558 811.392 551.769C804.826 555.752 798.336 559.693 791.923 563.677ZM809.933 531.681C803.943 541.767 798.259 551.938 792.73 562.194C799.219 558.168 805.747 554.184 812.352 550.201C818.112 540.58 824.141 531.045 830.362 521.594C823.488 524.9 816.691 528.29 809.933 531.681ZM828.864 501.125C822.566 510.745 816.576 520.493 810.739 530.282C817.536 526.892 824.371 523.502 831.322 520.154C837.389 511 843.648 501.888 850.138 492.904C842.957 495.616 835.891 498.371 828.864 501.125ZM848.947 472.011C842.266 481.207 835.814 490.488 829.632 499.896C836.698 497.099 843.84 494.344 850.982 491.632C857.318 482.902 863.846 474.214 870.605 465.654C863.347 467.773 856.128 469.892 848.947 472.011ZM27.9936 1008.7C24.768 1005.02 21.4656 1001.24 18.2016 997.515C15.5136 994.845 12.7872 992.133 10.0608 989.42C13.248 992.938 16.4736 996.498 19.6224 999.973C22.3872 1002.9 25.2288 1005.86 27.9936 1008.7ZM685.517 853.383C683.213 866.351 681.062 879.319 679.104 892.244C682.176 883.09 685.325 873.852 688.589 864.571C690.97 852.408 693.504 840.203 696.23 827.997C692.582 836.516 689.011 844.991 685.517 853.383ZM693.811 810.706C691.046 823.717 688.512 836.727 686.17 849.738C689.779 841.05 693.466 832.32 697.267 823.59C700.07 811.3 703.027 799.01 706.214 786.677C701.99 794.687 697.882 802.697 693.811 810.706ZM703.411 768.836C700.224 781.719 697.267 794.645 694.502 807.57C698.611 799.476 702.797 791.339 707.098 783.16C710.285 770.955 713.664 758.707 717.274 746.544C712.55 754.003 707.942 761.419 703.411 768.836ZM714.278 727.94C710.63 740.653 707.251 753.367 704.064 766.123C708.672 758.665 713.318 751.163 718.118 743.62C721.69 731.584 725.491 719.548 729.523 707.597C724.378 714.378 719.27 721.159 714.278 727.94ZM726.49 688.23C722.419 700.647 718.579 713.107 714.97 725.609C720 718.828 725.107 712.005 730.291 705.139C734.285 693.316 738.47 681.577 742.886 669.837C737.357 676.025 731.904 682.128 726.49 688.23ZM740.045 649.665C735.475 661.785 731.174 673.991 727.104 686.238C732.595 680.051 738.125 673.864 743.77 667.676C748.147 656.191 752.794 644.749 757.632 633.349C751.718 638.816 745.843 644.24 740.045 649.665ZM754.867 612.541C749.914 624.237 745.19 636.061 740.698 647.927C746.534 642.46 752.448 636.993 758.438 631.484C763.2 620.381 768.115 609.32 773.338 598.344C767.117 603.09 760.934 607.836 754.867 612.541ZM770.842 576.942C765.466 588.172 760.435 599.53 755.558 610.972C761.664 606.226 767.846 601.479 774.106 596.775C779.29 585.969 784.742 575.289 790.426 564.652C783.821 568.72 777.293 572.789 770.842 576.942ZM788.045 542.784C782.285 553.591 776.794 564.482 771.533 575.459C778.022 571.305 784.589 567.195 791.194 563.084C796.723 552.743 802.445 542.53 808.435 532.359C801.6 535.834 794.803 539.309 788.045 542.784ZM806.477 510.11C800.333 520.45 794.419 530.918 788.774 541.47C795.571 537.995 802.406 534.478 809.318 531.045C815.155 521.171 821.184 511.381 827.52 501.719C820.416 504.473 813.389 507.27 806.477 510.11ZM825.754 479.088C819.302 488.92 813.158 498.837 807.206 508.881C814.157 506.041 821.184 503.244 828.25 500.447C834.432 490.997 840.845 481.673 847.526 472.434C840.23 474.638 832.973 476.842 825.754 479.088ZM663.821 1029.77C663.322 1036.16 662.899 1042.56 662.438 1048.92C663.59 1037.27 664.781 1025.53 666.125 1013.66C665.318 1019.04 664.55 1024.38 663.821 1029.77ZM667.622 985.225C666.586 995.989 665.626 1006.67 664.781 1017.31C666.086 1008.19 667.469 999.04 668.928 989.802C670.118 979.97 671.386 970.095 672.768 960.136C671.002 968.57 669.274 976.918 667.622 985.225ZM672.461 940.938C671.002 953.101 669.658 965.222 668.429 977.3C670.387 967.553 672.422 957.721 674.534 947.804C676.147 936.531 677.875 925.216 679.718 913.858C677.222 922.927 674.803 931.996 672.461 940.938ZM677.222 904.831C675.763 914.96 674.419 925.088 673.152 935.132C675.686 925.597 678.259 916.019 680.947 906.357C682.982 894.321 685.171 882.201 687.514 870.08C684.403 879.022 681.37 887.964 678.413 896.779C678.029 899.491 677.606 902.161 677.222 904.831ZM31.5648 1009.64C26.1504 1003.24 20.736 996.837 15.2448 990.31C11.0592 986.411 6.8736 982.512 2.6112 978.529C8.064 984.759 13.4016 990.904 18.7776 997.006C23.0784 1001.29 27.3408 1005.44 31.5648 1009.64ZM51.2256 1032.82C46.5792 1027.35 41.856 1021.76 37.1328 1016.2C33.3696 1012.52 29.5296 1008.75 25.728 1004.97C30.4128 1010.36 35.0592 1015.65 39.7056 1020.91C43.5456 1024.85 47.424 1028.92 51.2256 1032.82ZM68.5056 1053.16C65.2416 1049.34 61.9392 1045.45 58.6752 1041.59C56.064 1038.92 53.5296 1036.29 50.88 1033.58C54.1056 1037.27 57.3696 1040.95 60.5568 1044.56C63.2448 1047.44 65.8944 1050.36 68.5056 1053.16ZM688.474 793.458C685.67 807.274 683.098 821.132 680.755 834.99C684.787 826.853 688.896 818.631 693.082 810.367C695.846 797.272 698.803 784.219 701.99 771.124C697.421 778.583 692.89 786.042 688.474 793.458ZM698.035 750.273C694.771 763.835 691.738 777.481 688.934 791.085C693.427 783.584 698.035 776.04 702.682 768.454C705.869 755.571 709.248 742.688 712.896 729.847C707.866 736.67 702.912 743.493 698.035 750.273ZM709.018 708.191C705.293 721.456 701.76 734.805 698.534 748.197C703.488 741.331 708.48 734.466 713.587 727.558C717.197 714.929 721.075 702.342 725.184 689.798C719.693 695.901 714.317 702.046 709.018 708.191ZM721.382 667.464C717.197 680.348 713.242 693.316 709.555 706.326C714.893 700.181 720.307 693.994 725.798 687.806C729.869 675.474 734.208 663.184 738.739 650.936C732.864 656.446 727.104 661.955 721.382 667.464ZM735.091 628.136C730.445 640.596 726.067 653.14 721.92 665.769C727.68 660.26 733.478 654.708 739.354 649.199C743.808 637.29 748.531 625.424 753.485 613.642C747.302 618.431 741.197 623.305 735.091 628.136ZM750.106 590.334C744.998 602.327 740.237 614.405 735.667 626.568C741.773 621.695 747.955 616.821 754.176 611.99C759.053 600.505 764.083 589.105 769.459 577.789C762.97 581.985 756.518 586.138 750.106 590.334ZM766.541 554.015C761.011 565.542 755.75 577.196 750.758 588.893C757.21 584.697 763.661 580.502 770.227 576.306C775.488 565.245 781.018 554.311 786.778 543.42C779.981 546.937 773.222 550.455 766.541 554.015ZM784.166 519.348C778.214 530.367 772.531 541.47 767.117 552.701C773.837 549.141 780.595 545.624 787.43 542.106C793.075 531.511 798.989 521.044 805.133 510.618C798.106 513.542 791.117 516.424 784.166 519.348ZM802.906 486.335C796.608 496.802 790.618 507.44 784.858 518.119C791.846 515.195 798.835 512.271 805.939 509.389C811.93 499.345 818.074 489.344 824.525 479.469C817.267 481.758 810.048 484.046 802.906 486.335ZM657.485 1114.86C657.408 1121.39 657.331 1127.92 657.254 1134.4C657.677 1122.62 658.214 1110.67 658.79 1098.63C658.368 1104.06 657.907 1109.48 657.485 1114.86ZM658.598 1068.33C658.214 1079.69 657.946 1090.92 657.715 1102.11C658.445 1092.91 659.251 1083.63 660.096 1074.26C660.71 1063.5 661.402 1052.65 662.17 1041.72C660.902 1050.7 659.75 1059.56 658.598 1068.33ZM660.634 1021.67C659.942 1034.51 659.366 1047.23 658.906 1059.9C660.211 1049.94 661.594 1039.81 663.053 1029.64C663.974 1017.56 664.973 1005.4 666.125 993.15C664.205 1002.73 662.4 1012.22 660.634 1021.67ZM663.706 975.054C662.63 988.615 661.747 1002.09 660.941 1015.53C662.822 1005.48 664.781 995.353 666.816 985.098C668.045 972.341 669.427 959.543 670.925 946.702C668.467 956.195 666.086 965.688 663.706 975.054ZM667.968 928.775C666.509 942.633 665.242 956.492 664.128 970.265C666.586 960.518 669.082 950.685 671.693 940.769C673.152 928.775 674.726 916.782 676.454 904.704C676.608 903.56 676.8 902.415 676.954 901.271C673.882 910.468 670.886 919.664 667.968 928.775ZM673.459 882.963C671.578 896.948 669.888 910.934 668.39 924.834C671.424 915.468 674.496 906.06 677.683 896.567C679.642 883.345 681.754 870.122 684.096 856.858C680.448 865.588 676.915 874.318 673.459 882.963ZM674.342 876.31C674.189 877.412 674.035 878.556 673.882 879.658C677.414 870.885 681.024 862.028 684.749 853.086C687.091 839.864 689.626 826.641 692.39 813.461C688.282 821.598 684.25 829.692 680.294 837.702C678.144 850.585 676.147 863.469 674.342 876.31ZM51.456 1029.05C45.5424 1021.8 39.5904 1014.55 33.5616 1007.18C29.0688 1003.07 24.5376 998.871 20.0064 994.633C25.9968 1001.75 31.872 1008.7 37.7856 1015.65C42.3552 1020.23 46.8864 1024.64 51.456 1029.05ZM72.4224 1054.6C66.9312 1047.95 61.44 1041.25 55.8336 1034.43C51.6096 1030.32 47.3472 1026.16 43.008 1021.97C48.4992 1028.45 53.8752 1034.81 59.2896 1041.17C63.7056 1045.66 68.0832 1050.15 72.4224 1054.6ZM92.2752 1078.67C87.5904 1072.99 82.8672 1067.23 78.0672 1061.47C74.304 1057.61 70.464 1053.71 66.624 1049.77C71.3856 1055.36 76.0704 1060.87 80.7552 1066.34C84.6336 1070.49 88.4736 1074.65 92.2752 1078.67ZM109.786 1099.82C106.56 1095.96 103.296 1091.98 100.07 1088.08C97.4976 1085.32 94.9248 1082.61 92.3136 1079.86C95.6544 1083.76 98.9952 1087.66 102.298 1091.51C104.794 1094.31 107.29 1097.06 109.786 1099.82ZM682.099 772.523C679.219 786.932 676.608 801.341 674.266 815.792C678.682 808.291 683.136 800.747 687.706 793.119C690.509 779.388 693.504 765.657 696.768 751.969C691.853 758.834 686.938 765.7 682.099 772.523ZM691.814 728.236C688.435 742.306 685.363 756.376 682.522 770.531C687.398 763.665 692.314 756.8 697.306 749.85C700.531 736.373 704.026 722.981 707.789 709.589C702.374 715.861 697.075 722.049 691.814 728.236ZM702.989 685.264C699.149 698.952 695.539 712.683 692.237 726.456C697.536 720.227 702.874 713.997 708.288 707.725C711.974 694.629 715.93 681.619 720.115 668.651C714.355 674.203 708.634 679.754 702.989 685.264ZM715.661 643.732C711.322 656.954 707.251 670.261 703.45 683.611C709.133 678.059 714.854 672.507 720.653 666.913C724.8 654.242 729.178 641.613 733.824 629.111C727.718 634.027 721.651 638.901 715.661 643.732ZM729.754 603.81C724.954 616.524 720.422 629.365 716.16 642.248C722.189 637.375 728.294 632.459 734.438 627.585C739.008 615.38 743.77 603.217 748.877 591.181C742.426 595.377 736.051 599.573 729.754 603.81ZM745.19 565.499C739.93 577.705 735.014 590.037 730.291 602.412C736.627 598.174 743.04 593.936 749.491 589.74C754.483 577.959 759.782 566.262 765.312 554.693C758.554 558.253 751.834 561.855 745.19 565.499ZM762.086 528.757C756.365 540.453 750.912 552.277 745.766 564.186C752.448 560.583 759.168 556.939 765.926 553.337C771.341 542.064 777.024 530.918 782.938 519.857C775.949 522.823 768.998 525.79 762.086 528.757ZM780.211 493.794C774.106 504.939 768.23 516.212 762.662 527.57C769.613 524.561 776.602 521.594 783.629 518.628C789.389 507.906 795.379 497.226 801.677 486.716C794.458 489.047 787.315 491.42 780.211 493.794ZM653.798 1106.26C653.875 1119.78 654.067 1133.17 654.336 1146.44C655.066 1136.05 655.872 1125.5 656.678 1114.82C656.87 1102.15 657.139 1089.35 657.523 1076.47C656.256 1086.51 655.027 1096.43 653.798 1106.26ZM654.067 1057.4C653.837 1071.68 653.76 1085.88 653.798 1099.95C655.066 1089.56 656.41 1078.97 657.83 1068.29C658.291 1054.81 658.829 1041.25 659.558 1027.6C657.638 1037.65 655.834 1047.56 654.067 1057.4ZM655.411 1008.58C654.835 1023.28 654.413 1037.86 654.144 1052.4C655.987 1042.27 657.869 1031.97 659.827 1021.54C660.595 1007.64 661.478 993.701 662.554 979.631C660.134 989.42 657.754 999.04 655.411 1008.58ZM657.984 960.051C656.986 974.927 656.218 989.759 655.565 1004.51C657.946 994.76 660.403 984.886 662.899 974.884C664.013 960.772 665.28 946.617 666.739 932.42C663.782 941.701 660.864 950.94 657.984 960.051ZM661.862 911.951C660.442 926.868 659.213 941.744 658.214 956.619C661.133 947.38 664.128 938.014 667.162 928.564C668.659 914.409 670.349 900.169 672.23 885.93C668.736 894.702 665.28 903.39 661.862 911.951ZM667.162 864.613C665.28 879.446 663.629 894.279 662.17 909.069C665.587 900.381 669.12 891.566 672.691 882.709C672.998 880.548 673.267 878.386 673.574 876.183C675.264 864.189 677.107 852.196 679.104 840.16C675.034 848.382 671.078 856.519 667.162 864.613ZM668.698 852.832C668.275 855.925 667.891 858.977 667.469 862.07C671.424 853.933 675.456 845.712 679.526 837.406C681.869 823.42 684.442 809.435 687.245 795.492C682.714 803.036 678.298 810.537 673.92 817.996C672.038 829.608 670.272 841.22 668.698 852.832ZM48.6528 1019.98C42.0864 1011.71 35.4048 1003.32 28.6848 994.845C24.0384 990.861 19.3536 986.878 14.6304 982.767C21.1968 990.819 27.6864 998.786 34.1376 1006.63C39.0144 1011.16 43.8912 1015.61 48.6528 1019.98ZM70.8096 1047.78C64.4736 1039.85 58.1376 1031.88 51.6864 1023.79C47.04 1019.59 42.3168 1015.23 37.5936 1010.91C43.968 1018.7 50.2272 1026.33 56.4864 1033.96C61.3248 1038.62 66.0864 1043.2 70.8096 1047.78ZM92.6976 1075.15C86.6688 1067.61 80.6016 1060.02 74.4576 1052.31C69.9648 1047.99 65.472 1043.71 60.9024 1039.26C66.9312 1046.59 72.8448 1053.79 78.7584 1061C83.4432 1065.83 88.0896 1070.53 92.6976 1075.15ZM114.01 1101.81C108.48 1094.94 102.912 1087.99 97.3056 1080.96C93.0048 1076.64 88.6272 1072.14 84.2496 1067.69C89.8176 1074.48 95.3088 1081.09 100.8 1087.74C105.216 1092.44 109.632 1097.19 114.01 1101.81ZM134.093 1126.81C129.37 1120.97 124.57 1114.99 119.77 1109.01C116.006 1105.07 112.282 1101.13 108.48 1097.06C113.28 1102.87 118.042 1108.59 122.765 1114.27C126.605 1118.51 130.368 1122.66 134.093 1126.81ZM151.872 1148.89C148.685 1144.95 145.459 1140.93 142.234 1136.94C139.661 1134.1 137.088 1131.26 134.477 1128.42C138.01 1132.66 141.466 1136.82 144.96 1140.97C147.341 1143.64 149.568 1146.22 151.872 1148.89ZM647.808 1092.23C648.077 1107.57 648.576 1122.79 649.152 1137.88C650.419 1127.45 651.686 1116.9 652.992 1106.18C652.915 1091.64 652.954 1076.98 653.184 1062.19C651.379 1072.27 649.574 1082.27 647.846 1092.06L647.808 1092.23ZM647.539 1041.12C647.462 1056.85 647.539 1072.48 647.808 1087.99C649.613 1077.91 651.418 1067.69 653.299 1057.31C653.53 1042.48 653.914 1027.52 654.49 1012.52C652.186 1022.05 649.882 1031.5 647.616 1040.78L647.539 1041.12ZM648.422 990.565C647.923 1006.33 647.654 1022.05 647.539 1037.65C649.843 1028.03 652.224 1018.28 654.643 1008.41C655.258 993.404 656.026 978.359 656.986 963.23C654.106 972.469 651.226 981.58 648.422 990.565ZM650.765 940.303C649.805 956.068 649.075 971.833 648.538 987.513C651.379 978.402 654.259 969.205 657.216 959.882C658.214 944.88 659.405 929.793 660.826 914.663C657.408 923.308 654.067 931.869 650.765 940.303ZM654.49 890.846C653.069 906.484 651.878 922.122 650.918 937.717C654.259 929.157 657.677 920.511 661.133 911.739C662.554 896.779 664.205 881.819 666.086 866.817C662.131 874.911 658.291 882.921 654.49 890.846ZM659.789 842.11C657.83 857.578 656.141 873.047 654.72 888.473C658.56 880.505 662.438 872.453 666.394 864.274C666.893 860.417 667.392 856.561 667.93 852.704C669.427 841.771 671.078 830.794 672.845 819.86C668.429 827.362 664.09 834.778 659.789 842.11ZM666.547 794.602C664.09 809.732 661.978 824.904 660.058 840.075C664.358 832.659 668.774 825.2 673.19 817.657C675.533 803.121 678.144 788.584 681.024 774.091C676.109 780.999 671.309 787.822 666.547 794.602ZM675.072 748.027C672.077 762.86 669.312 777.778 666.893 792.695C671.693 785.872 676.493 779.007 681.408 772.099C684.25 757.859 687.322 743.705 690.701 729.55C685.402 735.78 680.218 741.925 675.072 748.027ZM684.979 703.021C681.485 717.387 678.336 731.839 675.418 746.332C680.602 740.187 685.824 734 691.123 727.812C694.426 713.954 698.035 700.139 701.875 686.408C696.154 691.959 690.547 697.511 684.979 703.021ZM696.576 659.37C692.544 673.355 688.781 687.383 685.325 701.495C690.931 695.943 696.576 690.349 702.298 684.755C706.099 671.321 710.17 657.971 714.509 644.664C708.48 649.622 702.49 654.496 696.576 659.37ZM709.747 617.287C705.216 630.764 700.954 644.283 696.998 657.929C702.95 653.055 708.941 648.139 714.97 643.223C719.232 630.255 723.725 617.372 728.563 604.616C722.227 608.811 715.968 613.049 709.747 617.287ZM724.262 576.942C719.27 589.825 714.624 602.836 710.17 615.931C716.429 611.693 722.726 607.455 729.062 603.217C733.747 590.758 738.701 578.383 743.962 566.135C737.395 569.737 730.79 573.34 724.262 576.942ZM740.198 538.334C734.746 550.667 729.638 563.169 724.723 575.713C731.29 572.068 737.894 568.466 744.538 564.864C749.683 552.913 755.174 541.047 760.896 529.307C753.946 532.274 747.072 535.283 740.198 538.334ZM757.709 501.379C751.757 513.161 746.112 525.112 740.736 537.105C747.61 534.054 754.522 531.045 761.472 528.036C767.04 516.636 772.915 505.321 779.021 494.133C771.878 496.548 764.774 498.964 757.709 501.379ZM43.8528 1006.71C36.8256 997.642 29.76 988.488 22.5792 979.207C17.9328 975.562 13.248 971.833 8.4864 968.061C15.4752 976.918 22.464 985.691 29.2992 994.336C34.176 998.49 39.0528 1002.64 43.8528 1006.71ZM66.8928 1036.42C60.0576 1027.6 53.1072 1018.66 46.1184 1009.64C41.4336 1005.69 36.672 1001.63 31.872 997.557C38.7456 1006.2 45.5808 1014.85 52.3008 1023.28C57.216 1027.77 62.0544 1032.1 66.8928 1036.42ZM89.7408 1065.87C83.0976 1057.35 76.3776 1048.67 69.5808 1039.94C64.8576 1035.74 60.096 1031.42 55.296 1027.05C61.9776 1035.44 68.5824 1043.75 75.1104 1051.93C80.0256 1056.63 84.9024 1061.3 89.7408 1065.87ZM112.32 1094.9C105.907 1086.68 99.4176 1078.29 92.8512 1069.9C88.2048 1065.49 83.4816 1061.04 78.7584 1056.46C85.248 1064.6 91.6224 1072.57 97.9968 1080.54C102.835 1085.45 107.597 1090.16 112.32 1094.9ZM134.63 1123.55C128.563 1115.75 122.381 1107.83 116.16 1099.86C111.629 1095.33 106.982 1090.71 102.374 1086.05C108.518 1093.72 114.547 1101.22 120.538 1108.72C125.261 1113.68 130.022 1118.68 134.63 1123.55ZM156.173 1151.1C150.605 1143.98 144.922 1136.73 139.238 1129.44C134.976 1124.99 130.637 1120.46 126.298 1115.88C131.942 1122.92 137.549 1129.87 143.078 1136.73C147.494 1141.56 151.872 1146.39 156.173 1151.1ZM798.221 460.865C790.925 462.645 783.667 464.467 776.448 466.289C770.112 477.52 764.083 488.835 758.323 500.278C765.389 497.862 772.531 495.446 779.674 493.073C785.587 482.224 791.731 471.46 798.221 460.865ZM821.606 455.228C814.157 456.966 806.784 458.746 799.411 460.568C792.922 471.163 786.778 481.843 780.826 492.649C787.968 490.276 795.149 487.903 802.368 485.572C808.512 475.359 814.925 465.272 821.606 455.228ZM845.03 449.846C837.581 451.541 830.17 453.236 822.797 454.974C816.154 464.933 809.741 475.02 803.597 485.191C810.739 482.902 817.958 480.614 825.216 478.325C831.552 468.705 838.234 459.254 845.03 449.846ZM868.608 444.676C861.12 446.286 853.709 447.897 846.298 449.55C839.501 458.915 832.858 468.366 826.522 477.944C833.741 475.698 841.037 473.494 848.371 471.29C854.899 462.306 861.658 453.448 868.608 444.676ZM892.147 439.76C884.736 441.285 877.363 442.811 870.029 444.379C863.078 453.109 856.358 461.924 849.83 470.866C857.011 468.705 864.269 466.586 871.565 464.509C878.17 456.161 885.043 447.897 892.147 439.76ZM915.917 435.098C908.429 436.539 901.018 437.98 893.645 439.506C886.579 447.6 879.667 455.822 873.024 464.128C880.32 462.051 887.693 459.975 895.104 457.941C901.786 450.185 908.736 442.599 915.917 435.098ZM939.84 430.648C932.314 432.004 924.826 433.403 917.376 434.801C910.234 442.26 903.322 449.804 896.602 457.474C903.898 455.483 911.27 453.533 918.643 451.584C925.555 444.506 932.582 437.514 939.84 430.648ZM963.878 426.453C956.352 427.724 948.902 428.996 941.453 430.352C934.234 437.175 927.206 444.125 920.333 451.16C927.629 449.253 935.002 447.388 942.413 445.566C949.363 439.124 956.544 432.725 963.878 426.453ZM987.917 422.554C980.429 423.74 972.941 424.927 965.53 426.156C958.234 432.386 951.13 438.7 944.179 445.057C951.475 443.277 958.81 441.497 966.221 439.802C973.325 433.996 980.544 428.233 987.917 422.554ZM1012.07 418.952C1004.58 420.011 997.171 421.155 989.76 422.3C982.426 427.936 975.206 433.615 968.179 439.421C975.475 437.726 982.81 436.073 990.182 434.462C997.325 429.207 1004.62 424.037 1012.07 418.952ZM1036.26 415.604C1028.81 416.578 1021.4 417.595 1014.07 418.655C1006.69 423.698 999.437 428.784 992.333 433.954C999.59 432.386 1006.92 430.818 1014.3 429.335C1021.48 424.715 1028.81 420.138 1036.26 415.604ZM1060.53 412.595C1053.12 413.485 1045.79 414.417 1038.49 415.349C1031.12 419.799 1023.86 424.291 1016.72 428.868C1023.94 427.385 1031.23 425.987 1038.6 424.588C1045.79 420.52 1053.08 416.494 1060.53 412.595ZM1084.84 409.84C1077.5 410.645 1070.25 411.45 1062.99 412.298C1055.65 416.155 1048.44 420.096 1041.33 424.079C1048.51 422.723 1055.73 421.41 1063.03 420.138C1070.21 416.621 1077.47 413.188 1084.84 409.84ZM1109.15 407.382C1101.93 408.06 1094.78 408.781 1087.64 409.543C1080.38 412.807 1073.28 416.155 1066.21 419.545C1073.28 418.316 1080.42 417.129 1087.6 415.985C1094.71 413.061 1101.85 410.179 1109.15 407.382ZM1133.26 405.221C1126.23 405.814 1119.28 406.407 1112.33 407.085C1105.27 409.798 1098.28 412.552 1091.4 415.392C1098.28 414.29 1105.23 413.23 1112.22 412.213C1119.17 409.798 1126.2 407.509 1133.26 405.221ZM1156.99 403.398C1150.31 403.865 1143.71 404.373 1137.1 404.924C1130.3 407.085 1123.58 409.289 1116.94 411.493C1123.55 410.56 1130.23 409.628 1136.91 408.738C1143.51 406.916 1150.2 405.136 1156.99 403.398ZM1180.68 401.83C1174.43 402.212 1168.24 402.636 1162.06 403.059C1155.88 404.627 1149.77 406.238 1143.74 407.848C1149.77 407.085 1155.88 406.365 1161.98 405.644C1168.13 404.331 1174.39 403.059 1180.68 401.83ZM1202.46 400.644C1197.27 400.898 1192.17 401.195 1187.06 401.491C1181.95 402.466 1176.88 403.441 1171.89 404.458C1176.96 403.907 1182.07 403.356 1187.17 402.847C1192.2 402.085 1197.31 401.364 1202.46 400.644ZM1216.67 400.05C1215.21 400.093 1213.71 400.178 1212.25 400.22C1210.48 400.432 1208.76 400.686 1206.99 400.94C1210.21 400.644 1213.44 400.305 1216.67 400.05ZM639.744 1073.16C640.166 1089.69 640.819 1106.09 641.626 1122.41C643.392 1112.53 645.197 1102.45 647.002 1092.23C646.694 1076.47 646.618 1060.53 646.694 1044.51C644.352 1054.22 642.048 1063.8 639.744 1073.16ZM639.053 1020.44C639.053 1037.05 639.245 1053.58 639.667 1070.07C641.971 1060.58 644.314 1050.91 646.694 1041.08C646.771 1025.32 647.002 1009.47 647.462 993.573C644.659 1002.64 641.856 1011.63 639.053 1020.44ZM639.744 968.315C639.283 984.843 639.053 1001.37 639.053 1017.77C641.818 1008.96 644.621 1000.06 647.424 990.988L647.578 990.48C648.077 974.63 648.806 958.695 649.766 942.761L649.421 943.693C646.157 951.999 642.97 960.221 639.744 968.315ZM642.048 916.74C641.088 933.183 640.358 949.584 639.859 965.942C642.778 958.526 645.734 950.982 648.691 943.396L649.92 940.218C650.88 924.538 651.994 908.815 653.414 893.092L651.034 898.05C648 904.28 645.005 910.552 642.048 916.74ZM645.773 866.139C644.275 882.285 643.123 898.474 642.125 914.621C644.851 908.984 647.578 903.348 650.304 897.627L653.606 890.719C655.027 875.166 656.717 859.57 658.675 843.974C656.678 847.407 654.682 850.797 652.723 854.188L645.773 866.139ZM651.341 816.301C649.306 832.235 647.501 848.212 646.003 864.147L652.109 853.679L658.982 841.855C660.902 826.641 662.976 811.385 665.395 796.213C661.632 801.595 657.869 806.935 654.182 812.232L651.341 816.301ZM658.368 767.946C655.795 783.457 653.568 799.01 651.571 814.563L653.568 811.724C657.6 805.96 661.67 800.154 665.741 794.348C668.16 779.346 670.925 764.343 673.92 749.426C668.659 755.613 663.475 761.801 658.368 767.946ZM667.2 720.693C664.051 735.865 661.133 751.079 658.598 766.335C663.782 760.148 668.966 753.961 674.227 747.688C677.146 733.152 680.294 718.616 683.789 704.165C678.221 709.716 672.691 715.226 667.2 720.693ZM677.722 675.008C674.035 689.671 670.656 704.419 667.546 719.209C673.037 713.742 678.566 708.233 684.173 702.681C687.629 688.527 691.354 674.414 695.347 660.429C689.434 665.26 683.52 670.134 677.722 675.008ZM689.702 631.018C685.517 645.13 681.677 659.327 678.067 673.609C683.942 668.736 689.856 663.82 695.808 658.946C699.763 645.257 704.026 631.654 708.557 618.135C702.221 622.415 695.923 626.695 689.702 631.018ZM703.373 588.596C698.611 602.2 694.195 615.931 690.048 629.704C696.307 625.382 702.605 621.059 708.979 616.779C713.395 603.641 718.08 590.588 723.072 577.62C716.467 581.265 709.901 584.909 703.373 588.596ZM718.694 547.954C713.434 561.007 708.48 574.102 703.834 587.367C710.362 583.723 716.928 580.036 723.533 576.391C728.41 563.804 733.478 551.26 738.931 538.885C732.134 541.894 725.376 544.903 718.694 547.954ZM735.322 509.177C729.638 521.594 724.224 534.139 719.155 546.768C725.875 543.716 732.672 540.708 739.507 537.699C744.845 525.62 750.528 513.669 756.48 501.846C749.376 504.261 742.349 506.719 735.322 509.177ZM753.293 472.265C747.149 484.089 741.35 495.997 735.821 508.075C742.848 505.617 749.914 503.159 757.018 500.701C762.816 489.217 768.845 477.859 775.181 466.628C767.846 468.493 760.55 470.358 753.293 472.265ZM37.5168 989.844C30.144 980.097 22.7328 970.265 15.2064 960.263C10.6368 957 6.0288 953.737 1.3824 950.389C8.7552 959.924 16.0128 969.333 23.1936 978.656C27.9936 982.428 32.832 986.242 37.5168 989.844ZM61.3248 1021.33C54.0672 1011.75 46.7712 1002.09 39.36 992.26C34.7136 988.657 29.952 984.97 25.2288 981.241C32.5248 990.649 39.7056 999.93 46.8096 1009.17C51.648 1013.28 56.5248 1017.35 61.3248 1021.33ZM84.9024 1052.48C77.7984 1043.11 70.656 1033.66 63.3984 1024.09C58.6752 1020.19 53.8752 1016.12 49.0752 1012.09C56.256 1021.33 63.3216 1030.49 70.3488 1039.56C75.264 1043.96 80.064 1048.2 84.9024 1052.48ZM108.442 1083.54C101.453 1074.35 94.4256 1065.07 87.2832 1055.66C82.56 1051.46 77.7984 1047.31 72.96 1042.99C79.9104 1051.97 86.8224 1060.87 93.6192 1069.6C98.6496 1074.31 103.565 1078.97 108.442 1083.54ZM131.712 1114.19C124.954 1105.29 118.08 1096.26 111.168 1087.15C106.445 1082.7 101.645 1078.21 96.8064 1073.63C103.642 1082.4 110.4 1091.13 117.082 1099.69C121.997 1104.61 126.874 1109.4 131.712 1114.19ZM154.829 1144.57C148.262 1135.97 141.658 1127.28 134.976 1118.47C130.291 1113.85 125.568 1109.18 120.806 1104.44C127.334 1112.83 133.824 1121.14 140.237 1129.31C145.114 1134.48 150.029 1139.61 154.829 1144.57ZM0.0384 663.904C181.824 646.783 340.646 596.775 506.304 544.649C585.754 519.645 666.778 494.133 752.64 471.544C903.514 180.822 1234.71 -33.7449 1920.04 4.39658V5.28655C1235.87 -32.7701 904.819 181.161 753.83 471.248C761.126 469.341 768.422 467.434 775.757 465.569C930.739 190.696 1257.72 -10.3938 1920.04 28.4257V29.3157C1258.91 -9.41909 932.122 191.035 777.024 465.23C784.282 463.408 791.578 461.585 798.874 459.763C957.811 200.528 1280.49 12.8301 1920.04 52.37V53.26C1281.52 13.7624 959.04 200.91 800.064 459.509C807.437 457.686 814.848 455.949 822.298 454.169C984.96 210.487 1303.1 35.8845 1920.04 76.1872V77.0772C1304.14 36.8168 986.227 210.827 823.488 453.872C830.899 452.135 838.31 450.439 845.798 448.744C1012.03 220.489 1325.57 58.8965 1920.04 100.004V100.894C1326.64 59.9136 1013.38 220.87 847.104 448.49C854.515 446.837 861.965 445.184 869.491 443.574C1039.03 230.575 1347.84 81.7813 1920.04 123.652V124.542C1349.03 82.756 1040.49 230.914 870.874 443.277C878.246 441.709 885.658 440.184 893.107 438.658C1065.83 240.662 1369.77 104.454 1920.04 147.173V148.063C1371 105.471 1067.33 241.085 894.605 438.404C902.016 436.92 909.427 435.437 916.915 434.039C1092.52 250.833 1391.54 127.042 1920.04 170.566V171.456C1392.73 127.975 1094.02 251.214 918.374 433.7C925.862 432.259 933.389 430.903 940.992 429.504C1119.28 261.088 1413.16 149.419 1920.04 193.875V194.765C1414.39 150.436 1120.86 261.47 942.566 429.25C950.054 427.936 957.581 426.622 965.146 425.351C1145.89 271.344 1434.43 171.626 1920.04 216.971V217.861C1435.74 172.643 1147.55 271.768 966.835 425.097C974.323 423.868 981.811 422.639 989.376 421.452C1172.28 281.685 1455.48 193.62 1920.04 239.941V240.831C1456.86 194.68 1174.04 282.109 991.219 421.198C998.669 420.053 1006.16 418.952 1013.72 417.85C1198.5 292.025 1476.17 215.361 1920.04 262.656V263.546C1477.59 216.378 1200.42 292.449 1015.72 417.553C1023.17 416.494 1030.62 415.476 1038.14 414.502C1224.58 302.408 1496.56 236.932 1920.04 285.287V286.177C1498.14 238.034 1226.65 302.875 1040.37 414.247C1047.78 413.273 1055.23 412.383 1062.72 411.493C1250.46 312.791 1516.65 258.164 1920.04 307.536V308.426C1518.3 259.224 1252.72 313.257 1065.18 411.154C1072.55 410.306 1079.92 409.459 1087.37 408.696C1276.15 323.174 1536.38 279.142 1920.04 329.616V330.506C1538.19 280.244 1278.64 323.64 1090.21 408.357C1097.47 407.594 1104.81 406.873 1112.18 406.195C1301.57 333.515 1555.7 299.738 1920.04 351.399V352.289C1557.7 300.925 1304.41 334.066 1115.4 405.899C1122.55 405.263 1129.69 404.627 1136.91 404.034C1326.68 343.855 1574.59 319.996 1920.04 372.8V373.69C1576.86 321.182 1329.95 344.364 1140.71 403.695C1147.74 403.144 1154.8 402.636 1161.91 402.127C1351.64 354.069 1593.14 339.829 1920.04 393.863V394.753C1595.98 341.185 1355.9 354.704 1166.98 401.788C1173.58 401.364 1180.26 400.94 1186.94 400.559C1376.29 364.24 1611.23 359.197 1920.08 414.502V415.392C1614.76 360.722 1381.67 365.003 1193.51 400.178C1199.69 399.839 1205.95 399.542 1212.21 399.288C1400.72 374.326 1628.89 378.098 1920.08 434.717V435.607C1633.88 379.963 1408.55 375.343 1221.96 398.906C1227.07 398.694 1232.22 398.525 1237.4 398.355C1424.68 384.285 1645.98 396.491 1920.08 454.423V455.313C1656.31 399.627 1441.5 386.192 1258.83 397.804C1445.3 393.778 1660.72 413.866 1920.04 473.536V474.426C1650.7 412.468 1428.75 393.185 1237.4 399.288C1220.43 400.559 1203.72 402.042 1187.29 403.737C1170.32 406.28 1153.65 409.035 1137.29 412.001C1120.4 415.858 1103.92 420.011 1087.76 424.334C1071.24 429.631 1055.16 435.225 1039.41 440.989C1023.44 447.77 1007.88 454.805 992.755 462.051C976.973 470.612 961.651 479.385 946.867 488.454C931.699 498.794 917.107 509.389 902.976 520.196C888.384 532.528 874.368 545.157 860.966 557.956C847.488 572.111 834.662 586.477 822.374 601.013C809.549 617.668 797.453 634.493 785.971 651.445C774.758 669.668 764.275 687.976 754.368 706.369C744.115 727.389 734.63 748.494 725.798 769.556C717.389 791.975 709.67 814.351 702.566 836.6C695.501 861.731 689.203 886.735 683.482 911.4C678.259 937.929 673.728 964.162 669.734 989.886C666.202 1018.66 663.322 1046.97 660.864 1074.56C659.174 1104.06 658.022 1132.87 657.178 1160.84V1162.12H656.333L656.371 1160.84C656.371 1149.83 656.41 1138.68 656.525 1127.41C655.834 1136.69 655.142 1145.93 654.528 1155C654.566 1157.37 654.643 1159.74 654.72 1162.12H653.261L653.76 1155C653.414 1140.97 653.184 1126.81 653.069 1112.53C651.802 1122.83 650.573 1133.04 649.382 1143.05C649.651 1149.4 649.92 1155.8 650.189 1162.12H649.382C649.152 1157.45 648.96 1152.79 648.768 1148.09L647.078 1162.12H646.272C646.925 1156.56 647.616 1151.01 648.269 1145.33L648.538 1143.05C647.923 1127.62 647.424 1112.07 647.078 1096.39C645.274 1106.43 643.507 1116.35 641.779 1126.05C642.394 1138.13 643.085 1150.17 643.853 1162.12H643.046C642.355 1151.31 641.741 1140.42 641.165 1129.53C639.168 1140.63 637.133 1151.52 635.136 1162.12H634.33C636.557 1150.42 638.784 1138.38 641.011 1126.01C640.205 1109.57 639.475 1093 639.014 1076.34C631.526 1106.94 624.192 1135.71 616.474 1162.12H615.629C623.616 1134.82 631.181 1104.99 638.976 1073.25C638.554 1056.63 638.323 1039.89 638.285 1023.11C621.734 1075.58 605.952 1122.96 587.904 1162.12H587.021C605.414 1122.36 621.427 1074.05 638.285 1020.48C638.285 1003.96 638.438 987.386 638.899 970.731C607.949 1049.26 579.533 1116.85 542.4 1162.12H541.325C578.918 1116.56 607.603 1047.99 638.976 968.315C639.437 951.83 640.166 935.302 641.126 918.774C606.682 990.141 575.04 1052.99 536.986 1097.91C510.72 1128.89 481.421 1151.31 446.016 1162.12H442.944C479.462 1151.69 509.53 1128.98 536.371 1097.32C574.656 1052.14 606.451 988.7 641.203 916.697C642.163 900.508 643.277 884.277 644.736 868.046C510.835 1097.49 414.528 1243.91 17.4336 962.086C25.0368 972.13 32.5248 982.046 39.9744 991.921C170.304 1092.36 267.149 1145.04 342.451 1162.2H338.726C264.269 1144.27 168.998 1092.11 41.7792 994.336C49.3056 1004.3 56.7168 1014.09 64.0896 1023.83C138.202 1085.16 201.139 1130.54 255.168 1162.24H253.67C200.448 1130.67 138.662 1086.17 66.1248 1026.29C73.536 1036.08 80.832 1045.7 88.0512 1055.28C135.898 1097.49 178.982 1132.83 217.882 1161.99H216.614C178.675 1133.51 136.858 1099.23 90.4704 1058.41C97.728 1067.99 104.909 1077.44 112.013 1086.81C141.658 1114.52 169.421 1139.53 195.456 1161.99H194.304C169.382 1140.46 142.925 1116.64 114.739 1090.37C121.882 1099.78 128.947 1109.06 135.936 1118.25C151.488 1133.59 166.502 1148.13 181.018 1161.99H179.904C166.733 1149.44 153.178 1136.31 139.162 1122.58C146.074 1131.69 152.909 1140.63 159.667 1149.53C163.738 1153.73 167.77 1157.88 171.763 1161.99H170.726C168.307 1159.49 165.888 1157.03 163.469 1154.53L169.152 1161.99H168.115L158.669 1149.61C154.099 1144.91 149.491 1140.08 144.845 1135.25C151.066 1143.22 157.248 1151.1 163.315 1158.85L166.195 1161.99H164.736L162.24 1158.77C158.554 1154.74 154.906 1150.76 151.142 1146.65C155.29 1151.82 159.398 1156.9 163.507 1161.95H161.587C155.789 1155.04 149.952 1148.05 144.038 1140.97C130.291 1125.12 116.122 1108.72 101.568 1091.77C88.0128 1076.64 74.112 1061 59.8656 1044.89C46.5408 1030.49 32.9856 1015.74 19.008 1000.44C12.7488 993.87 6.4128 987.259 0.0384 980.521V978.317C3.648 981.919 7.2192 985.479 10.7904 989.039C7.2192 984.97 3.648 980.86 0.0384 976.706V974.969C3.7632 978.444 7.4496 981.919 11.0976 985.31C7.4112 980.944 3.7248 976.579 0.0384 972.172V970.943C5.3376 977.257 10.5984 983.487 15.8208 989.717C20.5824 994.167 25.3824 998.617 30.0672 1002.94C23.808 995.269 17.472 987.556 11.0976 979.715C7.4112 976.537 3.7248 973.359 0 970.095V968.993C2.7264 971.367 5.4144 973.74 8.1408 976.071C5.4528 972.765 2.7264 969.417 0 966.069V964.798C3.9168 969.629 7.7952 974.376 11.6736 979.122C16.512 983.318 21.3504 987.471 26.112 991.539C19.392 983.063 12.5568 974.418 5.6832 965.773L0.0384 961.323V960.263L3.456 963.018L0.0384 958.695V957.382L6.2592 965.264C11.0592 969.121 15.8592 972.892 20.5824 976.622C13.7856 967.849 6.9504 958.992 0.0384 950.007V948.397C4.5696 951.703 9.024 954.839 13.4784 958.017L0.0384 940.218V938.862L15.744 959.628C414.835 1243.61 510.682 1096.17 644.966 865.927C646.464 849.865 648.269 833.803 650.304 817.784C498.163 1035.02 389.069 1183.69 0.0384 934.073V933.056C389.53 1183.09 498.163 1033.66 650.496 816.046C652.493 800.408 654.72 784.77 657.293 769.217L654.758 772.268C487.949 971.494 365.722 1117.15 0.0384 915.087V914.07C365.491 1116.09 487.565 970.604 654.182 771.633L657.562 767.607C660.096 752.308 662.976 737.009 666.086 721.795C661.978 725.905 657.869 730.016 653.798 734.085C476.16 911.781 339.84 1047.86 0.0384 892.075V891.1C339.648 1046.84 475.814 910.934 653.261 733.449C657.6 729.084 662.016 724.719 666.394 720.311C669.466 705.436 672.883 690.646 676.57 675.94C667.699 683.314 658.944 690.646 650.304 697.893C463.987 853.722 314.726 978.444 0.0384 864.952V864.02C314.573 977.512 463.68 852.916 649.805 697.215C658.752 689.756 667.776 682.17 676.915 674.584C680.525 660.26 684.365 645.978 688.55 631.823C673.075 642.503 657.83 653.098 642.816 663.565C450.662 797.484 290.227 909.239 0.0384 833.422V832.49C290.074 908.306 450.394 796.637 642.355 662.802C657.638 652.165 673.114 641.359 688.896 630.509C693.005 616.694 697.421 602.92 702.182 589.274C677.299 603.259 653.069 617.287 629.184 631.06C434.726 743.366 265.882 840.796 0.0384 797.484V796.594C265.766 839.906 434.458 742.56 628.8 630.298C652.915 616.355 677.453 602.2 702.605 588.045C707.251 574.738 712.205 561.558 717.466 548.505C679.296 565.754 642.355 583.299 606.106 600.505C413.952 691.748 240.922 773.794 0.0384 757.224V756.334C240.845 772.904 413.76 690.858 605.798 599.7C642.278 582.366 679.488 564.737 717.926 547.361C723.034 534.69 728.41 522.103 734.131 509.643C676.838 529.858 622.003 551.048 568.282 571.856C384.73 642.927 213.888 709.038 0.0384 712.895V712.005C213.773 708.148 384.576 642.079 568.013 571.009C621.965 550.116 677.03 528.799 734.63 508.499C740.16 496.421 745.997 484.428 752.102 472.604C666.509 495.15 585.715 520.577 506.496 545.496C340.8 597.665 181.901 647.673 0.0384 664.794V663.904Z" fill="#00160A"/>
</svg>
