<?xml version="1.0" encoding="UTF-8" standalone="no"?>
<!-- Created with Inkscape (http://www.inkscape.org/) -->

<svg
   width="320"
   height="132"
   viewBox="0 0 84.666665 34.925"
   version="1.1"
   id="svg1"
   inkscape:version="1.3.2 (091e20e, 2023-11-25, custom)"
   sodipodi:docname="logo_v1_black.svg"
   inkscape:export-filename="logo_google_workspace.png"
   inkscape:export-xdpi="96"
   inkscape:export-ydpi="96"
   xmlns:inkscape="http://www.inkscape.org/namespaces/inkscape"
   xmlns:sodipodi="http://sodipodi.sourceforge.net/DTD/sodipodi-0.dtd"
   xmlns="http://www.w3.org/2000/svg"
   xmlns:svg="http://www.w3.org/2000/svg">
  <sodipodi:namedview
     id="namedview1"
     pagecolor="#505050"
     bordercolor="#ffffff"
     borderopacity="1"
     inkscape:showpageshadow="0"
     inkscape:pageopacity="0"
     inkscape:pagecheckerboard="1"
     inkscape:deskcolor="#d1d1d1"
     inkscape:document-units="mm"
     inkscape:zoom="2.8970538"
     inkscape:cx="155.84799"
     inkscape:cy="104.7616"
     inkscape:window-width="1920"
     inkscape:window-height="1009"
     inkscape:window-x="-8"
     inkscape:window-y="-8"
     inkscape:window-maximized="1"
     inkscape:current-layer="layer1" />
  <defs
     id="defs1" />
  <g
     inkscape:label="Camada 1"
     inkscape:groupmode="layer"
     id="layer1">
    <rect
       style="display:none;fill:#1a1a1a;fill-opacity:1;fill-rule:evenodd;stroke-width:1.76041;stroke-linecap:round;stroke-dasharray:14.0833, 1.76041"
       id="rect1"
       width="84.666672"
       height="34.924999"
       x="0"
       y="0" />
    <g
       id="g1"
       style="fill:#ffffff"
       transform="matrix(0.53619112,0,0,0.53619112,-18.375051,-64.90538)">
      <path
         id="path282154"
         style="font-style:normal;font-weight:300;font-size:72px;line-height:1;font-family:'Montserrat Light Alt1';font-variant-ligatures:none;text-align:center;text-anchor:middle;fill:#000000"
         d="m 51.07252,149.81237 v 5.73882 c -1.262063,1.02393 -2.833688,1.524 -4.738688,1.524 -1.42875,0 -2.714625,-0.30957 -3.857625,-0.9525 -1.143,-0.64294 -2.047875,-1.524 -2.714625,-2.64319 -0.666749,-1.11919 -0.976312,-2.35744 -0.976312,-3.73856 0,-1.38113 0.309563,-2.61938 0.976312,-3.73857 0.642938,-1.11918 1.547813,-2.00025 2.690813,-2.64318 1.143,-0.61913 2.452687,-0.9525 3.881437,-0.9525 1.04775,0 2.00025,0.16668 2.8575,0.47625 0.85725,0.30956 1.643063,0.80962 2.357438,1.50018 l 0.762,-0.80962 c -0.738188,-0.73819 -1.61925,-1.30969 -2.643188,-1.69069 -1.023937,-0.381 -2.143125,-0.59531 -3.357562,-0.59531 -1.666875,0 -3.167063,0.381 -4.500563,1.09537 -1.3335,0.73819 -2.357437,1.73832 -3.119437,3.02419 -0.762,1.28588 -1.119187,2.73844 -1.119187,4.33388 0,1.61925 0.357187,3.048 1.119187,4.33387 0.762,1.28588 1.785937,2.30981 3.119437,3.02419 1.3335,0.73819 2.809875,1.09537 4.47675,1.09537 1.143,0 2.238375,-0.16668 3.286125,-0.54768 1.04775,-0.35719 1.928813,-0.88107 2.667,-1.59544 v -6.23888 z"
         stroke-width="0px"
         stroke-linejoin="miter"
         stroke-miterlimit="2"
         fill="#31e50f"
         stroke="#31e50f" />
      <path
         id="path282158"
         style="font-style:normal;font-weight:300;font-size:72px;line-height:1;font-family:'Montserrat Light Alt1';font-variant-ligatures:none;text-align:center;text-anchor:middle;fill:#000000"
         d="m 93.214278,141.40656 h -1.262063 l -6.738937,15.09713 -6.738937,-15.09713 h -1.3335 l 7.429499,16.66875 h 1.214438 z"
         stroke-width="0px"
         stroke-linejoin="miter"
         stroke-miterlimit="2"
         fill="#31e50f"
         stroke="#31e50f" />
      <path
         id="path282160"
         style="font-style:normal;font-weight:300;font-size:72px;line-height:1;font-family:'Montserrat Light Alt1';font-variant-ligatures:none;text-align:center;text-anchor:middle;fill:#000000"
         d="M 108.34282,149.07419 H 97.55576 v 1.07156 h 10.78706 z m 0,-7.66763 H 97.55576 v 1.09538 h 10.78706 z m -10.78706,15.57338 v 1.09537 h 10.78706 v -1.09537 z"
         stroke-width="0px"
         stroke-linejoin="miter"
         stroke-miterlimit="2"
         fill="#31e50f"
         stroke="#31e50f" />
      <path
         id="path282162"
         style="font-style:normal;font-weight:300;font-size:72px;line-height:1;font-family:'Montserrat Light Alt1';font-variant-ligatures:none;text-align:center;text-anchor:middle;fill:#000000"
         d="m 123.94873,152.24125 c 1.23825,-0.35719 2.21456,-0.97631 2.88131,-1.88119 0.66675,-0.90487 1.02394,-2.00025 1.02394,-3.33375 0,-1.73831 -0.59531,-3.11944 -1.78594,-4.11956 -1.19062,-1.00013 -2.83369,-1.50019 -4.92919,-1.50019 h -5.97693 v 1.09538 h 5.97693 c 1.76213,0 3.11944,0.40481 4.07194,1.19062 0.92869,0.78581 1.40494,1.905 1.40494,3.33375 0,1.45256 -0.47625,2.57175 -1.40494,3.35756 -0.9525,0.78582 -2.30981,1.16682 -4.07194,1.16682 h -5.97693 v 6.52462 h 1.21443 v -5.45306 h 4.7625 c 0.47625,0 1.02394,-0.0238 1.61925,-0.11906 l 3.97669,5.57212 h 1.38113 z"
         stroke-width="0px"
         stroke-linejoin="miter"
         stroke-miterlimit="2"
         fill="#31e50f"
         stroke="#31e50f" />
      <path
         id="path282164"
         style="font-style:normal;font-weight:300;font-size:72px;line-height:1;font-family:'Montserrat Light Alt1';font-variant-ligatures:none;text-align:center;text-anchor:middle;fill:#000000"
         d="M 147.55043,141.40656 H 146.336 v 14.478 l -11.33475,-14.478 h -1.02394 v 16.66875 h 1.21444 v -14.478 l 11.35856,14.478 h 1.00012 z"
         stroke-width="0px"
         stroke-linejoin="miter"
         stroke-miterlimit="2"
         fill="#31e50f"
         stroke="#31e50f" />
      <path
         id="path282166"
         style="font-style:normal;font-weight:300;font-size:72px;line-height:1;font-family:'Montserrat Light Alt1';font-variant-ligatures:none;text-align:center;text-anchor:middle;fill:#000000"
         d="m 157.6683,157.099 c 1.30969,0.73819 2.78607,1.09537 4.42913,1.09537 1.61925,0 3.09562,-0.35718 4.42912,-1.09537 1.30969,-0.71438 2.33363,-1.73831 3.09563,-3.02419 0.762,-1.28587 1.143,-2.71462 1.143,-4.33387 0,-1.59544 -0.381,-3.048 -1.143,-4.33388 -0.762,-1.28587 -1.78594,-2.286 -3.09563,-3.02419 -1.3335,-0.71437 -2.80987,-1.09537 -4.42912,-1.09537 -1.64306,0 -3.11944,0.381 -4.42913,1.11919 -1.3335,0.73818 -2.35743,1.73831 -3.11943,3.02418 -0.762,1.28588 -1.11919,2.73844 -1.11919,4.31007 0,1.59543 0.35719,3.02418 1.11919,4.31006 0.762,1.28587 1.78593,2.30981 3.11943,3.048 z m 8.21532,-0.97631 c -1.143,0.64293 -2.40507,0.9525 -3.78619,0.9525 -1.40494,0 -2.667,-0.30957 -3.81,-0.9525 -1.143,-0.61913 -2.02406,-1.50019 -2.667,-2.61938 -0.66675,-1.11919 -0.97631,-2.38125 -0.97631,-3.76237 0,-1.38113 0.30956,-2.61938 0.97631,-3.73857 0.64294,-1.11918 1.524,-2.00025 2.667,-2.64318 1.143,-0.61913 2.40506,-0.9525 3.81,-0.9525 1.38112,0 2.64319,0.33337 3.78619,0.9525 1.11918,0.64293 2.00025,1.524 2.667,2.64318 0.64293,1.11919 0.97631,2.35744 0.97631,3.73857 0,1.38112 -0.33338,2.64318 -0.97631,3.76237 -0.66675,1.11919 -1.54782,2.00025 -2.667,2.61938 z"
         stroke-width="0px"
         stroke-linejoin="miter"
         stroke-miterlimit="2"
         fill="#31e50f"
         stroke="#31e50f" />
      <path
         id="path282168"
         style="font-style:normal;font-weight:300;font-size:72px;line-height:1;font-family:'Montserrat Light Alt1';font-variant-ligatures:none;text-align:center;text-anchor:middle;fill:#000000"
         d="m 185.41785,152.24125 c 1.23825,-0.35719 2.21456,-0.97631 2.88131,-1.88119 0.66675,-0.90487 1.02394,-2.00025 1.02394,-3.33375 0,-1.73831 -0.59532,-3.11944 -1.78594,-4.11956 -1.19063,-1.00013 -2.83369,-1.50019 -4.92919,-1.50019 h -5.97694 v 1.09538 h 5.97694 c 1.76213,0 3.11944,0.40481 4.07194,1.19062 0.92869,0.78581 1.40494,1.905 1.40494,3.33375 0,1.45256 -0.47625,2.57175 -1.40494,3.35756 -0.9525,0.78582 -2.30981,1.16682 -4.07194,1.16682 h -5.97694 v 6.52462 h 1.21444 v -5.45306 h 4.7625 c 0.47625,0 1.02394,-0.0238 1.61925,-0.11906 l 3.97669,5.57212 h 1.38112 z"
         stroke-width="0px"
         stroke-linejoin="miter"
         stroke-miterlimit="2"
         fill="#31e50f"
         stroke="#31e50f" />
      <g
         id="g3"
         transform="matrix(-0.15309156,0.18975674,-0.18814042,-0.15178755,95.998181,146.80639)"
         style="fill:#ffffff">
        <circle
           style="fill:none;fill-opacity:1;fill-rule:evenodd;stroke:#31e50f;stroke-width:2.64583;stroke-linecap:round;stroke-dasharray:none;stroke-dashoffset:0;stroke-opacity:1"
           id="path2"
           cx="87.675278"
           cy="88.77121"
           r="33.334671" />
        <circle
           style="fill:none;fill-opacity:1;fill-rule:evenodd;stroke:#31e50f;stroke-width:2.64583;stroke-linecap:round;stroke-dasharray:none;stroke-dashoffset:0;stroke-opacity:1"
           id="path2-7"
           cx="87.586288"
           cy="96.942116"
           r="25.428864" />
        <circle
           style="fill:none;fill-opacity:1;fill-rule:evenodd;stroke:#31e50f;stroke-width:2.67229;stroke-linecap:round;stroke-dasharray:none;stroke-dashoffset:0;stroke-opacity:1"
           id="path2-7-5"
           cx="87.926941"
           cy="104.6535"
           r="17.615776" />
        <circle
           style="fill:#31e50f;fill-opacity:1;fill-rule:evenodd;stroke:#31e50f;stroke-width:1.59057;stroke-linecap:round;stroke-dasharray:none;stroke-dashoffset:0;stroke-opacity:1"
           id="path2-7-5-1"
           cx="87.945053"
           cy="111.12366"
           r="10.48505" />
      </g>
    </g>
    <g
       id="slogan"
       style="font-style:oblique;font-weight:700;font-size:32px;line-height:1;font-family:Lato;font-variant-ligatures:none;text-align:center;text-anchor:middle;fill:#000000"
       fill="#ffffff"
       transform="matrix(0.14740515,0,0,0.14740515,-33.093123,-39.615702)">
      <path
         id="path282113"
         style="font-style:oblique;font-weight:700;font-size:32px;line-height:1;font-family:Lato;font-variant-ligatures:none;text-align:center;text-anchor:middle;fill:#000000"
         d="m 372.507,-8.704 -1.568,-7.92 q -0.096,-0.544 -0.224,-1.264 -0.128,-0.72 -0.256,-1.568 -0.32,0.848 -0.624,1.568 -0.304,0.72 -0.544,1.28 l -3.504,7.904 z M 378.539,0 h -3.216 q -0.544,0 -0.848,-0.256 -0.288,-0.272 -0.416,-0.688 l -0.96,-4.832 h -8.624 l -2.144,4.832 q -0.176,0.368 -0.576,0.656 Q 361.371,0 360.859,0 h -3.264 l 11.184,-23.136 h 4.24 z"
         stroke-width="0px"
         stroke-linejoin="miter"
         stroke-miterlimit="2"
         fill="#31e50f"
         stroke="#31e50f"
         transform="matrix(0.75,0,0,0.75,113.94425,435.912)" />
      <path
         id="path282115"
         style="font-style:oblique;font-weight:700;font-size:32px;line-height:1;font-family:Lato;font-variant-ligatures:none;text-align:center;text-anchor:middle;fill:#000000"
         d="m 380.3755,0 2.88,-23.776 h 3.904 L 384.2635,0 Z"
         stroke-width="0px"
         stroke-linejoin="miter"
         stroke-miterlimit="2"
         fill="#31e50f"
         stroke="#31e50f"
         transform="matrix(0.75,0,0,0.75,115.44425,435.912)" />
      <path
         id="path282117"
         style="font-style:oblique;font-weight:700;font-size:32px;line-height:1;font-family:Lato;font-variant-ligatures:none;text-align:center;text-anchor:middle;fill:#000000"
         d="m 388.0005,0 2.88,-23.776 h 3.904 L 391.8885,0 Z"
         stroke-width="0px"
         stroke-linejoin="miter"
         stroke-miterlimit="2"
         fill="#31e50f"
         stroke="#31e50f"
         transform="matrix(0.75,0,0,0.75,116.94425,435.912)" />
      <path
         id="path282119"
         style="font-style:oblique;font-weight:700;font-size:32px;line-height:1;font-family:Lato;font-variant-ligatures:none;text-align:center;text-anchor:middle;fill:#000000"
         d="M 408.5935,-16.416 406.6255,0 h -3.888 l 1.968,-16.416 z m 1.008,-4.784 q 0,0.512 -0.224,0.96 -0.208,0.448 -0.56,0.784 -0.352,0.336 -0.8,0.544 -0.448,0.192 -0.928,0.192 -0.464,0 -0.896,-0.192 -0.432,-0.208 -0.768,-0.544 -0.336,-0.336 -0.544,-0.784 -0.192,-0.448 -0.192,-0.96 0,-0.512 0.208,-0.976 0.208,-0.464 0.544,-0.8 0.336,-0.352 0.768,-0.544 0.448,-0.208 0.912,-0.208 0.48,0 0.928,0.208 0.448,0.192 0.784,0.528 0.352,0.336 0.56,0.8 0.208,0.464 0.208,0.992 z"
         stroke-width="0px"
         stroke-linejoin="miter"
         stroke-miterlimit="2"
         fill="#31e50f"
         stroke="#31e50f"
         transform="matrix(0.75,0,0,0.75,118.44425,435.912)" />
      <path
         id="path282121"
         style="font-style:oblique;font-weight:700;font-size:32px;line-height:1;font-family:Lato;font-variant-ligatures:none;text-align:center;text-anchor:middle;fill:#000000"
         d="m 421.334,-13.328 q -0.176,0.256 -0.336,0.368 -0.16,0.096 -0.416,0.096 -0.288,0 -0.576,-0.16 -0.288,-0.16 -0.672,-0.352 -0.368,-0.208 -0.864,-0.368 -0.48,-0.16 -1.152,-0.16 -1.264,0 -1.936,0.576 -0.672,0.56 -0.672,1.408 0,0.656 0.464,1.056 0.48,0.4 1.2,0.704 0.72,0.304 1.536,0.624 0.832,0.304 1.552,0.784 0.72,0.464 1.184,1.216 0.48,0.736 0.48,1.904 0,1.184 -0.48,2.256 -0.464,1.072 -1.344,1.888 -0.88,0.8 -2.128,1.28 -1.232,0.464 -2.784,0.464 -0.768,0 -1.504,-0.16 -0.736,-0.144 -1.376,-0.416 -0.624,-0.272 -1.152,-0.64 -0.528,-0.368 -0.896,-0.8 l 0.976,-1.504 q 0.176,-0.272 0.416,-0.416 0.24,-0.144 0.592,-0.144 0.336,0 0.608,0.208 0.272,0.208 0.624,0.464 0.368,0.24 0.88,0.448 0.528,0.208 1.344,0.208 0.656,0 1.152,-0.176 0.512,-0.176 0.864,-0.48 0.352,-0.304 0.528,-0.704 0.176,-0.4 0.176,-0.848 0,-0.544 -0.272,-0.896 -0.272,-0.368 -0.736,-0.624 -0.448,-0.272 -1.024,-0.464 -0.576,-0.208 -1.184,-0.432 -0.592,-0.224 -1.168,-0.512 -0.56,-0.288 -1.024,-0.72 -0.448,-0.448 -0.72,-1.072 -0.272,-0.64 -0.272,-1.552 0,-1.088 0.416,-2.112 0.416,-1.04 1.216,-1.824 0.8,-0.8 1.968,-1.28 1.184,-0.48 2.704,-0.48 1.568,0 2.784,0.544 1.216,0.528 2.032,1.36 z"
         stroke-width="0px"
         stroke-linejoin="miter"
         stroke-miterlimit="2"
         fill="#31e50f"
         stroke="#31e50f"
         transform="matrix(0.75,0,0,0.75,119.94425,435.912)" />
      <path
         id="path282123"
         style="font-style:oblique;font-weight:700;font-size:32px;line-height:1;font-family:Lato;font-variant-ligatures:none;text-align:center;text-anchor:middle;fill:#000000"
         d="m 441.27,-13.824 q -0.224,-0.016 -0.432,-0.016 -0.192,-0.016 -0.384,-0.016 -1.328,0 -2.464,0.608 -1.136,0.608 -1.968,1.648 -0.816,1.024 -1.296,2.4 -0.464,1.36 -0.464,2.88 0,1.728 0.544,2.528 0.544,0.8 1.488,0.8 0.656,0 1.28,-0.448 0.64,-0.464 1.2,-1.248 0.576,-0.8 1.04,-1.872 0.48,-1.072 0.832,-2.304 z m -1.088,10.4 q -1.088,1.68 -2.464,2.672 -1.36,0.992 -2.976,0.992 -0.928,0 -1.744,-0.368 -0.8,-0.368 -1.408,-1.088 -0.592,-0.736 -0.944,-1.824 -0.336,-1.104 -0.336,-2.576 0,-1.472 0.368,-2.864 0.368,-1.392 1.04,-2.608 0.688,-1.232 1.648,-2.256 0.96,-1.024 2.144,-1.76 1.2,-0.736 2.576,-1.136 1.392,-0.416 2.928,-0.416 1.104,0 2.208,0.16 1.12,0.16 2.176,0.576 L 443.43,0 h -2.096 q -0.752,0 -1.024,-0.368 -0.256,-0.384 -0.256,-0.944 z"
         stroke-width="0px"
         stroke-linejoin="miter"
         stroke-miterlimit="2"
         fill="#31e50f"
         stroke="#31e50f"
         transform="matrix(0.75,0,0,0.75,121.44425,435.912)" />
      <path
         id="path282125"
         style="font-style:oblique;font-weight:700;font-size:32px;line-height:1;font-family:Lato;font-variant-ligatures:none;text-align:center;text-anchor:middle;fill:#000000"
         d="m 451.3815,-3.84 q 0.544,0.592 1.248,0.832 0.704,0.24 1.392,0.24 1.056,0 1.92,-0.656 0.864,-0.656 1.472,-1.712 0.624,-1.056 0.96,-2.368 0.336,-1.328 0.336,-2.656 0,-1.728 -0.56,-2.56 -0.56,-0.848 -1.568,-0.848 -0.656,0 -1.328,0.448 -0.672,0.432 -1.296,1.216 -0.624,0.768 -1.168,1.824 -0.528,1.056 -0.912,2.272 z m 1.152,-9.328 q 1.152,-1.616 2.56,-2.56 1.424,-0.944 3.024,-0.944 1.024,0 1.856,0.384 0.832,0.368 1.424,1.12 0.592,0.752 0.912,1.904 0.32,1.152 0.32,2.704 0,1.392 -0.288,2.736 -0.288,1.344 -0.816,2.544 -0.512,1.2 -1.248,2.208 -0.736,1.008 -1.632,1.744 -0.88,0.736 -1.904,1.152 -1.008,0.416 -2.096,0.416 -1.248,0 -2.24,-0.496 -0.992,-0.512 -1.664,-1.376 l -0.128,0.544 q -0.176,0.56 -0.464,0.832 Q 449.8615,0 449.2215,0 h -2.144 l 2.88,-23.776 h 3.872 z"
         stroke-width="0px"
         stroke-linejoin="miter"
         stroke-miterlimit="2"
         fill="#31e50f"
         stroke="#31e50f"
         transform="matrix(0.75,0,0,0.75,122.94425,435.912)" />
      <path
         id="path282127"
         style="font-style:oblique;font-weight:700;font-size:32px;line-height:1;font-family:Lato;font-variant-ligatures:none;text-align:center;text-anchor:middle;fill:#000000"
         d="m 471.0795,-2.8 q 0.992,0 1.792,-0.56 0.8,-0.576 1.36,-1.52 0.56,-0.96 0.864,-2.224 0.304,-1.264 0.304,-2.656 0,-2 -0.672,-2.928 -0.672,-0.944 -2.048,-0.944 -0.992,0 -1.808,0.56 -0.8,0.56 -1.36,1.52 -0.56,0.944 -0.864,2.208 -0.304,1.264 -0.304,2.672 0,2 0.672,2.944 0.672,0.928 2.064,0.928 z m -0.368,3.04 q -1.36,0 -2.512,-0.448 -1.152,-0.464 -2,-1.344 -0.848,-0.88 -1.328,-2.16 -0.48,-1.28 -0.48,-2.928 0,-2.128 0.688,-3.968 0.688,-1.84 1.856,-3.184 1.184,-1.344 2.752,-2.112 1.568,-0.768 3.344,-0.768 1.36,0 2.512,0.464 1.168,0.448 2,1.328 0.848,0.88 1.328,2.16 0.48,1.28 0.48,2.928 0,2.112 -0.688,3.952 -0.688,1.824 -1.872,3.184 -1.168,1.344 -2.736,2.128 -1.568,0.768 -3.344,0.768 z"
         stroke-width="0px"
         stroke-linejoin="miter"
         stroke-miterlimit="2"
         fill="#31e50f"
         stroke="#31e50f"
         transform="matrix(0.75,0,0,0.75,124.44425,435.912)" />
      <path
         id="path282129"
         style="font-style:oblique;font-weight:700;font-size:32px;line-height:1;font-family:Lato;font-variant-ligatures:none;text-align:center;text-anchor:middle;fill:#000000"
         d="M 496.7095,-16.416 494.7255,0 h -2 q -1.408,0 -1.408,-1.36 l 0.096,-1.888 q -1.248,1.76 -2.736,2.624 -1.472,0.864 -3.056,0.864 -1.024,0 -1.84,-0.416 -0.816,-0.416 -1.344,-1.2 -0.528,-0.8 -0.752,-1.968 -0.208,-1.168 -0.016,-2.656 l 1.232,-10.416 h 3.952 L 485.6215,-6 q -0.208,1.616 0.16,2.32 0.368,0.688 1.344,0.688 0.64,0 1.296,-0.352 0.672,-0.352 1.296,-1.008 0.624,-0.656 1.152,-1.568 0.528,-0.928 0.88,-2.064 l 1.008,-8.432 z"
         stroke-width="0px"
         stroke-linejoin="miter"
         stroke-miterlimit="2"
         fill="#31e50f"
         stroke="#31e50f"
         transform="matrix(0.75,0,0,0.75,125.94425,435.912)" />
      <path
         id="path282131"
         style="font-style:oblique;font-weight:700;font-size:32px;line-height:1;font-family:Lato;font-variant-ligatures:none;text-align:center;text-anchor:middle;fill:#000000"
         d="m 499.782,-3.344 q 0,-0.112 0,-0.256 0,-0.16 0.016,-0.448 0.032,-0.304 0.08,-0.784 0.064,-0.496 0.16,-1.264 l 0.912,-7.36 h -1.552 q -0.288,0 -0.48,-0.208 -0.176,-0.208 -0.112,-0.624 l 0.176,-1.568 2.496,-0.432 1.312,-4.48 q 0.112,-0.32 0.336,-0.496 0.224,-0.176 0.56,-0.176 h 2.112 l -0.64,5.168 h 3.968 l -0.336,2.816 h -3.984 l -0.88,7.152 q -0.08,0.656 -0.128,1.04 -0.048,0.384 -0.08,0.608 -0.016,0.208 -0.016,0.304 0,0.08 0,0.112 0,0.608 0.288,0.96 0.304,0.352 0.848,0.352 0.336,0 0.576,-0.08 0.24,-0.096 0.416,-0.192 0.176,-0.096 0.32,-0.176 0.144,-0.096 0.272,-0.096 0.176,0 0.272,0.096 0.096,0.08 0.176,0.256 l 0.848,1.92 q -0.88,0.72 -1.952,1.088 -1.056,0.368 -2.16,0.368 -1.744,0 -2.768,-0.944 -1.008,-0.944 -1.056,-2.656 z"
         stroke-width="0px"
         stroke-linejoin="miter"
         stroke-miterlimit="2"
         fill="#31e50f"
         stroke="#31e50f"
         transform="matrix(0.75,0,0,0.75,127.44425,435.912)" />
      <path
         id="path282133"
         style="font-style:oblique;font-weight:700;font-size:32px;line-height:1;font-family:Lato;font-variant-ligatures:none;text-align:center;text-anchor:middle;fill:#000000"
         d="m 518.3445,-3.344 q 0,-0.112 0,-0.256 0,-0.16 0.016,-0.448 0.032,-0.304 0.08,-0.784 0.064,-0.496 0.16,-1.264 l 0.912,-7.36 h -1.552 q -0.288,0 -0.48,-0.208 -0.176,-0.208 -0.112,-0.624 l 0.176,-1.568 2.496,-0.432 1.312,-4.48 q 0.112,-0.32 0.336,-0.496 0.224,-0.176 0.56,-0.176 h 2.112 l -0.64,5.168 h 3.968 l -0.336,2.816 h -3.984 l -0.88,7.152 q -0.08,0.656 -0.128,1.04 -0.048,0.384 -0.08,0.608 -0.016,0.208 -0.016,0.304 0,0.08 0,0.112 0,0.608 0.288,0.96 0.304,0.352 0.848,0.352 0.336,0 0.576,-0.08 0.24,-0.096 0.416,-0.192 0.176,-0.096 0.32,-0.176 0.144,-0.096 0.272,-0.096 0.176,0 0.272,0.096 0.096,0.08 0.176,0.256 l 0.848,1.92 q -0.88,0.72 -1.952,1.088 -1.056,0.368 -2.16,0.368 -1.744,0 -2.768,-0.944 -1.008,-0.944 -1.056,-2.656 z"
         stroke-width="0px"
         stroke-linejoin="miter"
         stroke-miterlimit="2"
         fill="#31e50f"
         stroke="#31e50f"
         transform="matrix(0.75,0,0,0.75,128.94425,435.912)" />
      <path
         id="path282135"
         style="font-style:oblique;font-weight:700;font-size:32px;line-height:1;font-family:Lato;font-variant-ligatures:none;text-align:center;text-anchor:middle;fill:#000000"
         d="m 536.8875,-13.888 q -0.8,0 -1.488,0.336 -0.688,0.32 -1.248,0.912 -0.544,0.592 -0.96,1.424 -0.4,0.816 -0.64,1.792 1.984,-0.272 3.184,-0.592 1.216,-0.336 1.872,-0.704 0.656,-0.384 0.864,-0.816 0.224,-0.448 0.224,-0.928 0,-0.24 -0.112,-0.496 -0.096,-0.256 -0.32,-0.448 -0.208,-0.208 -0.56,-0.336 -0.336,-0.144 -0.816,-0.144 z m -4.672,7.2 q 0,3.872 3.28,3.872 0.704,0 1.248,-0.128 0.544,-0.144 0.944,-0.336 0.416,-0.192 0.736,-0.432 0.336,-0.24 0.608,-0.432 0.288,-0.192 0.56,-0.32 0.272,-0.144 0.592,-0.144 0.192,0 0.368,0.096 0.192,0.096 0.336,0.256 l 1.008,1.216 q -0.848,0.848 -1.664,1.472 -0.816,0.624 -1.664,1.024 -0.848,0.4 -1.792,0.592 -0.944,0.192 -2.048,0.192 -1.44,0 -2.608,-0.48 -1.168,-0.496 -2,-1.376 -0.832,-0.896 -1.296,-2.144 -0.448,-1.264 -0.448,-2.816 0,-1.296 0.272,-2.544 0.288,-1.248 0.816,-2.368 0.528,-1.12 1.296,-2.064 0.768,-0.944 1.728,-1.632 0.976,-0.688 2.128,-1.072 1.168,-0.384 2.496,-0.384 1.28,0 2.24,0.368 0.976,0.368 1.616,0.96 0.656,0.576 0.976,1.296 0.32,0.72 0.32,1.408 0,1.104 -0.448,2.016 -0.432,0.912 -1.568,1.632 -1.12,0.72 -3.072,1.248 -1.952,0.512 -4.96,0.816 z"
         stroke-width="0px"
         stroke-linejoin="miter"
         stroke-miterlimit="2"
         fill="#31e50f"
         stroke="#31e50f"
         transform="matrix(0.75,0,0,0.75,130.44425,435.912)" />
      <path
         id="path282137"
         style="font-style:oblique;font-weight:700;font-size:32px;line-height:1;font-family:Lato;font-variant-ligatures:none;text-align:center;text-anchor:middle;fill:#000000"
         d="m 556.4835,-2.912 q -0.816,0.896 -1.568,1.504 -0.736,0.608 -1.504,0.976 -0.768,0.368 -1.616,0.512 -0.832,0.16 -1.84,0.16 -1.424,0 -2.56,-0.48 -1.12,-0.496 -1.904,-1.392 -0.784,-0.896 -1.2,-2.16 -0.416,-1.264 -0.416,-2.816 0,-1.328 0.288,-2.592 0.288,-1.264 0.832,-2.384 0.544,-1.12 1.312,-2.048 0.768,-0.928 1.728,-1.6 0.96,-0.672 2.08,-1.04 1.136,-0.384 2.4,-0.384 1.632,0 2.768,0.576 1.152,0.576 2.032,1.728 l -1.264,1.504 q -0.128,0.144 -0.32,0.272 -0.192,0.112 -0.416,0.112 -0.272,0 -0.496,-0.16 -0.208,-0.176 -0.512,-0.368 -0.288,-0.192 -0.736,-0.352 -0.432,-0.176 -1.136,-0.176 -0.912,0 -1.744,0.496 -0.832,0.496 -1.472,1.408 -0.64,0.912 -1.024,2.192 -0.368,1.28 -0.368,2.832 0,1.808 0.8,2.8 0.8,0.976 2.176,0.976 0.608,0 1.072,-0.128 0.464,-0.128 0.816,-0.304 0.368,-0.192 0.64,-0.4 0.272,-0.224 0.512,-0.4 0.24,-0.192 0.448,-0.32 0.224,-0.128 0.48,-0.128 0.208,0 0.384,0.112 0.192,0.096 0.336,0.256 z"
         stroke-width="0px"
         stroke-linejoin="miter"
         stroke-miterlimit="2"
         fill="#31e50f"
         stroke="#31e50f"
         transform="matrix(0.75,0,0,0.75,131.94425,435.912)" />
      <path
         id="path282139"
         style="font-style:oblique;font-weight:700;font-size:32px;line-height:1;font-family:Lato;font-variant-ligatures:none;text-align:center;text-anchor:middle;fill:#000000"
         d="m 563.9275,-13.632 q 1.2,-1.536 2.592,-2.288 1.408,-0.752 2.864,-0.752 1.04,0 1.856,0.416 0.832,0.416 1.36,1.216 0.528,0.784 0.736,1.952 0.224,1.152 0.032,2.64 L 572.1195,0 h -3.936 l 1.232,-10.448 q 0.208,-1.6 -0.176,-2.304 -0.368,-0.704 -1.36,-0.704 -0.608,0 -1.264,0.352 -0.656,0.336 -1.264,0.976 -0.608,0.624 -1.136,1.52 -0.528,0.896 -0.896,2 L 562.2795,0 h -3.952 l 2.88,-23.776 h 3.952 z"
         stroke-width="0px"
         stroke-linejoin="miter"
         stroke-miterlimit="2"
         fill="#31e50f"
         stroke="#31e50f"
         transform="matrix(0.75,0,0,0.75,133.44425,435.912)" />
      <path
         id="path282141"
         style="font-style:oblique;font-weight:700;font-size:32px;line-height:1;font-family:Lato;font-variant-ligatures:none;text-align:center;text-anchor:middle;fill:#000000"
         d="m 580.84,-13.024 q 1.248,-1.84 2.768,-2.736 1.52,-0.912 3.136,-0.912 1.024,0 1.84,0.416 0.816,0.416 1.344,1.216 0.528,0.784 0.736,1.952 0.224,1.152 0.032,2.64 L 589.464,0 h -3.952 l 1.232,-10.448 q 0.208,-1.6 -0.16,-2.288 -0.368,-0.704 -1.344,-0.704 -0.656,0 -1.344,0.384 -0.688,0.368 -1.328,1.072 -0.64,0.688 -1.184,1.664 -0.528,0.96 -0.864,2.16 L 579.608,0 h -3.952 l 1.968,-16.432 h 2 q 0.624,0 0.96,0.304 0.352,0.304 0.352,0.976 z"
         stroke-width="0px"
         stroke-linejoin="miter"
         stroke-miterlimit="2"
         fill="#31e50f"
         stroke="#31e50f"
         transform="matrix(0.75,0,0,0.75,134.94425,435.912)" />
      <path
         id="path282143"
         style="font-style:oblique;font-weight:700;font-size:32px;line-height:1;font-family:Lato;font-variant-ligatures:none;text-align:center;text-anchor:middle;fill:#000000"
         d="m 599.7045,-2.8 q 0.992,0 1.792,-0.56 0.8,-0.576 1.36,-1.52 0.56,-0.96 0.864,-2.224 0.304,-1.264 0.304,-2.656 0,-2 -0.672,-2.928 -0.672,-0.944 -2.048,-0.944 -0.992,0 -1.808,0.56 -0.8,0.56 -1.36,1.52 -0.56,0.944 -0.864,2.208 -0.304,1.264 -0.304,2.672 0,2 0.672,2.944 0.672,0.928 2.064,0.928 z m -0.368,3.04 q -1.36,0 -2.512,-0.448 -1.152,-0.464 -2,-1.344 -0.848,-0.88 -1.328,-2.16 -0.48,-1.28 -0.48,-2.928 0,-2.128 0.688,-3.968 0.688,-1.84 1.856,-3.184 1.184,-1.344 2.752,-2.112 1.568,-0.768 3.344,-0.768 1.36,0 2.512,0.464 1.168,0.448 2,1.328 0.848,0.88 1.328,2.16 0.48,1.28 0.48,2.928 0,2.112 -0.688,3.952 -0.688,1.824 -1.872,3.184 -1.168,1.344 -2.736,2.128 -1.568,0.768 -3.344,0.768 z"
         stroke-width="0px"
         stroke-linejoin="miter"
         stroke-miterlimit="2"
         fill="#31e50f"
         stroke="#31e50f"
         transform="matrix(0.75,0,0,0.75,136.44425,435.912)" />
      <path
         id="path282145"
         style="font-style:oblique;font-weight:700;font-size:32px;line-height:1;font-family:Lato;font-variant-ligatures:none;text-align:center;text-anchor:middle;fill:#000000"
         d="m 609.7505,0 2.88,-23.776 h 3.904 L 613.6385,0 Z"
         stroke-width="0px"
         stroke-linejoin="miter"
         stroke-miterlimit="2"
         fill="#31e50f"
         stroke="#31e50f"
         transform="matrix(0.75,0,0,0.75,137.94425,435.912)" />
      <path
         id="path282147"
         style="font-style:oblique;font-weight:700;font-size:32px;line-height:1;font-family:Lato;font-variant-ligatures:none;text-align:center;text-anchor:middle;fill:#000000"
         d="m 624.0795,-2.8 q 0.992,0 1.792,-0.56 0.8,-0.576 1.36,-1.52 0.56,-0.96 0.864,-2.224 0.304,-1.264 0.304,-2.656 0,-2 -0.672,-2.928 -0.672,-0.944 -2.048,-0.944 -0.992,0 -1.808,0.56 -0.8,0.56 -1.36,1.52 -0.56,0.944 -0.864,2.208 -0.304,1.264 -0.304,2.672 0,2 0.672,2.944 0.672,0.928 2.064,0.928 z m -0.368,3.04 q -1.36,0 -2.512,-0.448 -1.152,-0.464 -2,-1.344 -0.848,-0.88 -1.328,-2.16 -0.48,-1.28 -0.48,-2.928 0,-2.128 0.688,-3.968 0.688,-1.84 1.856,-3.184 1.184,-1.344 2.752,-2.112 1.568,-0.768 3.344,-0.768 1.36,0 2.512,0.464 1.168,0.448 2,1.328 0.848,0.88 1.328,2.16 0.48,1.28 0.48,2.928 0,2.112 -0.688,3.952 -0.688,1.824 -1.872,3.184 -1.168,1.344 -2.736,2.128 -1.568,0.768 -3.344,0.768 z"
         stroke-width="0px"
         stroke-linejoin="miter"
         stroke-miterlimit="2"
         fill="#31e50f"
         stroke="#31e50f"
         transform="matrix(0.75,0,0,0.75,139.44425,435.912)" />
      <path
         id="path282149"
         style="font-style:oblique;font-weight:700;font-size:32px;line-height:1;font-family:Lato;font-variant-ligatures:none;text-align:center;text-anchor:middle;fill:#000000"
         d="m 639.2005,3.024 q 0.896,0 1.632,-0.224 0.736,-0.224 1.264,-0.624 0.528,-0.4 0.816,-0.944 0.288,-0.544 0.288,-1.168 0,-0.224 -0.032,-0.432 -0.016,-0.224 -0.048,-0.416 -1.888,-0.32 -3.232,-0.272 -1.344,0.048 -2.192,0.336 -0.848,0.288 -1.248,0.768 -0.4,0.48 -0.4,1.024 0,0.96 0.768,1.456 0.784,0.496 2.384,0.496 z m 1.424,-10.72 q 0.72,0 1.264,-0.336 0.544,-0.336 0.912,-0.88 0.384,-0.544 0.576,-1.216 0.192,-0.688 0.208,-1.392 0,-1.2 -0.576,-1.84 -0.56,-0.64 -1.632,-0.64 -0.72,0 -1.264,0.32 -0.544,0.304 -0.912,0.832 -0.368,0.512 -0.56,1.184 -0.176,0.672 -0.176,1.392 0,1.232 0.56,1.904 0.56,0.672 1.6,0.672 z m 9.04,-8.128 -0.176,1.28 q -0.112,0.768 -0.784,1.024 l -1.68,0.432 q 0.08,0.32 0.112,0.688 0.048,0.352 0.048,0.736 0,0.736 -0.16,1.328 -0.16,0.576 -0.4,1.072 -0.224,0.496 -0.496,0.944 -0.272,0.432 -0.512,0.896 -0.224,0.448 -0.384,0.96 -0.16,0.496 -0.16,1.104 0,0.656 0.272,1.216 0.272,0.544 0.592,1.12 0.32,0.576 0.592,1.232 0.272,0.656 0.272,1.52 -0.016,1.216 -0.56,2.304 -0.544,1.104 -1.568,1.92 -1.008,0.832 -2.48,1.312 -1.472,0.48 -3.328,0.48 -1.504,0 -2.72,-0.32 -1.216,-0.304 -2.064,-0.864 -0.848,-0.56 -1.312,-1.328 -0.464,-0.752 -0.464,-1.664 0,-1.12 0.48,-1.952 0.48,-0.832 1.28,-1.392 0.8,-0.576 1.84,-0.912 1.04,-0.336 2.16,-0.48 1.12,-0.144 2.24,-0.112 1.12,0.032 2.08,0.192 -0.144,-0.48 -0.144,-1.04 0,-0.928 0.512,-2.048 -0.608,0.416 -1.392,0.64 -0.768,0.224 -1.856,0.224 -0.928,0 -1.776,-0.304 -0.832,-0.304 -1.472,-0.928 -0.64,-0.624 -1.024,-1.552 -0.368,-0.944 -0.368,-2.192 0,-1.2 0.448,-2.336 0.448,-1.152 1.328,-2.048 0.88,-0.912 2.176,-1.456 1.296,-0.544 3.008,-0.544 0.912,0 1.728,0.208 0.832,0.208 1.52,0.64 z"
         stroke-width="0px"
         stroke-linejoin="miter"
         stroke-miterlimit="2"
         fill="#31e50f"
         stroke="#31e50f"
         transform="matrix(0.75,0,0,0.75,140.94425,435.912)" />
      <path
         id="path282151"
         style="font-style:oblique;font-weight:700;font-size:32px;line-height:1;font-family:Lato;font-variant-ligatures:none;text-align:center;text-anchor:middle;fill:#000000"
         d="m 665.887,-16.416 -10.848,20.96 q -0.224,0.416 -0.528,0.608 -0.304,0.208 -0.752,0.208 h -2.928 l 3.648,-6.624 -4.144,-15.152 h 3.312 q 0.432,0 0.64,0.224 0.224,0.208 0.304,0.512 l 2.016,8.512 q 0.16,0.816 0.24,1.632 0.176,-0.416 0.352,-0.816 0.192,-0.416 0.384,-0.832 l 4.048,-8.512 q 0.16,-0.32 0.464,-0.512 0.304,-0.208 0.624,-0.208 z"
         stroke-width="0px"
         stroke-linejoin="miter"
         stroke-miterlimit="2"
         fill="#31e50f"
         stroke="#31e50f"
         transform="matrix(0.75,0,0,0.75,142.44425,435.912)" />
    </g>
  </g>
</svg>
