<svg width="193" height="193" viewBox="0 0 193 193" fill="none" xmlns="http://www.w3.org/2000/svg">
<circle cx="96.4992" cy="96.4992" r="95.8117" fill="#00160A"/>
<path d="M159.228 83.2671L111.891 117.594C111.531 117.848 80.0863 117.848 79.7261 117.572L32.4531 82.8857C32.6845 82.0347 33.0903 81.2412 33.6448 80.5554C34.1992 79.8696 34.8902 79.3066 35.6739 78.9022L95.8086 47.8008L155.943 78.9022C156.787 79.3314 157.522 79.9478 158.091 80.7043C158.66 81.4608 159.049 82.3374 159.228 83.2671Z" fill="#E3E8F4"/>
<path d="M159.229 83.2675L111.892 117.594C111.532 117.848 80.0872 117.848 79.727 117.573L32.4647 82.8945C32.3181 83.4354 32.2433 83.9932 32.2422 84.5536V145.542C32.2439 147.228 32.9141 148.844 34.1059 150.035C35.2976 151.227 36.9135 151.897 38.5989 151.899H153.02C154.706 151.897 156.321 151.227 157.513 150.035C158.705 148.844 159.375 147.228 159.377 145.542V84.5536C159.372 84.1189 159.323 83.6858 159.231 83.2611L159.229 83.2675Z" fill="#F9F9F9"/>
<path d="M158.868 148.001C158.386 149.155 157.573 150.141 156.533 150.834C155.492 151.528 154.27 151.899 153.019 151.9H38.5982C37.3477 151.899 36.1253 151.528 35.0848 150.834C34.0443 150.141 33.232 149.155 32.75 148.001L89.6216 107.127C91.4221 105.826 93.5872 105.125 95.8088 105.125C98.0305 105.125 100.196 105.826 101.996 107.127L158.868 148.001Z" fill="white"/>
<path d="M133.95 41.7148H57.6692C55.9833 41.7148 54.3665 42.3846 53.1743 43.5767C51.9822 44.7688 51.3125 46.3857 51.3125 48.0716V117.996H140.307V48.0716C140.307 46.3857 139.637 44.7688 138.445 43.5767C137.253 42.3846 135.636 41.7148 133.95 41.7148Z" fill="#484949"/>
<path d="M72.8637 67.1217C72.2492 67.1132 71.3381 66.9035 71.3359 66.183V53.762C71.3338 53.0203 72.2428 52.836 72.8616 52.8233C73.1677 52.8166 73.4736 52.8464 73.7727 52.9123C74.4656 53.1242 74.6923 53.5946 75.1118 54.3489L78.2796 60.392V53.7429C78.3644 52.4779 81.2461 52.4779 81.3308 53.7429V66.1809C81.3308 66.9013 80.4176 67.1132 79.8052 67.1217C79.4722 67.1668 79.1333 67.1128 78.8308 66.9666C78.5282 66.8204 78.2754 66.5884 78.1037 66.2996L74.3872 59.5318V66.183C74.3872 66.9035 73.4739 67.1132 72.8637 67.1217ZM84.7741 67.1217C84.202 67.1175 83.4265 66.8568 83.4434 66.183V53.762C83.4265 53.0903 84.2062 52.8275 84.7741 52.8233H91.7368C93.0039 52.8572 92.9658 55.4528 91.7368 55.4846H86.4925V58.7901H89.4272C90.6414 58.788 90.6774 61.1379 89.4272 61.1358H86.4925V64.4625H91.7347C92.9637 64.4921 93.0018 67.0899 91.7347 67.1238L84.7741 67.1217ZM98.9369 67.2404C98.191 67.2319 97.1528 66.9882 96.9197 66.2233L93.0272 54.2938C92.7094 53.0436 95.4894 52.1834 95.9429 53.3911L98.9157 63.4263L100.458 56.8153C100.812 55.7347 103.065 55.7198 103.393 56.8153L104.94 63.4263L107.913 53.3911C108.391 52.1855 111.144 53.0394 110.826 54.2917L106.936 66.2212C106.376 67.5879 103.461 67.6366 102.946 66.2212L101.929 61.5871L100.912 66.2233C100.732 67.0009 99.6616 67.2298 98.9369 67.2404ZM116.011 67.3188C114.542 67.3655 113.103 66.8979 111.943 65.9966C110.519 65.0664 111.771 62.4008 113.28 63.3479C113.985 64.0771 114.937 64.5162 115.95 64.579C117.189 64.6913 118.514 63.5979 117.518 62.4177C115.878 60.9324 112.985 60.6866 111.981 58.4384C110.396 54.6095 114.172 52.1664 117.691 52.7661C118.736 52.908 120.484 53.1114 120.548 54.4273C120.516 55.0587 120.139 56.0589 119.336 56.0313C118.774 56.0271 118.48 55.6626 117.916 55.474C117.126 55.188 115.479 55.1414 114.894 55.8851C114.748 56.0767 114.68 56.3173 114.705 56.5573C114.73 56.7974 114.847 57.0187 115.03 57.1755C116.397 58.2244 118.414 58.5634 119.679 59.8665C120.31 60.5199 120.724 61.352 120.864 62.2494C121.005 63.1467 120.865 64.0656 120.464 64.8806C120.063 65.6956 119.421 66.3671 118.624 66.8034C117.828 67.2398 116.916 67.4197 116.013 67.3188H116.011Z" fill="white"/>
<path d="M125.472 77.7378H66.1423C65.5804 77.7378 65.0414 77.5146 64.6441 77.1172C64.2467 76.7198 64.0234 76.1809 64.0234 75.6189C64.0234 75.0569 64.2467 74.518 64.6441 74.1206C65.0414 73.7232 65.5804 73.5 66.1423 73.5H125.472C126.034 73.5 126.573 73.7232 126.97 74.1206C127.368 74.518 127.591 75.0569 127.591 75.6189C127.591 76.1809 127.368 76.7198 126.97 77.1172C126.573 77.5146 126.034 77.7378 125.472 77.7378ZM125.472 88.3324H66.1423C65.5804 88.3324 65.0414 88.1091 64.6441 87.7118C64.2467 87.3144 64.0234 86.7754 64.0234 86.2135C64.0234 85.6515 64.2467 85.1125 64.6441 84.7152C65.0414 84.3178 65.5804 84.0946 66.1423 84.0946H125.472C126.034 84.0946 126.573 84.3178 126.97 84.7152C127.368 85.1125 127.591 85.6515 127.591 86.2135C127.591 86.7754 127.368 87.3144 126.97 87.7118C126.573 88.1091 126.034 88.3324 125.472 88.3324ZM125.472 98.9269H66.1423C65.5804 98.9269 65.0414 98.7037 64.6441 98.3063C64.2467 97.909 64.0234 97.37 64.0234 96.808C64.0234 96.2461 64.2467 95.7071 64.6441 95.3097C65.0414 94.9124 65.5804 94.6891 66.1423 94.6891H125.472C126.034 94.6891 126.573 94.9124 126.97 95.3097C127.368 95.7071 127.591 96.2461 127.591 96.808C127.591 97.37 127.368 97.909 126.97 98.3063C126.573 98.7037 126.034 98.9269 125.472 98.9269Z" fill="white"/>
</svg>
