<svg width="30" height="26" viewBox="0 0 30 26" fill="none" xmlns="http://www.w3.org/2000/svg">
<path d="M26.7703 9.11447L15.5203 2.6859C15.3663 2.5978 15.1852 2.55078 15 2.55078C14.8148 2.55078 14.6337 2.5978 14.4797 2.6859L3.22969 9.11447C3.10126 9.18792 2.99599 9.28741 2.92321 9.40411C2.85043 9.52081 2.8124 9.65112 2.8125 9.78345V20.2299C2.8125 20.6561 3.01004 21.0649 3.36167 21.3663C3.71331 21.6677 4.19022 21.837 4.6875 21.837H25.3125C25.8098 21.837 26.2867 21.6677 26.6383 21.3663C26.99 21.0649 27.1875 20.6561 27.1875 20.2299V9.78345C27.1876 9.65112 27.1496 9.52081 27.0768 9.40411C27.004 9.28741 26.8987 9.18792 26.7703 9.11447ZM4.6875 20.2299V11.3434L12.4102 16.0644C12.5692 16.1617 12.7597 16.214 12.9551 16.214H17.0449C17.2403 16.214 17.4308 16.1617 17.5898 16.0644L25.3125 11.3434V20.2299H4.6875Z" fill="white"/>
</svg>
