<?xml version="1.0" standalone="no"?>
<!DOCTYPE svg PUBLIC "-//W3C//DTD SVG 20010904//EN"
 "http://www.w3.org/TR/2001/REC-SVG-20010904/DTD/svg10.dtd">
<svg version="1.0" xmlns="http://www.w3.org/2000/svg"
 width="500.000000pt" height="500.000000pt" viewBox="0 0 500.000000 500.000000"
 preserveAspectRatio="xMidYMid meet">
<metadata>
Created by potrace 1.14, written by Peter Selinger 2001-2017
</metadata>
<g transform="translate(0.000000,500.000000) scale(0.100000,-0.100000)"
fill="#000000" stroke="none">
<path d="M2298 4925 c-1 -1 -34 -6 -71 -10 -37 -3 -78 -8 -90 -11 -12 -2 -40
-7 -62 -10 -81 -12 -251 -55 -369 -95 -296 -101 -557 -250 -815 -469 -354
-299 -523 -536 -667 -931 -83 -229 -138 -443 -159 -624 -16 -139 -17 -414 -1
-548 15 -132 47 -308 66 -372 48 -155 68 -215 105 -306 64 -156 109 -241 222
-414 122 -187 283 -371 443 -505 36 -30 67 -58 70 -61 13 -15 194 -140 265
-183 118 -72 324 -168 455 -214 102 -35 294 -86 368 -97 15 -2 56 -9 92 -14
149 -24 365 -30 535 -18 225 18 494 79 706 163 239 94 510 255 689 409 77 66
251 245 314 322 229 281 422 678 491 1013 2 8 6 26 9 40 15 65 42 267 46 345
8 149 -2 381 -20 491 -6 33 -13 75 -16 94 -10 68 -56 246 -86 335 -31 93 -115
302 -128 320 -5 6 -25 42 -45 80 -127 237 -373 541 -560 690 -27 22 -58 47
-68 56 -38 34 -179 132 -259 180 -385 230 -801 344 -1260 347 -108 0 -198 -1
-200 -3z m392 -189 c51 -4 96 -9 100 -11 3 -1 31 -6 62 -9 229 -27 585 -157
818 -301 306 -188 591 -474 764 -768 134 -227 245 -513 280 -722 2 -16 7 -43
10 -60 45 -238 39 -617 -13 -840 -43 -184 -87 -322 -142 -444 -161 -360 -396
-660 -700 -894 -323 -249 -746 -415 -1157 -454 -99 -9 -337 -9 -427 0 -134 14
-161 18 -275 43 -246 55 -544 179 -745 311 -438 289 -766 719 -920 1205 -27
83 -76 283 -69 275 2 -2 26 -48 53 -103 230 -467 664 -828 1172 -973 57 -16
120 -32 139 -35 19 -3 44 -7 55 -10 85 -17 197 -27 305 -27 88 -1 244 9 270
16 8 2 35 7 60 10 91 12 282 65 390 109 720 289 1194 992 1185 1759 -3 236
-27 382 -96 591 -245 739 -922 1253 -1696 1289 -28 1 -49 4 -46 7 2 3 8 5 11
5 4 1 23 4 42 8 154 29 369 38 570 23z m-454 -239 c147 -18 357 -79 503 -148
288 -135 536 -352 713 -624 111 -169 211 -428 244 -625 23 -146 30 -394 13
-503 -5 -29 -11 -68 -14 -87 -80 -507 -442 -991 -920 -1227 -124 -62 -332
-133 -432 -148 -21 -3 -50 -7 -63 -10 -93 -18 -381 -25 -455 -11 -16 3 -50 8
-75 12 -130 16 -335 82 -476 152 -95 47 -257 145 -284 172 -3 3 -27 23 -55 45
-179 144 -342 353 -450 576 -59 123 -72 159 -114 316 -27 102 -26 121 5 60 53
-103 173 -257 266 -342 199 -181 447 -300 713 -342 65 -10 325 -10 390 0 558
88 990 493 1115 1042 19 88 24 136 24 275 1 172 -7 230 -46 370 -102 364 -353
667 -696 839 -64 32 -242 95 -297 105 -121 23 -161 27 -247 29 -93 2 -117 9
-61 20 16 3 69 14 118 25 50 12 117 24 150 27 33 4 62 9 64 11 5 5 313 -3 367
-9z m-516 -272 c77 -12 98 -17 172 -41 183 -57 340 -153 473 -288 171 -172
273 -369 315 -601 19 -110 24 -289 9 -375 -6 -30 -12 -68 -15 -85 -10 -57 -55
-180 -95 -259 -145 -288 -400 -502 -704 -591 -227 -66 -514 -56 -725 25 -430
166 -723 563 -745 1014 -4 91 -4 91 11 51 93 -239 266 -409 496 -489 98 -33
173 -44 282 -40 104 3 126 7 216 35 89 28 123 45 205 100 160 107 274 269 326
464 29 111 29 279 0 390 -95 355 -400 593 -766 598 -60 0 -101 3 -90 5 11 2
25 8 30 12 27 22 243 75 335 83 50 4 229 -1 270 -8z"/>
</g>
</svg>
