<svg width="18" height="18" viewBox="0 0 18 18" fill="none" xmlns="http://www.w3.org/2000/svg">
<g clip-path="url(#clip0_3806_1337)">
<mask id="mask0_3806_1337" style="mask-type:luminance" maskUnits="userSpaceOnUse" x="0" y="0" width="18" height="19">
<path d="M2.89062 1.90703C2.50456 1.90703 2.19088 2.22324 2.19088 2.61243C2.19088 3.00162 2.50456 3.31784 2.89062 3.31784C3.27668 3.31784 3.59035 3.00162 3.59035 2.61243C3.59035 2.22324 3.27668 1.90703 2.89062 1.90703ZM12.1753 9.00486L10.0134 12.78H8.07346H5.81501C5.55925 12.4297 5.14906 12.2011 4.68579 12.2011C4.22252 12.2011 3.81233 12.4297 3.55657 12.78H3.53727V12.8043C3.37802 13.033 3.28633 13.3103 3.28633 13.6119C3.28633 13.9135 3.37802 14.1908 3.53727 14.4195V14.4438H3.55657C3.81233 14.7941 4.22252 15.0227 4.68579 15.0227C5.14906 15.0227 5.55925 14.7941 5.81501 14.4438H10.9544L11.1957 14.0254L14.0719 9.00486L10.9544 3.56595H4.19357C3.8992 3.97459 3.42627 4.2373 2.89062 4.2373C2.00268 4.2373 1.27882 3.51243 1.27882 2.61243C1.27882 1.7173 1.99786 0.987568 2.89062 0.987568C3.42627 0.987568 3.90402 1.25027 4.19357 1.65892H12.0499L14.1491 5.32703L16.2531 9L14.1491 12.673V12.6778L12.0499 16.3459H1.6504V9.83189H6.74638C7.00214 10.1822 7.41233 10.4108 7.8756 10.4108C8.64772 10.4108 9.27507 9.77838 9.27507 9C9.27507 8.22162 8.64772 7.58919 7.8756 7.58919C7.41233 7.58919 7.00214 7.81784 6.74638 8.16811H1.6504H1.09062C0.492225 8.17297 0 8.66432 0 9.27243V9.83676V16.9103C0 17.5135 0.492225 18.0097 1.09062 18.0097H12.3635C12.7641 18.0097 13.1067 17.8103 13.3094 17.46L15.5727 13.5097L17.8359 9.55946C18.0338 9.20919 18.0338 8.81027 17.8359 8.46L13.3094 0.54973C13.1115 0.199459 12.7689 0 12.3635 0H1.09062C0.492225 0 0 0.496216 0 1.09946V4.12541C0 4.72865 0.492225 5.22486 1.09062 5.22486H1.6504H5.18767H8.07828H10.0182L12.1753 9.00486Z" fill="white"/>
</mask>
<g mask="url(#mask0_3806_1337)">
<path d="M18.0386 0H0V18.0049H18.0386V0Z" fill="#00D563"/>
</g>
</g>
<defs>
<clipPath id="clip0_3806_1337">
<rect width="18" height="18" fill="white"/>
</clipPath>
</defs>
</svg>
