<svg width="291" height="270" viewBox="0 0 291 270" fill="none" xmlns="http://www.w3.org/2000/svg">
<path d="M129.456 2.79554C130.178 2.79554 130.764 2.16974 130.764 1.39777C130.764 0.625804 130.178 0 129.456 0C128.734 0 128.148 0.625804 128.148 1.39777C128.148 2.16974 128.734 2.79554 129.456 2.79554Z" fill="#00160A"/>
<path d="M145.214 2.79554C145.936 2.79554 146.522 2.16974 146.522 1.39777C146.522 0.625804 145.936 0 145.214 0C144.492 0 143.906 0.625804 143.906 1.39777C143.906 2.16974 144.492 2.79554 145.214 2.79554Z" fill="#00160A"/>
<path d="M160.964 2.79554C161.686 2.79554 162.272 2.16974 162.272 1.39777C162.272 0.625804 161.686 0 160.964 0C160.242 0 159.656 0.625804 159.656 1.39777C159.656 2.16974 160.242 2.79554 160.964 2.79554Z" fill="#00160A"/>
<path d="M176.722 2.79554C177.444 2.79554 178.03 2.16974 178.03 1.39777C178.03 0.625804 177.444 0 176.722 0C176 0 175.414 0.625804 175.414 1.39777C175.414 2.16974 176 2.79554 176.722 2.79554Z" fill="#00160A"/>
<path d="M1.30773 2.79554C2.02997 2.79554 2.61546 2.16974 2.61546 1.39777C2.61546 0.625804 2.02997 0 1.30773 0C0.585491 0 0 0.625804 0 1.39777C0 2.16974 0.585491 2.79554 1.30773 2.79554Z" fill="#00160A"/>
<path d="M194.834 1.39777C194.834 1.67422 194.758 1.94446 194.614 2.17432C194.47 2.40419 194.266 2.58336 194.027 2.68915C193.788 2.79494 193.525 2.82264 193.271 2.76871C193.018 2.71477 192.785 2.58165 192.602 2.38617C192.419 2.19069 192.294 1.9416 192.244 1.67046C192.193 1.39932 192.219 1.11827 192.318 0.862863C192.417 0.607454 192.585 0.389177 192.8 0.235588C193.015 0.0819987 193.268 0 193.526 0C193.873 0 194.206 0.147268 194.451 0.409401C194.696 0.671534 194.834 1.02705 194.834 1.39777Z" fill="#00160A"/>
<path d="M18.3733 1.39777C18.3733 1.67422 18.2966 1.94446 18.1529 2.17432C18.0092 2.40419 17.805 2.58336 17.566 2.68915C17.327 2.79494 17.0641 2.82264 16.8104 2.76871C16.5567 2.71477 16.3237 2.58165 16.1408 2.38617C15.9579 2.19069 15.8334 1.9416 15.7829 1.67046C15.7325 1.39932 15.7584 1.11827 15.8574 0.862863C15.9563 0.607454 16.124 0.389177 16.339 0.235588C16.5541 0.0819987 16.8069 0 17.0656 0C17.4124 0 17.745 0.147268 17.9903 0.409401C18.2355 0.671534 18.3733 1.02705 18.3733 1.39777Z" fill="#00160A"/>
<path d="M209.284 2.79554C210.007 2.79554 210.592 2.16974 210.592 1.39777C210.592 0.625804 210.007 0 209.284 0C208.562 0 207.977 0.625804 207.977 1.39777C207.977 2.16974 208.562 2.79554 209.284 2.79554Z" fill="#00160A"/>
<path d="M32.8155 2.79554C33.5378 2.79554 34.1233 2.16974 34.1233 1.39777C34.1233 0.625804 33.5378 0 32.8155 0C32.0933 0 31.5078 0.625804 31.5078 1.39777C31.5078 2.16974 32.0933 2.79554 32.8155 2.79554Z" fill="#00160A"/>
<path d="M225.042 2.79554C225.764 2.79554 226.35 2.16974 226.35 1.39777C226.35 0.625804 225.764 0 225.042 0C224.32 0 223.734 0.625804 223.734 1.39777C223.734 2.16974 224.32 2.79554 225.042 2.79554Z" fill="#00160A"/>
<path d="M49.628 2.79554C50.3503 2.79554 50.9358 2.16974 50.9358 1.39777C50.9358 0.625804 50.3503 0 49.628 0C48.9058 0 48.3203 0.625804 48.3203 1.39777C48.3203 2.16974 48.9058 2.79554 49.628 2.79554Z" fill="#00160A"/>
<path d="M240.8 2.79554C241.522 2.79554 242.108 2.16974 242.108 1.39777C242.108 0.625804 241.522 0 240.8 0C240.078 0 239.492 0.625804 239.492 1.39777C239.492 2.16974 240.078 2.79554 240.8 2.79554Z" fill="#00160A"/>
<path d="M65.378 2.79554C66.1003 2.79554 66.6858 2.16974 66.6858 1.39777C66.6858 0.625804 66.1003 0 65.378 0C64.6558 0 64.0703 0.625804 64.0703 1.39777C64.0703 2.16974 64.6558 2.79554 65.378 2.79554Z" fill="#00160A"/>
<path d="M257.605 2.79554C258.327 2.79554 258.912 2.16974 258.912 1.39777C258.912 0.625804 258.327 0 257.605 0C256.882 0 256.297 0.625804 256.297 1.39777C256.297 2.16974 256.882 2.79554 257.605 2.79554Z" fill="#00160A"/>
<path d="M81.1359 2.79554C81.8581 2.79554 82.4436 2.16974 82.4436 1.39777C82.4436 0.625804 81.8581 0 81.1359 0C80.4136 0 79.8281 0.625804 79.8281 1.39777C79.8281 2.16974 80.4136 2.79554 81.1359 2.79554Z" fill="#00160A"/>
<path d="M273.355 2.79554C274.077 2.79554 274.662 2.16974 274.662 1.39777C274.662 0.625804 274.077 0 273.355 0C272.632 0 272.047 0.625804 272.047 1.39777C272.047 2.16974 272.632 2.79554 273.355 2.79554Z" fill="#00160A"/>
<path d="M96.8937 2.79554C97.6159 2.79554 98.2014 2.16974 98.2014 1.39777C98.2014 0.625804 97.6159 0 96.8937 0C96.1714 0 95.5859 0.625804 95.5859 1.39777C95.5859 2.16974 96.1714 2.79554 96.8937 2.79554Z" fill="#00160A"/>
<path d="M289.112 2.79554C289.835 2.79554 290.42 2.16974 290.42 1.39777C290.42 0.625804 289.835 0 289.112 0C288.39 0 287.805 0.625804 287.805 1.39777C287.805 2.16974 288.39 2.79554 289.112 2.79554Z" fill="#00160A"/>
<path d="M113.698 2.79554C114.421 2.79554 115.006 2.16974 115.006 1.39777C115.006 0.625804 114.421 0 113.698 0C112.976 0 112.391 0.625804 112.391 1.39777C112.391 2.16974 112.976 2.79554 113.698 2.79554Z" fill="#00160A"/>
<path d="M129.456 21.8815C130.178 21.8815 130.764 21.2557 130.764 20.4837C130.764 19.7117 130.178 19.0859 129.456 19.0859C128.734 19.0859 128.148 19.7117 128.148 20.4837C128.148 21.2557 128.734 21.8815 129.456 21.8815Z" fill="#00160A"/>
<path d="M145.214 21.8815C145.936 21.8815 146.522 21.2557 146.522 20.4837C146.522 19.7117 145.936 19.0859 145.214 19.0859C144.492 19.0859 143.906 19.7117 143.906 20.4837C143.906 21.2557 144.492 21.8815 145.214 21.8815Z" fill="#00160A"/>
<path d="M160.964 21.8815C161.686 21.8815 162.272 21.2557 162.272 20.4837C162.272 19.7117 161.686 19.0859 160.964 19.0859C160.242 19.0859 159.656 19.7117 159.656 20.4837C159.656 21.2557 160.242 21.8815 160.964 21.8815Z" fill="#00160A"/>
<path d="M176.722 21.8815C177.444 21.8815 178.03 21.2557 178.03 20.4837C178.03 19.7117 177.444 19.0859 176.722 19.0859C176 19.0859 175.414 19.7117 175.414 20.4837C175.414 21.2557 176 21.8815 176.722 21.8815Z" fill="#00160A"/>
<path d="M1.30773 21.8815C2.02997 21.8815 2.61546 21.2557 2.61546 20.4837C2.61546 19.7117 2.02997 19.0859 1.30773 19.0859C0.585491 19.0859 0 19.7117 0 20.4837C0 21.2557 0.585491 21.8815 1.30773 21.8815Z" fill="#00160A"/>
<path d="M194.834 20.4837C194.834 20.7602 194.758 21.0304 194.614 21.2603C194.47 21.4901 194.266 21.6693 194.027 21.7751C193.788 21.8809 193.525 21.9086 193.271 21.8546C193.018 21.8007 192.785 21.6676 192.602 21.4721C192.419 21.2766 192.294 21.0275 192.244 20.7564C192.193 20.4853 192.219 20.2042 192.318 19.9488C192.417 19.6934 192.585 19.4751 192.8 19.3215C193.015 19.1679 193.268 19.0859 193.526 19.0859C193.873 19.0859 194.206 19.2332 194.451 19.4953C194.696 19.7575 194.834 20.113 194.834 20.4837Z" fill="#00160A"/>
<path d="M18.3733 20.4837C18.3733 20.7602 18.2966 21.0304 18.1529 21.2603C18.0092 21.4901 17.805 21.6693 17.566 21.7751C17.327 21.8809 17.0641 21.9086 16.8104 21.8546C16.5567 21.8007 16.3237 21.6676 16.1408 21.4721C15.9579 21.2766 15.8334 21.0275 15.7829 20.7564C15.7325 20.4853 15.7584 20.2042 15.8574 19.9488C15.9563 19.6934 16.124 19.4751 16.339 19.3215C16.5541 19.1679 16.8069 19.0859 17.0656 19.0859C17.4124 19.0859 17.745 19.2332 17.9903 19.4953C18.2355 19.7575 18.3733 20.113 18.3733 20.4837Z" fill="#00160A"/>
<path d="M209.284 21.8815C210.007 21.8815 210.592 21.2557 210.592 20.4837C210.592 19.7117 210.007 19.0859 209.284 19.0859C208.562 19.0859 207.977 19.7117 207.977 20.4837C207.977 21.2557 208.562 21.8815 209.284 21.8815Z" fill="#00160A"/>
<path d="M32.8155 21.8815C33.5378 21.8815 34.1233 21.2557 34.1233 20.4837C34.1233 19.7117 33.5378 19.0859 32.8155 19.0859C32.0933 19.0859 31.5078 19.7117 31.5078 20.4837C31.5078 21.2557 32.0933 21.8815 32.8155 21.8815Z" fill="#00160A"/>
<path d="M225.042 21.8815C225.764 21.8815 226.35 21.2557 226.35 20.4837C226.35 19.7117 225.764 19.0859 225.042 19.0859C224.32 19.0859 223.734 19.7117 223.734 20.4837C223.734 21.2557 224.32 21.8815 225.042 21.8815Z" fill="#00160A"/>
<path d="M49.628 21.8815C50.3503 21.8815 50.9358 21.2557 50.9358 20.4837C50.9358 19.7117 50.3503 19.0859 49.628 19.0859C48.9058 19.0859 48.3203 19.7117 48.3203 20.4837C48.3203 21.2557 48.9058 21.8815 49.628 21.8815Z" fill="#00160A"/>
<path d="M240.8 21.8815C241.522 21.8815 242.108 21.2557 242.108 20.4837C242.108 19.7117 241.522 19.0859 240.8 19.0859C240.078 19.0859 239.492 19.7117 239.492 20.4837C239.492 21.2557 240.078 21.8815 240.8 21.8815Z" fill="#00160A"/>
<path d="M65.378 21.8815C66.1003 21.8815 66.6858 21.2557 66.6858 20.4837C66.6858 19.7117 66.1003 19.0859 65.378 19.0859C64.6558 19.0859 64.0703 19.7117 64.0703 20.4837C64.0703 21.2557 64.6558 21.8815 65.378 21.8815Z" fill="#00160A"/>
<path d="M257.605 21.8815C258.327 21.8815 258.912 21.2557 258.912 20.4837C258.912 19.7117 258.327 19.0859 257.605 19.0859C256.882 19.0859 256.297 19.7117 256.297 20.4837C256.297 21.2557 256.882 21.8815 257.605 21.8815Z" fill="#00160A"/>
<path d="M81.1359 21.8815C81.8581 21.8815 82.4436 21.2557 82.4436 20.4837C82.4436 19.7117 81.8581 19.0859 81.1359 19.0859C80.4136 19.0859 79.8281 19.7117 79.8281 20.4837C79.8281 21.2557 80.4136 21.8815 81.1359 21.8815Z" fill="#00160A"/>
<path d="M273.355 21.8815C274.077 21.8815 274.662 21.2557 274.662 20.4837C274.662 19.7117 274.077 19.0859 273.355 19.0859C272.632 19.0859 272.047 19.7117 272.047 20.4837C272.047 21.2557 272.632 21.8815 273.355 21.8815Z" fill="#00160A"/>
<path d="M96.8937 21.8815C97.6159 21.8815 98.2014 21.2557 98.2014 20.4837C98.2014 19.7117 97.6159 19.0859 96.8937 19.0859C96.1714 19.0859 95.5859 19.7117 95.5859 20.4837C95.5859 21.2557 96.1714 21.8815 96.8937 21.8815Z" fill="#00160A"/>
<path d="M289.112 21.8815C289.835 21.8815 290.42 21.2557 290.42 20.4837C290.42 19.7117 289.835 19.0859 289.112 19.0859C288.39 19.0859 287.805 19.7117 287.805 20.4837C287.805 21.2557 288.39 21.8815 289.112 21.8815Z" fill="#00160A"/>
<path d="M113.698 21.8815C114.421 21.8815 115.006 21.2557 115.006 20.4837C115.006 19.7117 114.421 19.0859 113.698 19.0859C112.976 19.0859 112.391 19.7117 112.391 20.4837C112.391 21.2557 112.976 21.8815 113.698 21.8815Z" fill="#00160A"/>
<path d="M129.456 40.9713C130.178 40.9713 130.764 40.3455 130.764 39.5736C130.764 38.8016 130.178 38.1758 129.456 38.1758C128.734 38.1758 128.148 38.8016 128.148 39.5736C128.148 40.3455 128.734 40.9713 129.456 40.9713Z" fill="#00160A"/>
<path d="M145.214 40.9713C145.936 40.9713 146.522 40.3455 146.522 39.5736C146.522 38.8016 145.936 38.1758 145.214 38.1758C144.492 38.1758 143.906 38.8016 143.906 39.5736C143.906 40.3455 144.492 40.9713 145.214 40.9713Z" fill="#00160A"/>
<path d="M160.964 40.9713C161.686 40.9713 162.272 40.3455 162.272 39.5736C162.272 38.8016 161.686 38.1758 160.964 38.1758C160.242 38.1758 159.656 38.8016 159.656 39.5736C159.656 40.3455 160.242 40.9713 160.964 40.9713Z" fill="#00160A"/>
<path d="M176.722 40.9713C177.444 40.9713 178.03 40.3455 178.03 39.5736C178.03 38.8016 177.444 38.1758 176.722 38.1758C176 38.1758 175.414 38.8016 175.414 39.5736C175.414 40.3455 176 40.9713 176.722 40.9713Z" fill="#00160A"/>
<path d="M1.30773 40.9713C2.02997 40.9713 2.61546 40.3455 2.61546 39.5736C2.61546 38.8016 2.02997 38.1758 1.30773 38.1758C0.585491 38.1758 0 38.8016 0 39.5736C0 40.3455 0.585491 40.9713 1.30773 40.9713Z" fill="#00160A"/>
<path d="M194.834 39.5735C194.834 39.85 194.758 40.1202 194.614 40.3501C194.47 40.58 194.266 40.7591 194.027 40.8649C193.788 40.9707 193.525 40.9984 193.271 40.9445C193.018 40.8906 192.785 40.7574 192.602 40.5619C192.419 40.3665 192.294 40.1174 192.244 39.8462C192.193 39.5751 192.219 39.2941 192.318 39.0386C192.417 38.7832 192.585 38.565 192.8 38.4114C193.015 38.2578 193.268 38.1758 193.526 38.1758C193.873 38.1758 194.206 38.323 194.451 38.5852C194.696 38.8473 194.834 39.2028 194.834 39.5735Z" fill="#00160A"/>
<path d="M18.3733 39.5735C18.3733 39.85 18.2966 40.1202 18.1529 40.3501C18.0092 40.58 17.805 40.7591 17.566 40.8649C17.327 40.9707 17.0641 40.9984 16.8104 40.9445C16.5567 40.8906 16.3237 40.7574 16.1408 40.5619C15.9579 40.3665 15.8334 40.1174 15.7829 39.8462C15.7325 39.5751 15.7584 39.2941 15.8574 39.0386C15.9563 38.7832 16.124 38.565 16.339 38.4114C16.5541 38.2578 16.8069 38.1758 17.0656 38.1758C17.4124 38.1758 17.745 38.323 17.9903 38.5852C18.2355 38.8473 18.3733 39.2028 18.3733 39.5735Z" fill="#00160A"/>
<path d="M209.284 40.9713C210.007 40.9713 210.592 40.3455 210.592 39.5736C210.592 38.8016 210.007 38.1758 209.284 38.1758C208.562 38.1758 207.977 38.8016 207.977 39.5736C207.977 40.3455 208.562 40.9713 209.284 40.9713Z" fill="#00160A"/>
<path d="M32.8155 40.9713C33.5378 40.9713 34.1233 40.3455 34.1233 39.5736C34.1233 38.8016 33.5378 38.1758 32.8155 38.1758C32.0933 38.1758 31.5078 38.8016 31.5078 39.5736C31.5078 40.3455 32.0933 40.9713 32.8155 40.9713Z" fill="#00160A"/>
<path d="M225.042 40.9713C225.764 40.9713 226.35 40.3455 226.35 39.5736C226.35 38.8016 225.764 38.1758 225.042 38.1758C224.32 38.1758 223.734 38.8016 223.734 39.5736C223.734 40.3455 224.32 40.9713 225.042 40.9713Z" fill="#00160A"/>
<path d="M49.628 40.9713C50.3503 40.9713 50.9358 40.3455 50.9358 39.5736C50.9358 38.8016 50.3503 38.1758 49.628 38.1758C48.9058 38.1758 48.3203 38.8016 48.3203 39.5736C48.3203 40.3455 48.9058 40.9713 49.628 40.9713Z" fill="#00160A"/>
<path d="M240.8 40.9713C241.522 40.9713 242.108 40.3455 242.108 39.5736C242.108 38.8016 241.522 38.1758 240.8 38.1758C240.078 38.1758 239.492 38.8016 239.492 39.5736C239.492 40.3455 240.078 40.9713 240.8 40.9713Z" fill="#00160A"/>
<path d="M65.378 40.9713C66.1003 40.9713 66.6858 40.3455 66.6858 39.5736C66.6858 38.8016 66.1003 38.1758 65.378 38.1758C64.6558 38.1758 64.0703 38.8016 64.0703 39.5736C64.0703 40.3455 64.6558 40.9713 65.378 40.9713Z" fill="#00160A"/>
<path d="M257.605 40.9713C258.327 40.9713 258.912 40.3455 258.912 39.5736C258.912 38.8016 258.327 38.1758 257.605 38.1758C256.882 38.1758 256.297 38.8016 256.297 39.5736C256.297 40.3455 256.882 40.9713 257.605 40.9713Z" fill="#00160A"/>
<path d="M81.1359 40.9713C81.8581 40.9713 82.4436 40.3455 82.4436 39.5736C82.4436 38.8016 81.8581 38.1758 81.1359 38.1758C80.4136 38.1758 79.8281 38.8016 79.8281 39.5736C79.8281 40.3455 80.4136 40.9713 81.1359 40.9713Z" fill="#00160A"/>
<path d="M273.355 40.9713C274.077 40.9713 274.662 40.3455 274.662 39.5736C274.662 38.8016 274.077 38.1758 273.355 38.1758C272.632 38.1758 272.047 38.8016 272.047 39.5736C272.047 40.3455 272.632 40.9713 273.355 40.9713Z" fill="#00160A"/>
<path d="M96.8937 40.9713C97.6159 40.9713 98.2014 40.3455 98.2014 39.5736C98.2014 38.8016 97.6159 38.1758 96.8937 38.1758C96.1714 38.1758 95.5859 38.8016 95.5859 39.5736C95.5859 40.3455 96.1714 40.9713 96.8937 40.9713Z" fill="#00160A"/>
<path d="M289.112 40.9713C289.835 40.9713 290.42 40.3455 290.42 39.5736C290.42 38.8016 289.835 38.1758 289.112 38.1758C288.39 38.1758 287.805 38.8016 287.805 39.5736C287.805 40.3455 288.39 40.9713 289.112 40.9713Z" fill="#00160A"/>
<path d="M113.698 40.9713C114.421 40.9713 115.006 40.3455 115.006 39.5736C115.006 38.8016 114.421 38.1758 113.698 38.1758C112.976 38.1758 112.391 38.8016 112.391 39.5736C112.391 40.3455 112.976 40.9713 113.698 40.9713Z" fill="#00160A"/>
<path d="M129.456 60.0573C130.178 60.0573 130.764 59.4315 130.764 58.6595C130.764 57.8875 130.178 57.2617 129.456 57.2617C128.734 57.2617 128.148 57.8875 128.148 58.6595C128.148 59.4315 128.734 60.0573 129.456 60.0573Z" fill="#00160A"/>
<path d="M145.214 60.0573C145.936 60.0573 146.522 59.4315 146.522 58.6595C146.522 57.8875 145.936 57.2617 145.214 57.2617C144.492 57.2617 143.906 57.8875 143.906 58.6595C143.906 59.4315 144.492 60.0573 145.214 60.0573Z" fill="#00160A"/>
<path d="M160.964 60.0573C161.686 60.0573 162.272 59.4315 162.272 58.6595C162.272 57.8875 161.686 57.2617 160.964 57.2617C160.242 57.2617 159.656 57.8875 159.656 58.6595C159.656 59.4315 160.242 60.0573 160.964 60.0573Z" fill="#00160A"/>
<path d="M176.722 60.0573C177.444 60.0573 178.03 59.4315 178.03 58.6595C178.03 57.8875 177.444 57.2617 176.722 57.2617C176 57.2617 175.414 57.8875 175.414 58.6595C175.414 59.4315 176 60.0573 176.722 60.0573Z" fill="#00160A"/>
<path d="M1.30773 60.0573C2.02997 60.0573 2.61546 59.4315 2.61546 58.6595C2.61546 57.8875 2.02997 57.2617 1.30773 57.2617C0.585491 57.2617 0 57.8875 0 58.6595C0 59.4315 0.585491 60.0573 1.30773 60.0573Z" fill="#00160A"/>
<path d="M194.834 58.6595C194.834 58.9359 194.758 59.2062 194.614 59.436C194.47 59.6659 194.266 59.8451 194.027 59.9509C193.788 60.0567 193.525 60.0844 193.271 60.0304C193.018 59.9765 192.785 59.8434 192.602 59.6479C192.419 59.4524 192.294 59.2033 192.244 58.9322C192.193 58.661 192.219 58.38 192.318 58.1246C192.417 57.8692 192.585 57.6509 192.8 57.4973C193.015 57.3437 193.268 57.2617 193.526 57.2617C193.873 57.2617 194.206 57.409 194.451 57.6711C194.696 57.9333 194.834 58.2888 194.834 58.6595Z" fill="#00160A"/>
<path d="M18.3733 58.6595C18.3733 58.9359 18.2966 59.2062 18.1529 59.436C18.0092 59.6659 17.805 59.8451 17.566 59.9509C17.327 60.0567 17.0641 60.0844 16.8104 60.0304C16.5567 59.9765 16.3237 59.8434 16.1408 59.6479C15.9579 59.4524 15.8334 59.2033 15.7829 58.9322C15.7325 58.661 15.7584 58.38 15.8574 58.1246C15.9563 57.8692 16.124 57.6509 16.339 57.4973C16.5541 57.3437 16.8069 57.2617 17.0656 57.2617C17.4124 57.2617 17.745 57.409 17.9903 57.6711C18.2355 57.9333 18.3733 58.2888 18.3733 58.6595Z" fill="#00160A"/>
<path d="M209.284 60.0573C210.007 60.0573 210.592 59.4315 210.592 58.6595C210.592 57.8875 210.007 57.2617 209.284 57.2617C208.562 57.2617 207.977 57.8875 207.977 58.6595C207.977 59.4315 208.562 60.0573 209.284 60.0573Z" fill="#00160A"/>
<path d="M32.8155 60.0573C33.5378 60.0573 34.1233 59.4315 34.1233 58.6595C34.1233 57.8875 33.5378 57.2617 32.8155 57.2617C32.0933 57.2617 31.5078 57.8875 31.5078 58.6595C31.5078 59.4315 32.0933 60.0573 32.8155 60.0573Z" fill="#00160A"/>
<path d="M225.042 60.0573C225.764 60.0573 226.35 59.4315 226.35 58.6595C226.35 57.8875 225.764 57.2617 225.042 57.2617C224.32 57.2617 223.734 57.8875 223.734 58.6595C223.734 59.4315 224.32 60.0573 225.042 60.0573Z" fill="#00160A"/>
<path d="M49.628 60.0573C50.3503 60.0573 50.9358 59.4315 50.9358 58.6595C50.9358 57.8875 50.3503 57.2617 49.628 57.2617C48.9058 57.2617 48.3203 57.8875 48.3203 58.6595C48.3203 59.4315 48.9058 60.0573 49.628 60.0573Z" fill="#00160A"/>
<path d="M240.8 60.0573C241.522 60.0573 242.108 59.4315 242.108 58.6595C242.108 57.8875 241.522 57.2617 240.8 57.2617C240.078 57.2617 239.492 57.8875 239.492 58.6595C239.492 59.4315 240.078 60.0573 240.8 60.0573Z" fill="#00160A"/>
<path d="M65.378 60.0573C66.1003 60.0573 66.6858 59.4315 66.6858 58.6595C66.6858 57.8875 66.1003 57.2617 65.378 57.2617C64.6558 57.2617 64.0703 57.8875 64.0703 58.6595C64.0703 59.4315 64.6558 60.0573 65.378 60.0573Z" fill="#00160A"/>
<path d="M257.605 60.0573C258.327 60.0573 258.912 59.4315 258.912 58.6595C258.912 57.8875 258.327 57.2617 257.605 57.2617C256.882 57.2617 256.297 57.8875 256.297 58.6595C256.297 59.4315 256.882 60.0573 257.605 60.0573Z" fill="#00160A"/>
<path d="M81.1359 60.0573C81.8581 60.0573 82.4436 59.4315 82.4436 58.6595C82.4436 57.8875 81.8581 57.2617 81.1359 57.2617C80.4136 57.2617 79.8281 57.8875 79.8281 58.6595C79.8281 59.4315 80.4136 60.0573 81.1359 60.0573Z" fill="#00160A"/>
<path d="M273.355 60.0573C274.077 60.0573 274.662 59.4315 274.662 58.6595C274.662 57.8875 274.077 57.2617 273.355 57.2617C272.632 57.2617 272.047 57.8875 272.047 58.6595C272.047 59.4315 272.632 60.0573 273.355 60.0573Z" fill="#00160A"/>
<path d="M96.8937 60.0573C97.6159 60.0573 98.2014 59.4315 98.2014 58.6595C98.2014 57.8875 97.6159 57.2617 96.8937 57.2617C96.1714 57.2617 95.5859 57.8875 95.5859 58.6595C95.5859 59.4315 96.1714 60.0573 96.8937 60.0573Z" fill="#00160A"/>
<path d="M289.112 60.0573C289.835 60.0573 290.42 59.4315 290.42 58.6595C290.42 57.8875 289.835 57.2617 289.112 57.2617C288.39 57.2617 287.805 57.8875 287.805 58.6595C287.805 59.4315 288.39 60.0573 289.112 60.0573Z" fill="#00160A"/>
<path d="M113.698 60.0573C114.421 60.0573 115.006 59.4315 115.006 58.6595C115.006 57.8875 114.421 57.2617 113.698 57.2617C112.976 57.2617 112.391 57.8875 112.391 58.6595C112.391 59.4315 112.976 60.0573 113.698 60.0573Z" fill="#00160A"/>
<path d="M129.456 79.1393C130.178 79.1393 130.764 78.5135 130.764 77.7415C130.764 76.9696 130.178 76.3438 129.456 76.3438C128.734 76.3438 128.148 76.9696 128.148 77.7415C128.148 78.5135 128.734 79.1393 129.456 79.1393Z" fill="#00160A"/>
<path d="M145.214 79.1393C145.936 79.1393 146.522 78.5135 146.522 77.7415C146.522 76.9696 145.936 76.3438 145.214 76.3438C144.492 76.3438 143.906 76.9696 143.906 77.7415C143.906 78.5135 144.492 79.1393 145.214 79.1393Z" fill="#00160A"/>
<path d="M160.964 79.1393C161.686 79.1393 162.272 78.5135 162.272 77.7415C162.272 76.9696 161.686 76.3438 160.964 76.3438C160.242 76.3438 159.656 76.9696 159.656 77.7415C159.656 78.5135 160.242 79.1393 160.964 79.1393Z" fill="#00160A"/>
<path d="M176.722 79.1393C177.444 79.1393 178.03 78.5135 178.03 77.7415C178.03 76.9696 177.444 76.3438 176.722 76.3438C176 76.3438 175.414 76.9696 175.414 77.7415C175.414 78.5135 176 79.1393 176.722 79.1393Z" fill="#00160A"/>
<path d="M1.30773 79.1393C2.02997 79.1393 2.61546 78.5135 2.61546 77.7415C2.61546 76.9696 2.02997 76.3438 1.30773 76.3438C0.585491 76.3438 0 76.9696 0 77.7415C0 78.5135 0.585491 79.1393 1.30773 79.1393Z" fill="#00160A"/>
<path d="M194.834 77.7415C194.834 78.018 194.758 78.2882 194.614 78.5181C194.47 78.7479 194.266 78.9271 194.027 79.0329C193.788 79.1387 193.525 79.1664 193.271 79.1125C193.018 79.0585 192.785 78.9254 192.602 78.7299C192.419 78.5344 192.294 78.2854 192.244 78.0142C192.193 77.7431 192.219 77.462 192.318 77.2066C192.417 76.9512 192.585 76.7329 192.8 76.5793C193.015 76.4257 193.268 76.3438 193.526 76.3438C193.873 76.3438 194.206 76.491 194.451 76.7532C194.696 77.0153 194.834 77.3708 194.834 77.7415Z" fill="#00160A"/>
<path d="M18.3733 77.7415C18.3733 78.018 18.2966 78.2882 18.1529 78.5181C18.0092 78.7479 17.805 78.9271 17.566 79.0329C17.327 79.1387 17.0641 79.1664 16.8104 79.1125C16.5567 79.0585 16.3237 78.9254 16.1408 78.7299C15.9579 78.5344 15.8334 78.2854 15.7829 78.0142C15.7325 77.7431 15.7584 77.462 15.8574 77.2066C15.9563 76.9512 16.124 76.7329 16.339 76.5793C16.5541 76.4257 16.8069 76.3438 17.0656 76.3438C17.4124 76.3438 17.745 76.491 17.9903 76.7532C18.2355 77.0153 18.3733 77.3708 18.3733 77.7415Z" fill="#00160A"/>
<path d="M209.284 79.1393C210.007 79.1393 210.592 78.5135 210.592 77.7415C210.592 76.9696 210.007 76.3438 209.284 76.3438C208.562 76.3438 207.977 76.9696 207.977 77.7415C207.977 78.5135 208.562 79.1393 209.284 79.1393Z" fill="#00160A"/>
<path d="M32.8155 79.1393C33.5378 79.1393 34.1233 78.5135 34.1233 77.7415C34.1233 76.9696 33.5378 76.3438 32.8155 76.3438C32.0933 76.3438 31.5078 76.9696 31.5078 77.7415C31.5078 78.5135 32.0933 79.1393 32.8155 79.1393Z" fill="#00160A"/>
<path d="M225.042 79.1393C225.764 79.1393 226.35 78.5135 226.35 77.7415C226.35 76.9696 225.764 76.3438 225.042 76.3438C224.32 76.3438 223.734 76.9696 223.734 77.7415C223.734 78.5135 224.32 79.1393 225.042 79.1393Z" fill="#00160A"/>
<path d="M49.628 79.1393C50.3503 79.1393 50.9358 78.5135 50.9358 77.7415C50.9358 76.9696 50.3503 76.3438 49.628 76.3438C48.9058 76.3438 48.3203 76.9696 48.3203 77.7415C48.3203 78.5135 48.9058 79.1393 49.628 79.1393Z" fill="#00160A"/>
<path d="M240.8 79.1393C241.522 79.1393 242.108 78.5135 242.108 77.7415C242.108 76.9696 241.522 76.3438 240.8 76.3438C240.078 76.3438 239.492 76.9696 239.492 77.7415C239.492 78.5135 240.078 79.1393 240.8 79.1393Z" fill="#00160A"/>
<path d="M65.378 79.1393C66.1003 79.1393 66.6858 78.5135 66.6858 77.7415C66.6858 76.9696 66.1003 76.3438 65.378 76.3438C64.6558 76.3438 64.0703 76.9696 64.0703 77.7415C64.0703 78.5135 64.6558 79.1393 65.378 79.1393Z" fill="#00160A"/>
<path d="M257.605 79.1393C258.327 79.1393 258.912 78.5135 258.912 77.7415C258.912 76.9696 258.327 76.3438 257.605 76.3438C256.882 76.3438 256.297 76.9696 256.297 77.7415C256.297 78.5135 256.882 79.1393 257.605 79.1393Z" fill="#00160A"/>
<path d="M81.1359 79.1393C81.8581 79.1393 82.4436 78.5135 82.4436 77.7415C82.4436 76.9696 81.8581 76.3438 81.1359 76.3438C80.4136 76.3438 79.8281 76.9696 79.8281 77.7415C79.8281 78.5135 80.4136 79.1393 81.1359 79.1393Z" fill="#00160A"/>
<path d="M273.355 79.1393C274.077 79.1393 274.662 78.5135 274.662 77.7415C274.662 76.9696 274.077 76.3438 273.355 76.3438C272.632 76.3438 272.047 76.9696 272.047 77.7415C272.047 78.5135 272.632 79.1393 273.355 79.1393Z" fill="#00160A"/>
<path d="M96.8937 79.1393C97.6159 79.1393 98.2014 78.5135 98.2014 77.7415C98.2014 76.9696 97.6159 76.3438 96.8937 76.3438C96.1714 76.3438 95.5859 76.9696 95.5859 77.7415C95.5859 78.5135 96.1714 79.1393 96.8937 79.1393Z" fill="#00160A"/>
<path d="M289.112 79.1393C289.835 79.1393 290.42 78.5135 290.42 77.7415C290.42 76.9696 289.835 76.3438 289.112 76.3438C288.39 76.3438 287.805 76.9696 287.805 77.7415C287.805 78.5135 288.39 79.1393 289.112 79.1393Z" fill="#00160A"/>
<path d="M113.698 79.1393C114.421 79.1393 115.006 78.5135 115.006 77.7415C115.006 76.9696 114.421 76.3438 113.698 76.3438C112.976 76.3438 112.391 76.9696 112.391 77.7415C112.391 78.5135 112.976 79.1393 113.698 79.1393Z" fill="#00160A"/>
<path d="M129.456 98.2291C130.178 98.2291 130.764 97.6033 130.764 96.8314C130.764 96.0594 130.178 95.4336 129.456 95.4336C128.734 95.4336 128.148 96.0594 128.148 96.8314C128.148 97.6033 128.734 98.2291 129.456 98.2291Z" fill="#00160A"/>
<path d="M145.214 98.2291C145.936 98.2291 146.522 97.6033 146.522 96.8314C146.522 96.0594 145.936 95.4336 145.214 95.4336C144.492 95.4336 143.906 96.0594 143.906 96.8314C143.906 97.6033 144.492 98.2291 145.214 98.2291Z" fill="#00160A"/>
<path d="M160.964 98.2291C161.686 98.2291 162.272 97.6033 162.272 96.8314C162.272 96.0594 161.686 95.4336 160.964 95.4336C160.242 95.4336 159.656 96.0594 159.656 96.8314C159.656 97.6033 160.242 98.2291 160.964 98.2291Z" fill="#00160A"/>
<path d="M176.722 98.2291C177.444 98.2291 178.03 97.6033 178.03 96.8314C178.03 96.0594 177.444 95.4336 176.722 95.4336C176 95.4336 175.414 96.0594 175.414 96.8314C175.414 97.6033 176 98.2291 176.722 98.2291Z" fill="#00160A"/>
<path d="M1.30773 98.2291C2.02997 98.2291 2.61546 97.6033 2.61546 96.8314C2.61546 96.0594 2.02997 95.4336 1.30773 95.4336C0.585491 95.4336 0 96.0594 0 96.8314C0 97.6033 0.585491 98.2291 1.30773 98.2291Z" fill="#00160A"/>
<path d="M194.834 96.8314C194.834 97.1078 194.758 97.3781 194.614 97.6079C194.47 97.8378 194.266 98.0169 194.027 98.1227C193.788 98.2285 193.525 98.2562 193.271 98.2023C193.018 98.1484 192.785 98.0152 192.602 97.8198C192.419 97.6243 192.294 97.3752 192.244 97.1041C192.193 96.8329 192.219 96.5519 192.318 96.2965C192.417 96.041 192.585 95.8228 192.8 95.6692C193.015 95.5156 193.268 95.4336 193.526 95.4336C193.873 95.4336 194.206 95.5809 194.451 95.843C194.696 96.1051 194.834 96.4606 194.834 96.8314Z" fill="#00160A"/>
<path d="M18.3733 96.8314C18.3733 97.1078 18.2966 97.3781 18.1529 97.6079C18.0092 97.8378 17.805 98.0169 17.566 98.1227C17.327 98.2285 17.0641 98.2562 16.8104 98.2023C16.5567 98.1484 16.3237 98.0152 16.1408 97.8198C15.9579 97.6243 15.8334 97.3752 15.7829 97.1041C15.7325 96.8329 15.7584 96.5519 15.8574 96.2965C15.9563 96.041 16.124 95.8228 16.339 95.6692C16.5541 95.5156 16.8069 95.4336 17.0656 95.4336C17.4124 95.4336 17.745 95.5809 17.9903 95.843C18.2355 96.1051 18.3733 96.4606 18.3733 96.8314Z" fill="#00160A"/>
<path d="M209.284 98.2291C210.007 98.2291 210.592 97.6033 210.592 96.8314C210.592 96.0594 210.007 95.4336 209.284 95.4336C208.562 95.4336 207.977 96.0594 207.977 96.8314C207.977 97.6033 208.562 98.2291 209.284 98.2291Z" fill="#00160A"/>
<path d="M32.8155 98.2291C33.5378 98.2291 34.1233 97.6033 34.1233 96.8314C34.1233 96.0594 33.5378 95.4336 32.8155 95.4336C32.0933 95.4336 31.5078 96.0594 31.5078 96.8314C31.5078 97.6033 32.0933 98.2291 32.8155 98.2291Z" fill="#00160A"/>
<path d="M225.042 98.2291C225.764 98.2291 226.35 97.6033 226.35 96.8314C226.35 96.0594 225.764 95.4336 225.042 95.4336C224.32 95.4336 223.734 96.0594 223.734 96.8314C223.734 97.6033 224.32 98.2291 225.042 98.2291Z" fill="#00160A"/>
<path d="M49.628 98.2291C50.3503 98.2291 50.9358 97.6033 50.9358 96.8314C50.9358 96.0594 50.3503 95.4336 49.628 95.4336C48.9058 95.4336 48.3203 96.0594 48.3203 96.8314C48.3203 97.6033 48.9058 98.2291 49.628 98.2291Z" fill="#00160A"/>
<path d="M240.8 98.2291C241.522 98.2291 242.108 97.6033 242.108 96.8314C242.108 96.0594 241.522 95.4336 240.8 95.4336C240.078 95.4336 239.492 96.0594 239.492 96.8314C239.492 97.6033 240.078 98.2291 240.8 98.2291Z" fill="#00160A"/>
<path d="M65.378 98.2291C66.1003 98.2291 66.6858 97.6033 66.6858 96.8314C66.6858 96.0594 66.1003 95.4336 65.378 95.4336C64.6558 95.4336 64.0703 96.0594 64.0703 96.8314C64.0703 97.6033 64.6558 98.2291 65.378 98.2291Z" fill="#00160A"/>
<path d="M257.605 98.2291C258.327 98.2291 258.912 97.6033 258.912 96.8314C258.912 96.0594 258.327 95.4336 257.605 95.4336C256.882 95.4336 256.297 96.0594 256.297 96.8314C256.297 97.6033 256.882 98.2291 257.605 98.2291Z" fill="#00160A"/>
<path d="M81.1359 98.2291C81.8581 98.2291 82.4436 97.6033 82.4436 96.8314C82.4436 96.0594 81.8581 95.4336 81.1359 95.4336C80.4136 95.4336 79.8281 96.0594 79.8281 96.8314C79.8281 97.6033 80.4136 98.2291 81.1359 98.2291Z" fill="#00160A"/>
<path d="M273.355 98.2291C274.077 98.2291 274.662 97.6033 274.662 96.8314C274.662 96.0594 274.077 95.4336 273.355 95.4336C272.632 95.4336 272.047 96.0594 272.047 96.8314C272.047 97.6033 272.632 98.2291 273.355 98.2291Z" fill="#00160A"/>
<path d="M96.8937 98.2291C97.6159 98.2291 98.2014 97.6033 98.2014 96.8314C98.2014 96.0594 97.6159 95.4336 96.8937 95.4336C96.1714 95.4336 95.5859 96.0594 95.5859 96.8314C95.5859 97.6033 96.1714 98.2291 96.8937 98.2291Z" fill="#00160A"/>
<path d="M289.112 98.2291C289.835 98.2291 290.42 97.6033 290.42 96.8314C290.42 96.0594 289.835 95.4336 289.112 95.4336C288.39 95.4336 287.805 96.0594 287.805 96.8314C287.805 97.6033 288.39 98.2291 289.112 98.2291Z" fill="#00160A"/>
<path d="M113.698 98.2291C114.421 98.2291 115.006 97.6033 115.006 96.8314C115.006 96.0594 114.421 95.4336 113.698 95.4336C112.976 95.4336 112.391 96.0594 112.391 96.8314C112.391 97.6033 112.976 98.2291 113.698 98.2291Z" fill="#00160A"/>
<path d="M129.456 117.311C130.178 117.311 130.764 116.685 130.764 115.913C130.764 115.141 130.178 114.516 129.456 114.516C128.734 114.516 128.148 115.141 128.148 115.913C128.148 116.685 128.734 117.311 129.456 117.311Z" fill="#00160A"/>
<path d="M145.214 117.311C145.936 117.311 146.522 116.685 146.522 115.913C146.522 115.141 145.936 114.516 145.214 114.516C144.492 114.516 143.906 115.141 143.906 115.913C143.906 116.685 144.492 117.311 145.214 117.311Z" fill="#00160A"/>
<path d="M160.964 117.311C161.686 117.311 162.272 116.685 162.272 115.913C162.272 115.141 161.686 114.516 160.964 114.516C160.242 114.516 159.656 115.141 159.656 115.913C159.656 116.685 160.242 117.311 160.964 117.311Z" fill="#00160A"/>
<path d="M176.722 117.311C177.444 117.311 178.03 116.685 178.03 115.913C178.03 115.141 177.444 114.516 176.722 114.516C176 114.516 175.414 115.141 175.414 115.913C175.414 116.685 176 117.311 176.722 117.311Z" fill="#00160A"/>
<path d="M1.30773 117.311C2.02997 117.311 2.61546 116.685 2.61546 115.913C2.61546 115.141 2.02997 114.516 1.30773 114.516C0.585491 114.516 0 115.141 0 115.913C0 116.685 0.585491 117.311 1.30773 117.311Z" fill="#00160A"/>
<path d="M194.834 115.913C194.834 116.19 194.758 116.46 194.614 116.69C194.47 116.92 194.266 117.099 194.027 117.205C193.788 117.311 193.525 117.338 193.271 117.284C193.018 117.23 192.785 117.097 192.602 116.902C192.419 116.706 192.294 116.457 192.244 116.186C192.193 115.915 192.219 115.634 192.318 115.378C192.417 115.123 192.585 114.905 192.8 114.751C193.015 114.598 193.268 114.516 193.526 114.516C193.873 114.516 194.206 114.663 194.451 114.925C194.696 115.187 194.834 115.543 194.834 115.913Z" fill="#00160A"/>
<path d="M18.3733 115.913C18.3733 116.19 18.2966 116.46 18.1529 116.69C18.0092 116.92 17.805 117.099 17.566 117.205C17.327 117.311 17.0641 117.338 16.8104 117.284C16.5567 117.23 16.3237 117.097 16.1408 116.902C15.9579 116.706 15.8334 116.457 15.7829 116.186C15.7325 115.915 15.7584 115.634 15.8574 115.378C15.9563 115.123 16.124 114.905 16.339 114.751C16.5541 114.598 16.8069 114.516 17.0656 114.516C17.4124 114.516 17.745 114.663 17.9903 114.925C18.2355 115.187 18.3733 115.543 18.3733 115.913Z" fill="#00160A"/>
<path d="M209.284 117.311C210.007 117.311 210.592 116.685 210.592 115.913C210.592 115.141 210.007 114.516 209.284 114.516C208.562 114.516 207.977 115.141 207.977 115.913C207.977 116.685 208.562 117.311 209.284 117.311Z" fill="#00160A"/>
<path d="M32.8155 117.311C33.5378 117.311 34.1233 116.685 34.1233 115.913C34.1233 115.141 33.5378 114.516 32.8155 114.516C32.0933 114.516 31.5078 115.141 31.5078 115.913C31.5078 116.685 32.0933 117.311 32.8155 117.311Z" fill="#00160A"/>
<path d="M225.042 117.311C225.764 117.311 226.35 116.685 226.35 115.913C226.35 115.141 225.764 114.516 225.042 114.516C224.32 114.516 223.734 115.141 223.734 115.913C223.734 116.685 224.32 117.311 225.042 117.311Z" fill="#00160A"/>
<path d="M49.628 117.311C50.3503 117.311 50.9358 116.685 50.9358 115.913C50.9358 115.141 50.3503 114.516 49.628 114.516C48.9058 114.516 48.3203 115.141 48.3203 115.913C48.3203 116.685 48.9058 117.311 49.628 117.311Z" fill="#00160A"/>
<path d="M240.8 117.311C241.522 117.311 242.108 116.685 242.108 115.913C242.108 115.141 241.522 114.516 240.8 114.516C240.078 114.516 239.492 115.141 239.492 115.913C239.492 116.685 240.078 117.311 240.8 117.311Z" fill="#00160A"/>
<path d="M65.378 117.311C66.1003 117.311 66.6858 116.685 66.6858 115.913C66.6858 115.141 66.1003 114.516 65.378 114.516C64.6558 114.516 64.0703 115.141 64.0703 115.913C64.0703 116.685 64.6558 117.311 65.378 117.311Z" fill="#00160A"/>
<path d="M257.605 117.311C258.327 117.311 258.912 116.685 258.912 115.913C258.912 115.141 258.327 114.516 257.605 114.516C256.882 114.516 256.297 115.141 256.297 115.913C256.297 116.685 256.882 117.311 257.605 117.311Z" fill="#00160A"/>
<path d="M81.1359 117.311C81.8581 117.311 82.4436 116.685 82.4436 115.913C82.4436 115.141 81.8581 114.516 81.1359 114.516C80.4136 114.516 79.8281 115.141 79.8281 115.913C79.8281 116.685 80.4136 117.311 81.1359 117.311Z" fill="#00160A"/>
<path d="M273.355 117.311C274.077 117.311 274.662 116.685 274.662 115.913C274.662 115.141 274.077 114.516 273.355 114.516C272.632 114.516 272.047 115.141 272.047 115.913C272.047 116.685 272.632 117.311 273.355 117.311Z" fill="#00160A"/>
<path d="M96.8937 117.311C97.6159 117.311 98.2014 116.685 98.2014 115.913C98.2014 115.141 97.6159 114.516 96.8937 114.516C96.1714 114.516 95.5859 115.141 95.5859 115.913C95.5859 116.685 96.1714 117.311 96.8937 117.311Z" fill="#00160A"/>
<path d="M289.112 117.311C289.835 117.311 290.42 116.685 290.42 115.913C290.42 115.141 289.835 114.516 289.112 114.516C288.39 114.516 287.805 115.141 287.805 115.913C287.805 116.685 288.39 117.311 289.112 117.311Z" fill="#00160A"/>
<path d="M113.698 117.311C114.421 117.311 115.006 116.685 115.006 115.913C115.006 115.141 114.421 114.516 113.698 114.516C112.976 114.516 112.391 115.141 112.391 115.913C112.391 116.685 112.976 117.311 113.698 117.311Z" fill="#00160A"/>
<path d="M129.456 136.397C130.178 136.397 130.764 135.771 130.764 134.999C130.764 134.227 130.178 133.602 129.456 133.602C128.734 133.602 128.148 134.227 128.148 134.999C128.148 135.771 128.734 136.397 129.456 136.397Z" fill="#00160A"/>
<path d="M145.214 136.397C145.936 136.397 146.522 135.771 146.522 134.999C146.522 134.227 145.936 133.602 145.214 133.602C144.492 133.602 143.906 134.227 143.906 134.999C143.906 135.771 144.492 136.397 145.214 136.397Z" fill="#00160A"/>
<path d="M160.964 136.397C161.686 136.397 162.272 135.771 162.272 134.999C162.272 134.227 161.686 133.602 160.964 133.602C160.242 133.602 159.656 134.227 159.656 134.999C159.656 135.771 160.242 136.397 160.964 136.397Z" fill="#00160A"/>
<path d="M176.722 136.397C177.444 136.397 178.03 135.771 178.03 134.999C178.03 134.227 177.444 133.602 176.722 133.602C176 133.602 175.414 134.227 175.414 134.999C175.414 135.771 176 136.397 176.722 136.397Z" fill="#00160A"/>
<path d="M1.30773 136.397C2.02997 136.397 2.61546 135.771 2.61546 134.999C2.61546 134.227 2.02997 133.602 1.30773 133.602C0.585491 133.602 0 134.227 0 134.999C0 135.771 0.585491 136.397 1.30773 136.397Z" fill="#00160A"/>
<path d="M194.834 134.999C194.834 135.276 194.758 135.546 194.614 135.776C194.47 136.006 194.266 136.185 194.027 136.291C193.788 136.397 193.525 136.424 193.271 136.37C193.018 136.316 192.785 136.183 192.602 135.988C192.419 135.792 192.294 135.543 192.244 135.272C192.193 135.001 192.219 134.72 192.318 134.464C192.417 134.209 192.585 133.991 192.8 133.837C193.015 133.684 193.268 133.602 193.526 133.602C193.873 133.602 194.206 133.749 194.451 134.011C194.696 134.273 194.834 134.629 194.834 134.999Z" fill="#00160A"/>
<path d="M18.3733 134.999C18.3733 135.276 18.2966 135.546 18.1529 135.776C18.0092 136.006 17.805 136.185 17.566 136.291C17.327 136.397 17.0641 136.424 16.8104 136.37C16.5567 136.316 16.3237 136.183 16.1408 135.988C15.9579 135.792 15.8334 135.543 15.7829 135.272C15.7325 135.001 15.7584 134.72 15.8574 134.464C15.9563 134.209 16.124 133.991 16.339 133.837C16.5541 133.684 16.8069 133.602 17.0656 133.602C17.4124 133.602 17.745 133.749 17.9903 134.011C18.2355 134.273 18.3733 134.629 18.3733 134.999Z" fill="#00160A"/>
<path d="M209.284 136.397C210.007 136.397 210.592 135.771 210.592 134.999C210.592 134.227 210.007 133.602 209.284 133.602C208.562 133.602 207.977 134.227 207.977 134.999C207.977 135.771 208.562 136.397 209.284 136.397Z" fill="#00160A"/>
<path d="M32.8155 136.397C33.5378 136.397 34.1233 135.771 34.1233 134.999C34.1233 134.227 33.5378 133.602 32.8155 133.602C32.0933 133.602 31.5078 134.227 31.5078 134.999C31.5078 135.771 32.0933 136.397 32.8155 136.397Z" fill="#00160A"/>
<path d="M225.042 136.397C225.764 136.397 226.35 135.771 226.35 134.999C226.35 134.227 225.764 133.602 225.042 133.602C224.32 133.602 223.734 134.227 223.734 134.999C223.734 135.771 224.32 136.397 225.042 136.397Z" fill="#00160A"/>
<path d="M49.628 136.397C50.3503 136.397 50.9358 135.771 50.9358 134.999C50.9358 134.227 50.3503 133.602 49.628 133.602C48.9058 133.602 48.3203 134.227 48.3203 134.999C48.3203 135.771 48.9058 136.397 49.628 136.397Z" fill="#00160A"/>
<path d="M240.8 136.397C241.522 136.397 242.108 135.771 242.108 134.999C242.108 134.227 241.522 133.602 240.8 133.602C240.078 133.602 239.492 134.227 239.492 134.999C239.492 135.771 240.078 136.397 240.8 136.397Z" fill="#00160A"/>
<path d="M65.378 136.397C66.1003 136.397 66.6858 135.771 66.6858 134.999C66.6858 134.227 66.1003 133.602 65.378 133.602C64.6558 133.602 64.0703 134.227 64.0703 134.999C64.0703 135.771 64.6558 136.397 65.378 136.397Z" fill="#00160A"/>
<path d="M257.605 136.397C258.327 136.397 258.912 135.771 258.912 134.999C258.912 134.227 258.327 133.602 257.605 133.602C256.882 133.602 256.297 134.227 256.297 134.999C256.297 135.771 256.882 136.397 257.605 136.397Z" fill="#00160A"/>
<path d="M81.1359 136.397C81.8581 136.397 82.4436 135.771 82.4436 134.999C82.4436 134.227 81.8581 133.602 81.1359 133.602C80.4136 133.602 79.8281 134.227 79.8281 134.999C79.8281 135.771 80.4136 136.397 81.1359 136.397Z" fill="#00160A"/>
<path d="M273.355 136.397C274.077 136.397 274.662 135.771 274.662 134.999C274.662 134.227 274.077 133.602 273.355 133.602C272.632 133.602 272.047 134.227 272.047 134.999C272.047 135.771 272.632 136.397 273.355 136.397Z" fill="#00160A"/>
<path d="M96.8937 136.397C97.6159 136.397 98.2014 135.771 98.2014 134.999C98.2014 134.227 97.6159 133.602 96.8937 133.602C96.1714 133.602 95.5859 134.227 95.5859 134.999C95.5859 135.771 96.1714 136.397 96.8937 136.397Z" fill="#00160A"/>
<path d="M289.112 136.397C289.835 136.397 290.42 135.771 290.42 134.999C290.42 134.227 289.835 133.602 289.112 133.602C288.39 133.602 287.805 134.227 287.805 134.999C287.805 135.771 288.39 136.397 289.112 136.397Z" fill="#00160A"/>
<path d="M113.698 136.397C114.421 136.397 115.006 135.771 115.006 134.999C115.006 134.227 114.421 133.602 113.698 133.602C112.976 133.602 112.391 134.227 112.391 134.999C112.391 135.771 112.976 136.397 113.698 136.397Z" fill="#00160A"/>
<path d="M129.456 155.483C130.178 155.483 130.764 154.857 130.764 154.085C130.764 153.313 130.178 152.688 129.456 152.688C128.734 152.688 128.148 153.313 128.148 154.085C128.148 154.857 128.734 155.483 129.456 155.483Z" fill="#00160A"/>
<path d="M145.214 155.483C145.936 155.483 146.522 154.857 146.522 154.085C146.522 153.313 145.936 152.688 145.214 152.688C144.492 152.688 143.906 153.313 143.906 154.085C143.906 154.857 144.492 155.483 145.214 155.483Z" fill="#00160A"/>
<path d="M160.964 155.483C161.686 155.483 162.272 154.857 162.272 154.085C162.272 153.313 161.686 152.688 160.964 152.688C160.242 152.688 159.656 153.313 159.656 154.085C159.656 154.857 160.242 155.483 160.964 155.483Z" fill="#00160A"/>
<path d="M176.722 155.483C177.444 155.483 178.03 154.857 178.03 154.085C178.03 153.313 177.444 152.688 176.722 152.688C176 152.688 175.414 153.313 175.414 154.085C175.414 154.857 176 155.483 176.722 155.483Z" fill="#00160A"/>
<path d="M1.30773 155.483C2.02997 155.483 2.61546 154.857 2.61546 154.085C2.61546 153.313 2.02997 152.688 1.30773 152.688C0.585491 152.688 0 153.313 0 154.085C0 154.857 0.585491 155.483 1.30773 155.483Z" fill="#00160A"/>
<path d="M194.834 154.085C194.834 154.362 194.758 154.632 194.614 154.862C194.47 155.092 194.266 155.271 194.027 155.377C193.788 155.482 193.525 155.51 193.271 155.456C193.018 155.402 192.785 155.269 192.602 155.074C192.419 154.878 192.294 154.629 192.244 154.358C192.193 154.087 192.219 153.806 192.318 153.55C192.417 153.295 192.585 153.077 192.8 152.923C193.015 152.769 193.268 152.688 193.526 152.688C193.873 152.688 194.206 152.835 194.451 153.097C194.696 153.359 194.834 153.715 194.834 154.085Z" fill="#00160A"/>
<path d="M18.3733 154.085C18.3733 154.362 18.2966 154.632 18.1529 154.862C18.0092 155.092 17.805 155.271 17.566 155.377C17.327 155.482 17.0641 155.51 16.8104 155.456C16.5567 155.402 16.3237 155.269 16.1408 155.074C15.9579 154.878 15.8334 154.629 15.7829 154.358C15.7325 154.087 15.7584 153.806 15.8574 153.55C15.9563 153.295 16.124 153.077 16.339 152.923C16.5541 152.769 16.8069 152.688 17.0656 152.688C17.4124 152.688 17.745 152.835 17.9903 153.097C18.2355 153.359 18.3733 153.715 18.3733 154.085Z" fill="#00160A"/>
<path d="M209.284 155.483C210.007 155.483 210.592 154.857 210.592 154.085C210.592 153.313 210.007 152.688 209.284 152.688C208.562 152.688 207.977 153.313 207.977 154.085C207.977 154.857 208.562 155.483 209.284 155.483Z" fill="#00160A"/>
<path d="M32.8155 155.483C33.5378 155.483 34.1233 154.857 34.1233 154.085C34.1233 153.313 33.5378 152.688 32.8155 152.688C32.0933 152.688 31.5078 153.313 31.5078 154.085C31.5078 154.857 32.0933 155.483 32.8155 155.483Z" fill="#00160A"/>
<path d="M225.042 155.483C225.764 155.483 226.35 154.857 226.35 154.085C226.35 153.313 225.764 152.688 225.042 152.688C224.32 152.688 223.734 153.313 223.734 154.085C223.734 154.857 224.32 155.483 225.042 155.483Z" fill="#00160A"/>
<path d="M49.628 155.483C50.3503 155.483 50.9358 154.857 50.9358 154.085C50.9358 153.313 50.3503 152.688 49.628 152.688C48.9058 152.688 48.3203 153.313 48.3203 154.085C48.3203 154.857 48.9058 155.483 49.628 155.483Z" fill="#00160A"/>
<path d="M240.8 155.483C241.522 155.483 242.108 154.857 242.108 154.085C242.108 153.313 241.522 152.688 240.8 152.688C240.078 152.688 239.492 153.313 239.492 154.085C239.492 154.857 240.078 155.483 240.8 155.483Z" fill="#00160A"/>
<path d="M65.378 155.483C66.1003 155.483 66.6858 154.857 66.6858 154.085C66.6858 153.313 66.1003 152.688 65.378 152.688C64.6558 152.688 64.0703 153.313 64.0703 154.085C64.0703 154.857 64.6558 155.483 65.378 155.483Z" fill="#00160A"/>
<path d="M257.605 155.483C258.327 155.483 258.912 154.857 258.912 154.085C258.912 153.313 258.327 152.688 257.605 152.688C256.882 152.688 256.297 153.313 256.297 154.085C256.297 154.857 256.882 155.483 257.605 155.483Z" fill="#00160A"/>
<path d="M81.1359 155.483C81.8581 155.483 82.4436 154.857 82.4436 154.085C82.4436 153.313 81.8581 152.688 81.1359 152.688C80.4136 152.688 79.8281 153.313 79.8281 154.085C79.8281 154.857 80.4136 155.483 81.1359 155.483Z" fill="#00160A"/>
<path d="M273.355 155.483C274.077 155.483 274.662 154.857 274.662 154.085C274.662 153.313 274.077 152.688 273.355 152.688C272.632 152.688 272.047 153.313 272.047 154.085C272.047 154.857 272.632 155.483 273.355 155.483Z" fill="#00160A"/>
<path d="M96.8937 155.483C97.6159 155.483 98.2014 154.857 98.2014 154.085C98.2014 153.313 97.6159 152.688 96.8937 152.688C96.1714 152.688 95.5859 153.313 95.5859 154.085C95.5859 154.857 96.1714 155.483 96.8937 155.483Z" fill="#00160A"/>
<path d="M289.112 155.483C289.835 155.483 290.42 154.857 290.42 154.085C290.42 153.313 289.835 152.688 289.112 152.688C288.39 152.688 287.805 153.313 287.805 154.085C287.805 154.857 288.39 155.483 289.112 155.483Z" fill="#00160A"/>
<path d="M113.698 155.483C114.421 155.483 115.006 154.857 115.006 154.085C115.006 153.313 114.421 152.688 113.698 152.688C112.976 152.688 112.391 153.313 112.391 154.085C112.391 154.857 112.976 155.483 113.698 155.483Z" fill="#00160A"/>
<path d="M129.456 174.569C130.178 174.569 130.764 173.943 130.764 173.171C130.764 172.399 130.178 171.773 129.456 171.773C128.734 171.773 128.148 172.399 128.148 173.171C128.148 173.943 128.734 174.569 129.456 174.569Z" fill="#00160A"/>
<path d="M145.214 174.569C145.936 174.569 146.522 173.943 146.522 173.171C146.522 172.399 145.936 171.773 145.214 171.773C144.492 171.773 143.906 172.399 143.906 173.171C143.906 173.943 144.492 174.569 145.214 174.569Z" fill="#00160A"/>
<path d="M160.964 174.569C161.686 174.569 162.272 173.943 162.272 173.171C162.272 172.399 161.686 171.773 160.964 171.773C160.242 171.773 159.656 172.399 159.656 173.171C159.656 173.943 160.242 174.569 160.964 174.569Z" fill="#00160A"/>
<path d="M176.722 174.569C177.444 174.569 178.03 173.943 178.03 173.171C178.03 172.399 177.444 171.773 176.722 171.773C176 171.773 175.414 172.399 175.414 173.171C175.414 173.943 176 174.569 176.722 174.569Z" fill="#00160A"/>
<path d="M1.30773 174.569C2.02997 174.569 2.61546 173.943 2.61546 173.171C2.61546 172.399 2.02997 171.773 1.30773 171.773C0.585491 171.773 0 172.399 0 173.171C0 173.943 0.585491 174.569 1.30773 174.569Z" fill="#00160A"/>
<path d="M194.834 173.171C194.834 173.448 194.758 173.718 194.614 173.948C194.47 174.178 194.266 174.357 194.027 174.463C193.788 174.568 193.525 174.596 193.271 174.542C193.018 174.488 192.785 174.355 192.602 174.16C192.419 173.964 192.294 173.715 192.244 173.444C192.193 173.173 192.219 172.892 192.318 172.636C192.417 172.381 192.585 172.163 192.8 172.009C193.015 171.855 193.268 171.773 193.526 171.773C193.873 171.773 194.206 171.921 194.451 172.183C194.696 172.445 194.834 172.8 194.834 173.171Z" fill="#00160A"/>
<path d="M18.3733 173.171C18.3733 173.448 18.2966 173.718 18.1529 173.948C18.0092 174.178 17.805 174.357 17.566 174.463C17.327 174.568 17.0641 174.596 16.8104 174.542C16.5567 174.488 16.3237 174.355 16.1408 174.16C15.9579 173.964 15.8334 173.715 15.7829 173.444C15.7325 173.173 15.7584 172.892 15.8574 172.636C15.9563 172.381 16.124 172.163 16.339 172.009C16.5541 171.855 16.8069 171.773 17.0656 171.773C17.4124 171.773 17.745 171.921 17.9903 172.183C18.2355 172.445 18.3733 172.8 18.3733 173.171Z" fill="#00160A"/>
<path d="M209.284 174.569C210.007 174.569 210.592 173.943 210.592 173.171C210.592 172.399 210.007 171.773 209.284 171.773C208.562 171.773 207.977 172.399 207.977 173.171C207.977 173.943 208.562 174.569 209.284 174.569Z" fill="#00160A"/>
<path d="M32.8155 174.569C33.5378 174.569 34.1233 173.943 34.1233 173.171C34.1233 172.399 33.5378 171.773 32.8155 171.773C32.0933 171.773 31.5078 172.399 31.5078 173.171C31.5078 173.943 32.0933 174.569 32.8155 174.569Z" fill="#00160A"/>
<path d="M225.042 174.569C225.764 174.569 226.35 173.943 226.35 173.171C226.35 172.399 225.764 171.773 225.042 171.773C224.32 171.773 223.734 172.399 223.734 173.171C223.734 173.943 224.32 174.569 225.042 174.569Z" fill="#00160A"/>
<path d="M49.628 174.569C50.3503 174.569 50.9358 173.943 50.9358 173.171C50.9358 172.399 50.3503 171.773 49.628 171.773C48.9058 171.773 48.3203 172.399 48.3203 173.171C48.3203 173.943 48.9058 174.569 49.628 174.569Z" fill="#00160A"/>
<path d="M240.8 174.569C241.522 174.569 242.108 173.943 242.108 173.171C242.108 172.399 241.522 171.773 240.8 171.773C240.078 171.773 239.492 172.399 239.492 173.171C239.492 173.943 240.078 174.569 240.8 174.569Z" fill="#00160A"/>
<path d="M65.378 174.569C66.1003 174.569 66.6858 173.943 66.6858 173.171C66.6858 172.399 66.1003 171.773 65.378 171.773C64.6558 171.773 64.0703 172.399 64.0703 173.171C64.0703 173.943 64.6558 174.569 65.378 174.569Z" fill="#00160A"/>
<path d="M257.605 174.569C258.327 174.569 258.912 173.943 258.912 173.171C258.912 172.399 258.327 171.773 257.605 171.773C256.882 171.773 256.297 172.399 256.297 173.171C256.297 173.943 256.882 174.569 257.605 174.569Z" fill="#00160A"/>
<path d="M81.1359 174.569C81.8581 174.569 82.4436 173.943 82.4436 173.171C82.4436 172.399 81.8581 171.773 81.1359 171.773C80.4136 171.773 79.8281 172.399 79.8281 173.171C79.8281 173.943 80.4136 174.569 81.1359 174.569Z" fill="#00160A"/>
<path d="M273.355 174.569C274.077 174.569 274.662 173.943 274.662 173.171C274.662 172.399 274.077 171.773 273.355 171.773C272.632 171.773 272.047 172.399 272.047 173.171C272.047 173.943 272.632 174.569 273.355 174.569Z" fill="#00160A"/>
<path d="M96.8937 174.569C97.6159 174.569 98.2014 173.943 98.2014 173.171C98.2014 172.399 97.6159 171.773 96.8937 171.773C96.1714 171.773 95.5859 172.399 95.5859 173.171C95.5859 173.943 96.1714 174.569 96.8937 174.569Z" fill="#00160A"/>
<path d="M289.112 174.569C289.835 174.569 290.42 173.943 290.42 173.171C290.42 172.399 289.835 171.773 289.112 171.773C288.39 171.773 287.805 172.399 287.805 173.171C287.805 173.943 288.39 174.569 289.112 174.569Z" fill="#00160A"/>
<path d="M113.698 174.569C114.421 174.569 115.006 173.943 115.006 173.171C115.006 172.399 114.421 171.773 113.698 171.773C112.976 171.773 112.391 172.399 112.391 173.171C112.391 173.943 112.976 174.569 113.698 174.569Z" fill="#00160A"/>
<path d="M129.456 193.655C130.178 193.655 130.764 193.029 130.764 192.257C130.764 191.485 130.178 190.859 129.456 190.859C128.734 190.859 128.148 191.485 128.148 192.257C128.148 193.029 128.734 193.655 129.456 193.655Z" fill="#00160A"/>
<path d="M145.214 193.655C145.936 193.655 146.522 193.029 146.522 192.257C146.522 191.485 145.936 190.859 145.214 190.859C144.492 190.859 143.906 191.485 143.906 192.257C143.906 193.029 144.492 193.655 145.214 193.655Z" fill="#00160A"/>
<path d="M160.964 193.655C161.686 193.655 162.272 193.029 162.272 192.257C162.272 191.485 161.686 190.859 160.964 190.859C160.242 190.859 159.656 191.485 159.656 192.257C159.656 193.029 160.242 193.655 160.964 193.655Z" fill="#00160A"/>
<path d="M176.722 193.655C177.444 193.655 178.03 193.029 178.03 192.257C178.03 191.485 177.444 190.859 176.722 190.859C176 190.859 175.414 191.485 175.414 192.257C175.414 193.029 176 193.655 176.722 193.655Z" fill="#00160A"/>
<path d="M1.30773 193.655C2.02997 193.655 2.61546 193.029 2.61546 192.257C2.61546 191.485 2.02997 190.859 1.30773 190.859C0.585491 190.859 0 191.485 0 192.257C0 193.029 0.585491 193.655 1.30773 193.655Z" fill="#00160A"/>
<path d="M194.834 192.257C194.834 192.534 194.758 192.804 194.614 193.034C194.47 193.264 194.266 193.443 194.027 193.549C193.788 193.654 193.525 193.682 193.271 193.628C193.018 193.574 192.785 193.441 192.602 193.246C192.419 193.05 192.294 192.801 192.244 192.53C192.193 192.259 192.219 191.978 192.318 191.722C192.417 191.467 192.585 191.249 192.8 191.095C193.015 190.941 193.268 190.859 193.526 190.859C193.873 190.859 194.206 191.007 194.451 191.269C194.696 191.531 194.834 191.886 194.834 192.257Z" fill="#00160A"/>
<path d="M18.3733 192.257C18.3733 192.534 18.2966 192.804 18.1529 193.034C18.0092 193.264 17.805 193.443 17.566 193.549C17.327 193.654 17.0641 193.682 16.8104 193.628C16.5567 193.574 16.3237 193.441 16.1408 193.246C15.9579 193.05 15.8334 192.801 15.7829 192.53C15.7325 192.259 15.7584 191.978 15.8574 191.722C15.9563 191.467 16.124 191.249 16.339 191.095C16.5541 190.941 16.8069 190.859 17.0656 190.859C17.4124 190.859 17.745 191.007 17.9903 191.269C18.2355 191.531 18.3733 191.886 18.3733 192.257Z" fill="#00160A"/>
<path d="M209.284 193.655C210.007 193.655 210.592 193.029 210.592 192.257C210.592 191.485 210.007 190.859 209.284 190.859C208.562 190.859 207.977 191.485 207.977 192.257C207.977 193.029 208.562 193.655 209.284 193.655Z" fill="#00160A"/>
<path d="M32.8155 193.655C33.5378 193.655 34.1233 193.029 34.1233 192.257C34.1233 191.485 33.5378 190.859 32.8155 190.859C32.0933 190.859 31.5078 191.485 31.5078 192.257C31.5078 193.029 32.0933 193.655 32.8155 193.655Z" fill="#00160A"/>
<path d="M225.042 193.655C225.764 193.655 226.35 193.029 226.35 192.257C226.35 191.485 225.764 190.859 225.042 190.859C224.32 190.859 223.734 191.485 223.734 192.257C223.734 193.029 224.32 193.655 225.042 193.655Z" fill="#00160A"/>
<path d="M49.628 193.655C50.3503 193.655 50.9358 193.029 50.9358 192.257C50.9358 191.485 50.3503 190.859 49.628 190.859C48.9058 190.859 48.3203 191.485 48.3203 192.257C48.3203 193.029 48.9058 193.655 49.628 193.655Z" fill="#00160A"/>
<path d="M240.8 193.655C241.522 193.655 242.108 193.029 242.108 192.257C242.108 191.485 241.522 190.859 240.8 190.859C240.078 190.859 239.492 191.485 239.492 192.257C239.492 193.029 240.078 193.655 240.8 193.655Z" fill="#00160A"/>
<path d="M65.378 193.655C66.1003 193.655 66.6858 193.029 66.6858 192.257C66.6858 191.485 66.1003 190.859 65.378 190.859C64.6558 190.859 64.0703 191.485 64.0703 192.257C64.0703 193.029 64.6558 193.655 65.378 193.655Z" fill="#00160A"/>
<path d="M257.605 193.655C258.327 193.655 258.912 193.029 258.912 192.257C258.912 191.485 258.327 190.859 257.605 190.859C256.882 190.859 256.297 191.485 256.297 192.257C256.297 193.029 256.882 193.655 257.605 193.655Z" fill="#00160A"/>
<path d="M81.1359 193.655C81.8581 193.655 82.4436 193.029 82.4436 192.257C82.4436 191.485 81.8581 190.859 81.1359 190.859C80.4136 190.859 79.8281 191.485 79.8281 192.257C79.8281 193.029 80.4136 193.655 81.1359 193.655Z" fill="#00160A"/>
<path d="M273.355 193.655C274.077 193.655 274.662 193.029 274.662 192.257C274.662 191.485 274.077 190.859 273.355 190.859C272.632 190.859 272.047 191.485 272.047 192.257C272.047 193.029 272.632 193.655 273.355 193.655Z" fill="#00160A"/>
<path d="M96.8937 193.655C97.6159 193.655 98.2014 193.029 98.2014 192.257C98.2014 191.485 97.6159 190.859 96.8937 190.859C96.1714 190.859 95.5859 191.485 95.5859 192.257C95.5859 193.029 96.1714 193.655 96.8937 193.655Z" fill="#00160A"/>
<path d="M289.112 193.655C289.835 193.655 290.42 193.029 290.42 192.257C290.42 191.485 289.835 190.859 289.112 190.859C288.39 190.859 287.805 191.485 287.805 192.257C287.805 193.029 288.39 193.655 289.112 193.655Z" fill="#00160A"/>
<path d="M113.698 193.655C114.421 193.655 115.006 193.029 115.006 192.257C115.006 191.485 114.421 190.859 113.698 190.859C112.976 190.859 112.391 191.485 112.391 192.257C112.391 193.029 112.976 193.655 113.698 193.655Z" fill="#00160A"/>
<path d="M129.456 212.741C130.178 212.741 130.764 212.115 130.764 211.343C130.764 210.571 130.178 209.945 129.456 209.945C128.734 209.945 128.148 210.571 128.148 211.343C128.148 212.115 128.734 212.741 129.456 212.741Z" fill="#00160A"/>
<path d="M145.214 212.741C145.936 212.741 146.522 212.115 146.522 211.343C146.522 210.571 145.936 209.945 145.214 209.945C144.492 209.945 143.906 210.571 143.906 211.343C143.906 212.115 144.492 212.741 145.214 212.741Z" fill="#00160A"/>
<path d="M160.964 212.741C161.686 212.741 162.272 212.115 162.272 211.343C162.272 210.571 161.686 209.945 160.964 209.945C160.242 209.945 159.656 210.571 159.656 211.343C159.656 212.115 160.242 212.741 160.964 212.741Z" fill="#00160A"/>
<path d="M176.722 212.741C177.444 212.741 178.03 212.115 178.03 211.343C178.03 210.571 177.444 209.945 176.722 209.945C176 209.945 175.414 210.571 175.414 211.343C175.414 212.115 176 212.741 176.722 212.741Z" fill="#00160A"/>
<path d="M1.30773 212.741C2.02997 212.741 2.61546 212.115 2.61546 211.343C2.61546 210.571 2.02997 209.945 1.30773 209.945C0.585491 209.945 0 210.571 0 211.343C0 212.115 0.585491 212.741 1.30773 212.741Z" fill="#00160A"/>
<path d="M194.834 211.343C194.834 211.62 194.758 211.89 194.614 212.12C194.47 212.349 194.266 212.529 194.027 212.634C193.788 212.74 193.525 212.768 193.271 212.714C193.018 212.66 192.785 212.527 192.602 212.331C192.419 212.136 192.294 211.887 192.244 211.616C192.193 211.345 192.219 211.064 192.318 210.808C192.417 210.553 192.585 210.334 192.8 210.181C193.015 210.027 193.268 209.945 193.526 209.945C193.873 209.945 194.206 210.093 194.451 210.355C194.696 210.617 194.834 210.972 194.834 211.343Z" fill="#00160A"/>
<path d="M18.3733 211.343C18.3733 211.62 18.2966 211.89 18.1529 212.12C18.0092 212.349 17.805 212.529 17.566 212.634C17.327 212.74 17.0641 212.768 16.8104 212.714C16.5567 212.66 16.3237 212.527 16.1408 212.331C15.9579 212.136 15.8334 211.887 15.7829 211.616C15.7325 211.345 15.7584 211.064 15.8574 210.808C15.9563 210.553 16.124 210.334 16.339 210.181C16.5541 210.027 16.8069 209.945 17.0656 209.945C17.4124 209.945 17.745 210.093 17.9903 210.355C18.2355 210.617 18.3733 210.972 18.3733 211.343Z" fill="#00160A"/>
<path d="M209.284 212.741C210.007 212.741 210.592 212.115 210.592 211.343C210.592 210.571 210.007 209.945 209.284 209.945C208.562 209.945 207.977 210.571 207.977 211.343C207.977 212.115 208.562 212.741 209.284 212.741Z" fill="#00160A"/>
<path d="M32.8155 212.741C33.5378 212.741 34.1233 212.115 34.1233 211.343C34.1233 210.571 33.5378 209.945 32.8155 209.945C32.0933 209.945 31.5078 210.571 31.5078 211.343C31.5078 212.115 32.0933 212.741 32.8155 212.741Z" fill="#00160A"/>
<path d="M225.042 212.741C225.764 212.741 226.35 212.115 226.35 211.343C226.35 210.571 225.764 209.945 225.042 209.945C224.32 209.945 223.734 210.571 223.734 211.343C223.734 212.115 224.32 212.741 225.042 212.741Z" fill="#00160A"/>
<path d="M49.628 212.741C50.3503 212.741 50.9358 212.115 50.9358 211.343C50.9358 210.571 50.3503 209.945 49.628 209.945C48.9058 209.945 48.3203 210.571 48.3203 211.343C48.3203 212.115 48.9058 212.741 49.628 212.741Z" fill="#00160A"/>
<path d="M240.8 212.741C241.522 212.741 242.108 212.115 242.108 211.343C242.108 210.571 241.522 209.945 240.8 209.945C240.078 209.945 239.492 210.571 239.492 211.343C239.492 212.115 240.078 212.741 240.8 212.741Z" fill="#00160A"/>
<path d="M65.378 212.741C66.1003 212.741 66.6858 212.115 66.6858 211.343C66.6858 210.571 66.1003 209.945 65.378 209.945C64.6558 209.945 64.0703 210.571 64.0703 211.343C64.0703 212.115 64.6558 212.741 65.378 212.741Z" fill="#00160A"/>
<path d="M257.605 212.741C258.327 212.741 258.912 212.115 258.912 211.343C258.912 210.571 258.327 209.945 257.605 209.945C256.882 209.945 256.297 210.571 256.297 211.343C256.297 212.115 256.882 212.741 257.605 212.741Z" fill="#00160A"/>
<path d="M81.1359 212.741C81.8581 212.741 82.4436 212.115 82.4436 211.343C82.4436 210.571 81.8581 209.945 81.1359 209.945C80.4136 209.945 79.8281 210.571 79.8281 211.343C79.8281 212.115 80.4136 212.741 81.1359 212.741Z" fill="#00160A"/>
<path d="M273.355 212.741C274.077 212.741 274.662 212.115 274.662 211.343C274.662 210.571 274.077 209.945 273.355 209.945C272.632 209.945 272.047 210.571 272.047 211.343C272.047 212.115 272.632 212.741 273.355 212.741Z" fill="#00160A"/>
<path d="M96.8937 212.741C97.6159 212.741 98.2014 212.115 98.2014 211.343C98.2014 210.571 97.6159 209.945 96.8937 209.945C96.1714 209.945 95.5859 210.571 95.5859 211.343C95.5859 212.115 96.1714 212.741 96.8937 212.741Z" fill="#00160A"/>
<path d="M289.112 212.741C289.835 212.741 290.42 212.115 290.42 211.343C290.42 210.571 289.835 209.945 289.112 209.945C288.39 209.945 287.805 210.571 287.805 211.343C287.805 212.115 288.39 212.741 289.112 212.741Z" fill="#00160A"/>
<path d="M113.698 212.741C114.421 212.741 115.006 212.115 115.006 211.343C115.006 210.571 114.421 209.945 113.698 209.945C112.976 209.945 112.391 210.571 112.391 211.343C112.391 212.115 112.976 212.741 113.698 212.741Z" fill="#00160A"/>
<path d="M129.456 231.827C130.178 231.827 130.764 231.201 130.764 230.429C130.764 229.657 130.178 229.031 129.456 229.031C128.734 229.031 128.148 229.657 128.148 230.429C128.148 231.201 128.734 231.827 129.456 231.827Z" fill="#00160A"/>
<path d="M145.214 231.827C145.936 231.827 146.522 231.201 146.522 230.429C146.522 229.657 145.936 229.031 145.214 229.031C144.492 229.031 143.906 229.657 143.906 230.429C143.906 231.201 144.492 231.827 145.214 231.827Z" fill="#00160A"/>
<path d="M160.964 231.827C161.686 231.827 162.272 231.201 162.272 230.429C162.272 229.657 161.686 229.031 160.964 229.031C160.242 229.031 159.656 229.657 159.656 230.429C159.656 231.201 160.242 231.827 160.964 231.827Z" fill="#00160A"/>
<path d="M176.722 231.827C177.444 231.827 178.03 231.201 178.03 230.429C178.03 229.657 177.444 229.031 176.722 229.031C176 229.031 175.414 229.657 175.414 230.429C175.414 231.201 176 231.827 176.722 231.827Z" fill="#00160A"/>
<path d="M1.30773 231.827C2.02997 231.827 2.61546 231.201 2.61546 230.429C2.61546 229.657 2.02997 229.031 1.30773 229.031C0.585491 229.031 0 229.657 0 230.429C0 231.201 0.585491 231.827 1.30773 231.827Z" fill="#00160A"/>
<path d="M194.834 230.429C194.834 230.705 194.758 230.976 194.614 231.206C194.47 231.435 194.266 231.615 194.027 231.72C193.788 231.826 193.525 231.854 193.271 231.8C193.018 231.746 192.785 231.613 192.602 231.417C192.419 231.222 192.294 230.973 192.244 230.702C192.193 230.431 192.219 230.15 192.318 229.894C192.417 229.639 192.585 229.42 192.8 229.267C193.015 229.113 193.268 229.031 193.526 229.031C193.873 229.031 194.206 229.179 194.451 229.441C194.696 229.703 194.834 230.058 194.834 230.429Z" fill="#00160A"/>
<path d="M18.3733 230.429C18.3733 230.705 18.2966 230.976 18.1529 231.206C18.0092 231.435 17.805 231.615 17.566 231.72C17.327 231.826 17.0641 231.854 16.8104 231.8C16.5567 231.746 16.3237 231.613 16.1408 231.417C15.9579 231.222 15.8334 230.973 15.7829 230.702C15.7325 230.431 15.7584 230.15 15.8574 229.894C15.9563 229.639 16.124 229.42 16.339 229.267C16.5541 229.113 16.8069 229.031 17.0656 229.031C17.4124 229.031 17.745 229.179 17.9903 229.441C18.2355 229.703 18.3733 230.058 18.3733 230.429Z" fill="#00160A"/>
<path d="M209.284 231.827C210.007 231.827 210.592 231.201 210.592 230.429C210.592 229.657 210.007 229.031 209.284 229.031C208.562 229.031 207.977 229.657 207.977 230.429C207.977 231.201 208.562 231.827 209.284 231.827Z" fill="#00160A"/>
<path d="M32.8155 231.827C33.5378 231.827 34.1233 231.201 34.1233 230.429C34.1233 229.657 33.5378 229.031 32.8155 229.031C32.0933 229.031 31.5078 229.657 31.5078 230.429C31.5078 231.201 32.0933 231.827 32.8155 231.827Z" fill="#00160A"/>
<path d="M225.042 231.827C225.764 231.827 226.35 231.201 226.35 230.429C226.35 229.657 225.764 229.031 225.042 229.031C224.32 229.031 223.734 229.657 223.734 230.429C223.734 231.201 224.32 231.827 225.042 231.827Z" fill="#00160A"/>
<path d="M49.628 231.827C50.3503 231.827 50.9358 231.201 50.9358 230.429C50.9358 229.657 50.3503 229.031 49.628 229.031C48.9058 229.031 48.3203 229.657 48.3203 230.429C48.3203 231.201 48.9058 231.827 49.628 231.827Z" fill="#00160A"/>
<path d="M240.8 231.827C241.522 231.827 242.108 231.201 242.108 230.429C242.108 229.657 241.522 229.031 240.8 229.031C240.078 229.031 239.492 229.657 239.492 230.429C239.492 231.201 240.078 231.827 240.8 231.827Z" fill="#00160A"/>
<path d="M65.378 231.827C66.1003 231.827 66.6858 231.201 66.6858 230.429C66.6858 229.657 66.1003 229.031 65.378 229.031C64.6558 229.031 64.0703 229.657 64.0703 230.429C64.0703 231.201 64.6558 231.827 65.378 231.827Z" fill="#00160A"/>
<path d="M257.605 231.827C258.327 231.827 258.912 231.201 258.912 230.429C258.912 229.657 258.327 229.031 257.605 229.031C256.882 229.031 256.297 229.657 256.297 230.429C256.297 231.201 256.882 231.827 257.605 231.827Z" fill="#00160A"/>
<path d="M81.1359 231.827C81.8581 231.827 82.4436 231.201 82.4436 230.429C82.4436 229.657 81.8581 229.031 81.1359 229.031C80.4136 229.031 79.8281 229.657 79.8281 230.429C79.8281 231.201 80.4136 231.827 81.1359 231.827Z" fill="#00160A"/>
<path d="M273.355 231.827C274.077 231.827 274.662 231.201 274.662 230.429C274.662 229.657 274.077 229.031 273.355 229.031C272.632 229.031 272.047 229.657 272.047 230.429C272.047 231.201 272.632 231.827 273.355 231.827Z" fill="#00160A"/>
<path d="M96.8937 231.827C97.6159 231.827 98.2014 231.201 98.2014 230.429C98.2014 229.657 97.6159 229.031 96.8937 229.031C96.1714 229.031 95.5859 229.657 95.5859 230.429C95.5859 231.201 96.1714 231.827 96.8937 231.827Z" fill="#00160A"/>
<path d="M289.112 231.827C289.835 231.827 290.42 231.201 290.42 230.429C290.42 229.657 289.835 229.031 289.112 229.031C288.39 229.031 287.805 229.657 287.805 230.429C287.805 231.201 288.39 231.827 289.112 231.827Z" fill="#00160A"/>
<path d="M113.698 231.827C114.421 231.827 115.006 231.201 115.006 230.429C115.006 229.657 114.421 229.031 113.698 229.031C112.976 229.031 112.391 229.657 112.391 230.429C112.391 231.201 112.976 231.827 113.698 231.827Z" fill="#00160A"/>
<path d="M129.456 250.913C130.178 250.913 130.764 250.287 130.764 249.515C130.764 248.743 130.178 248.117 129.456 248.117C128.734 248.117 128.148 248.743 128.148 249.515C128.148 250.287 128.734 250.913 129.456 250.913Z" fill="#00160A"/>
<path d="M145.214 250.913C145.936 250.913 146.522 250.287 146.522 249.515C146.522 248.743 145.936 248.117 145.214 248.117C144.492 248.117 143.906 248.743 143.906 249.515C143.906 250.287 144.492 250.913 145.214 250.913Z" fill="#00160A"/>
<path d="M160.964 250.913C161.686 250.913 162.272 250.287 162.272 249.515C162.272 248.743 161.686 248.117 160.964 248.117C160.242 248.117 159.656 248.743 159.656 249.515C159.656 250.287 160.242 250.913 160.964 250.913Z" fill="#00160A"/>
<path d="M176.722 250.913C177.444 250.913 178.03 250.287 178.03 249.515C178.03 248.743 177.444 248.117 176.722 248.117C176 248.117 175.414 248.743 175.414 249.515C175.414 250.287 176 250.913 176.722 250.913Z" fill="#00160A"/>
<path d="M1.30773 250.913C2.02997 250.913 2.61546 250.287 2.61546 249.515C2.61546 248.743 2.02997 248.117 1.30773 248.117C0.585491 248.117 0 248.743 0 249.515C0 250.287 0.585491 250.913 1.30773 250.913Z" fill="#00160A"/>
<path d="M194.834 249.515C194.834 249.791 194.758 250.062 194.614 250.292C194.47 250.521 194.266 250.701 194.027 250.806C193.788 250.912 193.525 250.94 193.271 250.886C193.018 250.832 192.785 250.699 192.602 250.503C192.419 250.308 192.294 250.059 192.244 249.788C192.193 249.517 192.219 249.235 192.318 248.98C192.417 248.725 192.585 248.506 192.8 248.353C193.015 248.199 193.268 248.117 193.526 248.117C193.873 248.117 194.206 248.264 194.451 248.527C194.696 248.789 194.834 249.144 194.834 249.515Z" fill="#00160A"/>
<path d="M18.3733 249.515C18.3733 249.791 18.2966 250.062 18.1529 250.292C18.0092 250.521 17.805 250.701 17.566 250.806C17.327 250.912 17.0641 250.94 16.8104 250.886C16.5567 250.832 16.3237 250.699 16.1408 250.503C15.9579 250.308 15.8334 250.059 15.7829 249.788C15.7325 249.517 15.7584 249.235 15.8574 248.98C15.9563 248.725 16.124 248.506 16.339 248.353C16.5541 248.199 16.8069 248.117 17.0656 248.117C17.4124 248.117 17.745 248.264 17.9903 248.527C18.2355 248.789 18.3733 249.144 18.3733 249.515Z" fill="#00160A"/>
<path d="M209.284 250.913C210.007 250.913 210.592 250.287 210.592 249.515C210.592 248.743 210.007 248.117 209.284 248.117C208.562 248.117 207.977 248.743 207.977 249.515C207.977 250.287 208.562 250.913 209.284 250.913Z" fill="#00160A"/>
<path d="M32.8155 250.913C33.5378 250.913 34.1233 250.287 34.1233 249.515C34.1233 248.743 33.5378 248.117 32.8155 248.117C32.0933 248.117 31.5078 248.743 31.5078 249.515C31.5078 250.287 32.0933 250.913 32.8155 250.913Z" fill="#00160A"/>
<path d="M225.042 250.913C225.764 250.913 226.35 250.287 226.35 249.515C226.35 248.743 225.764 248.117 225.042 248.117C224.32 248.117 223.734 248.743 223.734 249.515C223.734 250.287 224.32 250.913 225.042 250.913Z" fill="#00160A"/>
<path d="M49.628 250.913C50.3503 250.913 50.9358 250.287 50.9358 249.515C50.9358 248.743 50.3503 248.117 49.628 248.117C48.9058 248.117 48.3203 248.743 48.3203 249.515C48.3203 250.287 48.9058 250.913 49.628 250.913Z" fill="#00160A"/>
<path d="M240.8 250.913C241.522 250.913 242.108 250.287 242.108 249.515C242.108 248.743 241.522 248.117 240.8 248.117C240.078 248.117 239.492 248.743 239.492 249.515C239.492 250.287 240.078 250.913 240.8 250.913Z" fill="#00160A"/>
<path d="M65.378 250.913C66.1003 250.913 66.6858 250.287 66.6858 249.515C66.6858 248.743 66.1003 248.117 65.378 248.117C64.6558 248.117 64.0703 248.743 64.0703 249.515C64.0703 250.287 64.6558 250.913 65.378 250.913Z" fill="#00160A"/>
<path d="M257.605 250.913C258.327 250.913 258.912 250.287 258.912 249.515C258.912 248.743 258.327 248.117 257.605 248.117C256.882 248.117 256.297 248.743 256.297 249.515C256.297 250.287 256.882 250.913 257.605 250.913Z" fill="#00160A"/>
<path d="M81.1359 250.913C81.8581 250.913 82.4436 250.287 82.4436 249.515C82.4436 248.743 81.8581 248.117 81.1359 248.117C80.4136 248.117 79.8281 248.743 79.8281 249.515C79.8281 250.287 80.4136 250.913 81.1359 250.913Z" fill="#00160A"/>
<path d="M273.355 250.913C274.077 250.913 274.662 250.287 274.662 249.515C274.662 248.743 274.077 248.117 273.355 248.117C272.632 248.117 272.047 248.743 272.047 249.515C272.047 250.287 272.632 250.913 273.355 250.913Z" fill="#00160A"/>
<path d="M96.8937 250.913C97.6159 250.913 98.2014 250.287 98.2014 249.515C98.2014 248.743 97.6159 248.117 96.8937 248.117C96.1714 248.117 95.5859 248.743 95.5859 249.515C95.5859 250.287 96.1714 250.913 96.8937 250.913Z" fill="#00160A"/>
<path d="M289.112 250.913C289.835 250.913 290.42 250.287 290.42 249.515C290.42 248.743 289.835 248.117 289.112 248.117C288.39 248.117 287.805 248.743 287.805 249.515C287.805 250.287 288.39 250.913 289.112 250.913Z" fill="#00160A"/>
<path d="M113.698 250.913C114.421 250.913 115.006 250.287 115.006 249.515C115.006 248.743 114.421 248.117 113.698 248.117C112.976 248.117 112.391 248.743 112.391 249.515C112.391 250.287 112.976 250.913 113.698 250.913Z" fill="#00160A"/>
<path d="M129.456 269.999C130.178 269.999 130.764 269.373 130.764 268.601C130.764 267.829 130.178 267.203 129.456 267.203C128.734 267.203 128.148 267.829 128.148 268.601C128.148 269.373 128.734 269.999 129.456 269.999Z" fill="#00160A"/>
<path d="M145.214 269.999C145.936 269.999 146.522 269.373 146.522 268.601C146.522 267.829 145.936 267.203 145.214 267.203C144.492 267.203 143.906 267.829 143.906 268.601C143.906 269.373 144.492 269.999 145.214 269.999Z" fill="#00160A"/>
<path d="M160.964 269.999C161.686 269.999 162.272 269.373 162.272 268.601C162.272 267.829 161.686 267.203 160.964 267.203C160.242 267.203 159.656 267.829 159.656 268.601C159.656 269.373 160.242 269.999 160.964 269.999Z" fill="#00160A"/>
<path d="M176.722 269.999C177.444 269.999 178.03 269.373 178.03 268.601C178.03 267.829 177.444 267.203 176.722 267.203C176 267.203 175.414 267.829 175.414 268.601C175.414 269.373 176 269.999 176.722 269.999Z" fill="#00160A"/>
<path d="M1.30773 269.999C2.02997 269.999 2.61546 269.373 2.61546 268.601C2.61546 267.829 2.02997 267.203 1.30773 267.203C0.585491 267.203 0 267.829 0 268.601C0 269.373 0.585491 269.999 1.30773 269.999Z" fill="#00160A"/>
<path d="M194.834 268.601C194.834 268.877 194.758 269.148 194.614 269.377C194.47 269.607 194.266 269.786 194.027 269.892C193.788 269.998 193.525 270.026 193.271 269.972C193.018 269.918 192.785 269.785 192.602 269.589C192.419 269.394 192.294 269.145 192.244 268.874C192.193 268.602 192.219 268.321 192.318 268.066C192.417 267.811 192.585 267.592 192.8 267.439C193.015 267.285 193.268 267.203 193.526 267.203C193.873 267.203 194.206 267.35 194.451 267.613C194.696 267.875 194.834 268.23 194.834 268.601Z" fill="#00160A"/>
<path d="M18.3733 268.601C18.3733 268.877 18.2966 269.148 18.1529 269.377C18.0092 269.607 17.805 269.786 17.566 269.892C17.327 269.998 17.0641 270.026 16.8104 269.972C16.5567 269.918 16.3237 269.785 16.1408 269.589C15.9579 269.394 15.8334 269.145 15.7829 268.874C15.7325 268.602 15.7584 268.321 15.8574 268.066C15.9563 267.811 16.124 267.592 16.339 267.439C16.5541 267.285 16.8069 267.203 17.0656 267.203C17.4124 267.203 17.745 267.35 17.9903 267.613C18.2355 267.875 18.3733 268.23 18.3733 268.601Z" fill="#00160A"/>
<path d="M209.284 269.999C210.007 269.999 210.592 269.373 210.592 268.601C210.592 267.829 210.007 267.203 209.284 267.203C208.562 267.203 207.977 267.829 207.977 268.601C207.977 269.373 208.562 269.999 209.284 269.999Z" fill="#00160A"/>
<path d="M32.8155 269.999C33.5378 269.999 34.1233 269.373 34.1233 268.601C34.1233 267.829 33.5378 267.203 32.8155 267.203C32.0933 267.203 31.5078 267.829 31.5078 268.601C31.5078 269.373 32.0933 269.999 32.8155 269.999Z" fill="#00160A"/>
<path d="M225.042 269.999C225.764 269.999 226.35 269.373 226.35 268.601C226.35 267.829 225.764 267.203 225.042 267.203C224.32 267.203 223.734 267.829 223.734 268.601C223.734 269.373 224.32 269.999 225.042 269.999Z" fill="#00160A"/>
<path d="M49.628 269.999C50.3503 269.999 50.9358 269.373 50.9358 268.601C50.9358 267.829 50.3503 267.203 49.628 267.203C48.9058 267.203 48.3203 267.829 48.3203 268.601C48.3203 269.373 48.9058 269.999 49.628 269.999Z" fill="#00160A"/>
<path d="M240.8 269.999C241.522 269.999 242.108 269.373 242.108 268.601C242.108 267.829 241.522 267.203 240.8 267.203C240.078 267.203 239.492 267.829 239.492 268.601C239.492 269.373 240.078 269.999 240.8 269.999Z" fill="#00160A"/>
<path d="M65.378 269.999C66.1003 269.999 66.6858 269.373 66.6858 268.601C66.6858 267.829 66.1003 267.203 65.378 267.203C64.6558 267.203 64.0703 267.829 64.0703 268.601C64.0703 269.373 64.6558 269.999 65.378 269.999Z" fill="#00160A"/>
<path d="M257.605 269.999C258.327 269.999 258.912 269.373 258.912 268.601C258.912 267.829 258.327 267.203 257.605 267.203C256.882 267.203 256.297 267.829 256.297 268.601C256.297 269.373 256.882 269.999 257.605 269.999Z" fill="#00160A"/>
<path d="M81.1359 269.999C81.8581 269.999 82.4436 269.373 82.4436 268.601C82.4436 267.829 81.8581 267.203 81.1359 267.203C80.4136 267.203 79.8281 267.829 79.8281 268.601C79.8281 269.373 80.4136 269.999 81.1359 269.999Z" fill="#00160A"/>
<path d="M273.355 269.999C274.077 269.999 274.662 269.373 274.662 268.601C274.662 267.829 274.077 267.203 273.355 267.203C272.632 267.203 272.047 267.829 272.047 268.601C272.047 269.373 272.632 269.999 273.355 269.999Z" fill="#00160A"/>
<path d="M96.8937 269.999C97.6159 269.999 98.2014 269.373 98.2014 268.601C98.2014 267.829 97.6159 267.203 96.8937 267.203C96.1714 267.203 95.5859 267.829 95.5859 268.601C95.5859 269.373 96.1714 269.999 96.8937 269.999Z" fill="#00160A"/>
<path d="M289.112 269.999C289.835 269.999 290.42 269.373 290.42 268.601C290.42 267.829 289.835 267.203 289.112 267.203C288.39 267.203 287.805 267.829 287.805 268.601C287.805 269.373 288.39 269.999 289.112 269.999Z" fill="#00160A"/>
<path d="M113.698 269.999C114.421 269.999 115.006 269.373 115.006 268.601C115.006 267.829 114.421 267.203 113.698 267.203C112.976 267.203 112.391 267.829 112.391 268.601C112.391 269.373 112.976 269.999 113.698 269.999Z" fill="#00160A"/>
</svg>
